<svg width="75" height="39" viewBox="0 0 75 39" fill="none" xmlns="http://www.w3.org/2000/svg">
<path d="M4.25094 26.3793C3.7646 27.0638 3.06212 27.6762 2.17951 27.6762C1.96336 27.6762 1.09876 27.6402 0.828572 26.8116C0.88261 26.8297 0.972672 26.8297 1.0087 26.8297C1.54907 26.8297 1.90932 26.3613 1.90932 25.947C1.90932 25.5328 1.56708 25.3887 1.2969 25.3887C1.0087 25.3887 0.378261 25.6048 0.378261 26.4874C0.378261 27.4061 1.1528 28.0365 2.17951 28.0365C3.98075 28.0365 5.80001 26.3793 6.30436 24.38L8.06958 17.3551C8.08759 17.265 8.12362 17.157 8.12362 17.0489C8.12362 16.7787 7.90747 16.5986 7.63728 16.5986C7.47517 16.5986 7.09691 16.6706 6.95281 17.211L5.61988 22.5067C5.52982 22.8309 5.52982 22.8669 5.38572 23.0651C5.02547 23.5694 4.43106 24.1818 3.56647 24.1818C2.55777 24.1818 2.46771 23.1911 2.46771 22.7048C2.46771 21.6781 2.95404 20.2911 3.44038 18.9942C3.63851 18.4719 3.74659 18.2197 3.74659 17.8595C3.74659 17.1029 3.20622 16.4185 2.32361 16.4185C0.66646 16.4185 0 19.0303 0 19.1744C0 19.2464 0.0720488 19.3365 0.198136 19.3365C0.360249 19.3365 0.378261 19.2644 0.450311 19.0123C0.88261 17.4992 1.56708 16.7787 2.26957 16.7787C2.43168 16.7787 2.73789 16.7787 2.73789 17.3731C2.73789 17.8414 2.53975 18.3638 2.26957 19.0483C1.38696 21.4079 1.38696 22.0023 1.38696 22.4346C1.38696 24.1458 2.61181 24.5421 3.51243 24.5421C4.03479 24.5421 4.68324 24.38 5.31367 23.7135L5.33169 23.7315C5.0615 24.7942 4.88137 25.4967 4.25094 26.3793Z" fill="#F1F0F1"/>
<path d="M25.9216 18.5258C26.1737 18.5258 26.498 18.5258 26.498 18.2016C26.498 17.8594 26.1918 17.8594 25.9216 17.8594H15.3122C15.0601 17.8594 14.7358 17.8594 14.7358 18.1836C14.7358 18.5258 15.0421 18.5258 15.3122 18.5258H25.9216ZM25.9216 21.8762C26.1737 21.8762 26.498 21.8762 26.498 21.5519C26.498 21.2097 26.1918 21.2097 25.9216 21.2097H15.3122C15.0601 21.2097 14.7358 21.2097 14.7358 21.5339C14.7358 21.8762 15.0421 21.8762 15.3122 21.8762H25.9216Z" fill="#F1F0F1"/>
<path d="M58.7141 0.990685V0.576399H54.3731C52.1936 0.576399 52.1576 0.342238 52.0855 0H51.6892L51.1309 3.60249H51.5271C51.5812 3.27827 51.7433 2.16149 51.9774 1.96336C52.1215 1.85528 53.4725 1.85528 53.7247 1.85528H57.5433L55.634 4.59318C55.1476 5.29566 53.3284 8.2497 53.3284 11.636C53.3284 11.8342 53.3284 12.5547 54.0669 12.5547C54.8234 12.5547 54.8234 11.8522 54.8234 11.618V10.7174C54.8234 8.03355 55.2557 5.94411 56.1023 4.73728L58.7141 0.990685Z" fill="#F1F0F1"/>
<path d="M74.8492 19.4985H34.2852V20.219H74.8492V19.4985Z" fill="#F1F0F1"/>
<path d="M42.8231 29.3683C42.2467 29.4764 42.0306 29.9087 42.0306 30.2509C42.0306 30.6832 42.3728 30.8273 42.625 30.8273C43.1653 30.8273 43.5436 30.359 43.5436 29.8727C43.5436 29.1162 42.679 28.7739 41.9225 28.7739C40.8237 28.7739 40.2113 29.8547 40.0492 30.1969C39.6349 28.846 38.5181 28.7739 38.1939 28.7739C36.3566 28.7739 35.384 31.1336 35.384 31.5298C35.384 31.6019 35.456 31.6919 35.5821 31.6919C35.7262 31.6919 35.7622 31.5839 35.7982 31.5118C36.4107 29.5124 37.6175 29.1342 38.1399 29.1342C38.9504 29.1342 39.1125 29.8907 39.1125 30.323C39.1125 30.7193 39.0045 31.1336 38.7883 31.9982L38.1759 34.4659C37.9057 35.5466 37.3833 36.5373 36.4287 36.5373C36.3386 36.5373 35.8883 36.5373 35.51 36.3031C36.1585 36.177 36.3026 35.6367 36.3026 35.4205C36.3026 35.0603 36.0324 34.8441 35.6902 34.8441C35.2579 34.8441 34.7896 35.2224 34.7896 35.7988C34.7896 36.5553 35.6361 36.8975 36.4107 36.8975C37.2753 36.8975 37.8877 36.2131 38.266 35.4746C38.5542 36.5373 39.4548 36.8975 40.1212 36.8975C41.9585 36.8975 42.9312 34.5379 42.9312 34.1416C42.9312 34.0516 42.8591 33.9795 42.7511 33.9795C42.5889 33.9795 42.5709 34.0696 42.5169 34.2137C42.0306 35.7988 40.9858 36.5373 40.1753 36.5373C39.5448 36.5373 39.2026 36.069 39.2026 35.3305C39.2026 34.9342 39.2747 34.646 39.5628 33.4572L40.1933 31.0075C40.4635 29.9267 41.0759 29.1342 41.9045 29.1342C41.9405 29.1342 42.4448 29.1342 42.8231 29.3683Z" fill="#F1F0F1"/>
<path d="M55.4975 32.5566H60.4689C60.7211 32.5566 61.0453 32.5566 61.0453 32.2324C61.0453 31.8901 60.7391 31.8901 60.4689 31.8901H55.4975V26.9187C55.4975 26.6665 55.4975 26.3423 55.1733 26.3423C54.831 26.3423 54.831 26.6485 54.831 26.9187V31.8901H49.8596C49.6074 31.8901 49.2832 31.8901 49.2832 32.2143C49.2832 32.5566 49.5894 32.5566 49.8596 32.5566H54.831V37.528C54.831 37.7802 54.831 38.1044 55.1553 38.1044C55.4975 38.1044 55.4975 37.7982 55.4975 37.528V32.5566Z" fill="#F1F0F1"/>
<path d="M72.5332 24.9914C72.5332 24.6491 72.5332 24.5591 72.2811 24.5591C72.137 24.5591 72.0829 24.5591 71.9388 24.7752L66.5171 33.187V33.7094H71.2544V35.3485C71.2544 36.015 71.2183 36.1951 69.9034 36.1951H69.5432V36.7175C69.9575 36.6815 71.3805 36.6815 71.8848 36.6815C72.3892 36.6815 73.8301 36.6815 74.2444 36.7175V36.1951H73.8842C72.5873 36.1951 72.5332 36.015 72.5332 35.3485V33.7094H74.3525V33.187H72.5332V24.9914ZM71.3444 26.3964V33.187H66.9674L71.3444 26.3964Z" fill="#F1F0F1"/>
</svg>
