<svg width="282" height="65" viewBox="0 0 282 65" fill="none" xmlns="http://www.w3.org/2000/svg">
<line x1="0.5" y1="2.0874" x2="281.5" y2="2.0874" stroke="#F1F0F1"/>
<line x1="0.5" y1="32.0874" x2="280.5" y2="32.0874" stroke="#F1F0F1"/>
<line x1="0.5" y1="62.0874" x2="280.5" y2="62.0874" stroke="#F1F0F1"/>
<line x1="1" y1="2.5874" x2="1" y2="62.5874" stroke="#F1F0F1"/>
<line x1="36" y1="2.5874" x2="36" y2="62.5874" stroke="#F1F0F1"/>
<line x1="71" y1="2.5874" x2="71" y2="62.5874" stroke="#F1F0F1"/>
<line x1="106" y1="2.5874" x2="106" y2="62.5874" stroke="#F1F0F1"/>
<line x1="141" y1="2.5874" x2="141" y2="62.5874" stroke="#F1F0F1"/>
<line x1="176" y1="2.5874" x2="176" y2="62.5874" stroke="#F1F0F1"/>
<line x1="246" y1="2.5874" x2="246" y2="62.5874" stroke="#F1F0F1"/>
<line x1="211" y1="2.5874" x2="211" y2="62.5874" stroke="#F1F0F1"/>
<line x1="281" y1="2.5874" x2="281" y2="62.5874" stroke="#F1F0F1"/>
<path d="M221.559 50.6024L225.927 42.3284L226.284 42.8324H220.026L220.53 42.2864V44.4074H219.522V41.8874H227.04V42.6224L222.819 50.6024H221.559ZM223.862 56.5874L233.9 41.8874H235.139L225.101 56.5874H223.862ZM236.167 56.6714C234.879 56.6714 233.885 56.2934 233.185 55.5374C232.499 54.7814 232.156 53.7174 232.156 52.3454C232.156 51.3794 232.345 50.5604 232.723 49.8884C233.115 49.2164 233.654 48.6984 234.34 48.3344C235.04 47.9704 235.859 47.7884 236.797 47.7884C237.189 47.7884 237.588 47.8304 237.994 47.9144C238.4 47.9844 238.743 48.1034 239.023 48.2714L238.624 49.1534C238.358 49.0134 238.064 48.9154 237.742 48.8594C237.434 48.7894 237.112 48.7544 236.776 48.7544C235.726 48.7544 234.879 49.0554 234.235 49.6574C233.591 50.2454 233.269 51.0854 233.269 52.1774C233.269 52.3594 233.283 52.5834 233.311 52.8494C233.339 53.1014 233.388 53.3464 233.458 53.5844L233.164 53.2064C233.276 52.6464 233.619 52.1984 234.193 51.8624C234.767 51.5124 235.453 51.3374 236.251 51.3374C236.909 51.3374 237.476 51.4494 237.952 51.6734C238.442 51.8834 238.827 52.1844 239.107 52.5764C239.387 52.9684 239.527 53.4234 239.527 53.9414C239.527 54.4874 239.38 54.9704 239.086 55.3904C238.806 55.7964 238.414 56.1114 237.91 56.3354C237.42 56.5594 236.839 56.6714 236.167 56.6714ZM236.146 55.7894C236.846 55.7894 237.399 55.6284 237.805 55.3064C238.211 54.9704 238.414 54.5364 238.414 54.0044C238.414 53.4724 238.211 53.0384 237.805 52.7024C237.399 52.3664 236.818 52.1984 236.062 52.1984C235.348 52.1984 234.767 52.3664 234.319 52.7024C233.871 53.0384 233.647 53.4724 233.647 54.0044C233.647 54.2844 233.731 54.5644 233.899 54.8444C234.067 55.1104 234.34 55.3344 234.718 55.5164C235.096 55.6984 235.572 55.7894 236.146 55.7894Z" fill="#F1F0F1"/>
<path d="M184.316 56.5874V42.5174L184.988 43.2314H180.851V41.8874H185.828V56.5874H184.316ZM189.426 59.6534L190.35 55.7684L190.518 56.6714C190.196 56.6714 189.923 56.5664 189.699 56.3564C189.489 56.1464 189.384 55.8734 189.384 55.5374C189.384 55.2014 189.489 54.9284 189.699 54.7184C189.923 54.5084 190.189 54.4034 190.497 54.4034C190.819 54.4034 191.078 54.5154 191.274 54.7394C191.484 54.9634 191.589 55.2294 191.589 55.5374C191.589 55.6494 191.582 55.7614 191.568 55.8734C191.554 55.9854 191.526 56.1114 191.484 56.2514C191.442 56.3914 191.386 56.5594 191.316 56.7554L190.434 59.6534H189.426ZM193.294 52.7234V51.6314L201.085 41.8874H202.765L195.037 51.6314L194.218 51.3794H206.041V52.7234H193.294ZM201.589 56.5874V52.7234L201.631 51.3794V47.9774H203.101V56.5874H201.589Z" fill="#F1F0F1"/>
<path d="M144.998 56.5874V43.1874L145.638 43.8674H141.698V42.5874H146.438V56.5874H144.998ZM149.864 59.5074L150.744 55.8074L150.904 56.6674C150.597 56.6674 150.337 56.5674 150.124 56.3674C149.924 56.1674 149.824 55.9074 149.824 55.5874C149.824 55.2674 149.924 55.0074 150.124 54.8074C150.337 54.6074 150.591 54.5074 150.884 54.5074C151.191 54.5074 151.437 54.6141 151.624 54.8274C151.824 55.0407 151.924 55.2941 151.924 55.5874C151.924 55.6941 151.917 55.8007 151.904 55.9074C151.891 56.0141 151.864 56.1341 151.824 56.2674C151.784 56.4007 151.731 56.5607 151.664 56.7474L150.824 59.5074H149.864ZM156.248 56.5874L162.288 43.2274L162.728 43.8674H154.068L154.808 43.1674V46.4874H153.388V42.5874H163.668V43.6074L157.808 56.5874H156.248ZM169.614 56.7074C168.614 56.7074 167.661 56.5474 166.754 56.2274C165.848 55.8941 165.128 55.4541 164.594 54.9074L165.294 53.7674C165.734 54.2341 166.334 54.6207 167.094 54.9274C167.868 55.2341 168.701 55.3874 169.594 55.3874C170.781 55.3874 171.681 55.1274 172.294 54.6074C172.921 54.0741 173.234 53.3807 173.234 52.5274C173.234 51.9274 173.088 51.4141 172.794 50.9874C172.514 50.5474 172.034 50.2074 171.354 49.9674C170.674 49.7274 169.741 49.6074 168.554 49.6074H165.574L166.294 42.5874H173.954V43.8674H166.874L167.614 43.1674L166.994 49.0474L166.254 48.3274H168.874C170.288 48.3274 171.421 48.5007 172.274 48.8474C173.128 49.1941 173.741 49.6807 174.114 50.3074C174.501 50.9207 174.694 51.6407 174.694 52.4674C174.694 53.2541 174.508 53.9741 174.134 54.6274C173.761 55.2674 173.201 55.7741 172.454 56.1474C171.708 56.5207 170.761 56.7074 169.614 56.7074Z" fill="#F1F0F1"/>
<path d="M116.559 50.6024L120.927 42.3284L121.284 42.8324H115.026L115.53 42.2864V44.4074H114.522V41.8874H122.04V42.6224L117.819 50.6024H116.559ZM118.862 56.5874L128.9 41.8874H130.139L120.101 56.5874H118.862ZM130.516 56.6714C129.746 56.6714 129.039 56.5734 128.395 56.3774C127.751 56.1674 127.261 55.8944 126.925 55.5584L127.408 54.7184C127.73 54.9984 128.164 55.2364 128.71 55.4324C129.256 55.6144 129.858 55.7054 130.516 55.7054C131.37 55.7054 132 55.5584 132.406 55.2644C132.812 54.9564 133.015 54.5574 133.015 54.0674C133.015 53.5634 132.812 53.1644 132.406 52.8704C132.014 52.5764 131.398 52.4294 130.558 52.4294H129.676V51.6524L132.679 48.3974L132.847 48.8174H127.156V47.8724H133.729V48.6074L130.747 51.8834L130.264 51.5684H130.747C131.853 51.5684 132.693 51.7994 133.267 52.2614C133.855 52.7234 134.149 53.3254 134.149 54.0674C134.149 54.5434 134.009 54.9844 133.729 55.3904C133.463 55.7824 133.057 56.0974 132.511 56.3354C131.979 56.5594 131.314 56.6714 130.516 56.6714Z" fill="#F1F0F1"/>
<path d="M80.3819 56.7134C79.3179 56.7134 78.3099 56.5454 77.3579 56.2094C76.4199 55.8594 75.6639 55.3974 75.0899 54.8234L75.8249 53.6264C76.3009 54.1164 76.9379 54.5224 77.7359 54.8444C78.5479 55.1664 79.4299 55.3274 80.3819 55.3274C81.5999 55.3274 82.5309 55.0614 83.1749 54.5294C83.8329 53.9974 84.1619 53.2834 84.1619 52.3874C84.1619 51.4914 83.8399 50.7774 83.1959 50.2454C82.5659 49.7134 81.5649 49.4474 80.1929 49.4474H79.1429V48.3344L83.6789 42.6434L83.8889 43.2314H75.6989V41.8874H85.1489V42.9584L80.6129 48.6494L79.8779 48.1664H80.4449C82.2089 48.1664 83.5249 48.5584 84.3929 49.3424C85.2749 50.1264 85.7159 51.1344 85.7159 52.3664C85.7159 53.1924 85.5199 53.9344 85.1279 54.5924C84.7359 55.2504 84.1409 55.7684 83.3429 56.1464C82.5589 56.5244 81.5719 56.7134 80.3819 56.7134ZM87.9304 59.6534L88.8544 55.7684L89.0224 56.6714C88.7004 56.6714 88.4274 56.5664 88.2034 56.3564C87.9934 56.1464 87.8884 55.8734 87.8884 55.5374C87.8884 55.2014 87.9934 54.9284 88.2034 54.7184C88.4274 54.5084 88.6934 54.4034 89.0014 54.4034C89.3234 54.4034 89.5824 54.5154 89.7784 54.7394C89.9884 54.9634 90.0934 55.2294 90.0934 55.5374C90.0934 55.6494 90.0864 55.7614 90.0724 55.8734C90.0584 55.9854 90.0304 56.1114 89.9884 56.2514C89.9464 56.3914 89.8904 56.5594 89.8204 56.7554L88.9384 59.6534H87.9304ZM96.9376 56.7134C95.8876 56.7134 94.8866 56.5454 93.9346 56.2094C92.9826 55.8594 92.2266 55.3974 91.6666 54.8234L92.4016 53.6264C92.8636 54.1164 93.4936 54.5224 94.2916 54.8444C95.1036 55.1664 95.9786 55.3274 96.9166 55.3274C98.1626 55.3274 99.1076 55.0544 99.7516 54.5084C100.41 53.9484 100.739 53.2204 100.739 52.3244C100.739 51.6944 100.585 51.1554 100.277 50.7074C99.9826 50.2454 99.4786 49.8884 98.7646 49.6364C98.0506 49.3844 97.0706 49.2584 95.8246 49.2584H92.6956L93.4516 41.8874H101.495V43.2314H94.0606L94.8376 42.4964L94.1866 48.6704L93.4096 47.9144H96.1606C97.6446 47.9144 98.8346 48.0964 99.7306 48.4604C100.627 48.8244 101.271 49.3354 101.663 49.9934C102.069 50.6374 102.272 51.3934 102.272 52.2614C102.272 53.0874 102.076 53.8434 101.684 54.5294C101.292 55.2014 100.704 55.7334 99.9196 56.1254C99.1356 56.5174 98.1416 56.7134 96.9376 56.7134Z" fill="#F1F0F1"/>
<path d="M51.4919 56.5874L57.8339 42.5594L58.2959 43.2314H49.2029L49.9799 42.4964V45.9824H48.4889V41.8874H59.2829V42.9584L53.1299 56.5874H51.4919Z" fill="#F1F0F1"/>
<path d="M14.9721 55.7664C14.4541 55.7664 13.9571 55.6824 13.4811 55.5144C13.0191 55.3464 12.6201 55.0944 12.2841 54.7584L12.9771 53.6454C13.2571 53.9114 13.5581 54.1144 13.8801 54.2544C14.2161 54.4084 14.5871 54.4854 14.9931 54.4854C15.4831 54.4854 15.9031 54.3454 16.2531 54.0654C16.6171 53.7994 16.9601 53.3234 17.2821 52.6374L17.9961 51.0204L18.1641 50.7894L22.7001 40.5624H24.1701L18.6471 52.9104C18.3391 53.6244 17.9961 54.1914 17.6181 54.6114C17.2541 55.0314 16.8551 55.3254 16.4211 55.4934C15.9871 55.6754 15.5041 55.7664 14.9721 55.7664ZM17.9121 51.9024L12.8301 40.5624H14.3841L18.8781 50.6844L17.9121 51.9024Z" fill="#F1F0F1"/>
<path d="M264.054 24.7134C262.99 24.7134 261.982 24.5454 261.03 24.2094C260.092 23.8594 259.336 23.3974 258.762 22.8234L259.497 21.6264C259.973 22.1164 260.61 22.5224 261.408 22.8444C262.22 23.1664 263.102 23.3274 264.054 23.3274C265.272 23.3274 266.203 23.0614 266.847 22.5294C267.505 21.9974 267.834 21.2834 267.834 20.3874C267.834 19.4914 267.512 18.7774 266.868 18.2454C266.238 17.7134 265.237 17.4474 263.865 17.4474H262.815V16.3344L267.351 10.6434L267.561 11.2314H259.371V9.8874H268.821V10.9584L264.285 16.6494L263.55 16.1664H264.117C265.881 16.1664 267.197 16.5584 268.065 17.3424C268.947 18.1264 269.388 19.1344 269.388 20.3664C269.388 21.1924 269.192 21.9344 268.8 22.5924C268.408 23.2504 267.813 23.7684 267.015 24.1464C266.231 24.5244 265.244 24.7134 264.054 24.7134Z" fill="#F1F0F1"/>
<path d="M224.351 24.5874V23.5164L230.462 17.5314C231.022 16.9854 231.442 16.5094 231.722 16.1034C232.002 15.6834 232.191 15.2914 232.289 14.9274C232.387 14.5634 232.436 14.2204 232.436 13.8984C232.436 13.0444 232.142 12.3724 231.554 11.8824C230.98 11.3924 230.126 11.1474 228.992 11.1474C228.124 11.1474 227.354 11.2804 226.682 11.5464C226.024 11.8124 225.457 12.2254 224.981 12.7854L223.91 11.8614C224.484 11.1894 225.219 10.6714 226.115 10.3074C227.011 9.9434 228.012 9.7614 229.118 9.7614C230.112 9.7614 230.973 9.9224 231.701 10.2444C232.429 10.5524 232.989 11.0074 233.381 11.6094C233.787 12.2114 233.99 12.9184 233.99 13.7304C233.99 14.2064 233.92 14.6754 233.78 15.1374C233.654 15.5994 233.416 16.0894 233.066 16.6074C232.73 17.1114 232.233 17.6854 231.575 18.3294L225.968 23.8314L225.548 23.2434H234.662V24.5874H224.351Z" fill="#F1F0F1"/>
<path d="M193.36 24.5874V10.5174L194.032 11.2314H189.895V9.8874H194.872V24.5874H193.36Z" fill="#F1F0F1"/>
<path d="M159.499 24.7134C158.365 24.7134 157.357 24.4194 156.475 23.8314C155.593 23.2294 154.9 22.3754 154.396 21.2694C153.892 20.1494 153.64 18.8054 153.64 17.2374C153.64 15.6694 153.892 14.3324 154.396 13.2264C154.9 12.1064 155.593 11.2524 156.475 10.6644C157.357 10.0624 158.365 9.7614 159.499 9.7614C160.633 9.7614 161.641 10.0624 162.523 10.6644C163.405 11.2524 164.098 12.1064 164.602 13.2264C165.12 14.3324 165.379 15.6694 165.379 17.2374C165.379 18.8054 165.12 20.1494 164.602 21.2694C164.098 22.3754 163.405 23.2294 162.523 23.8314C161.641 24.4194 160.633 24.7134 159.499 24.7134ZM159.499 23.3274C160.367 23.3274 161.123 23.0964 161.767 22.6344C162.411 22.1584 162.915 21.4724 163.279 20.5764C163.643 19.6664 163.825 18.5534 163.825 17.2374C163.825 15.9214 163.643 14.8154 163.279 13.9194C162.915 13.0094 162.411 12.3234 161.767 11.8614C161.123 11.3854 160.367 11.1474 159.499 11.1474C158.659 11.1474 157.91 11.3854 157.252 11.8614C156.594 12.3234 156.083 13.0094 155.719 13.9194C155.355 14.8154 155.173 15.9214 155.173 17.2374C155.173 18.5534 155.355 19.6664 155.719 20.5764C156.083 21.4724 156.594 22.1584 157.252 22.6344C157.91 23.0964 158.659 23.3274 159.499 23.3274Z" fill="#F1F0F1"/>
<path d="M118.131 19.5474V18.2454H123.633V19.5474H118.131ZM128.195 24.5874V10.5174L128.867 11.2314H124.73V9.8874H129.707V24.5874H128.195Z" fill="#F1F0F1"/>
<path d="M81.906 19.5474V18.2454H87.408V19.5474H81.906ZM89.2375 24.5874V23.5164L95.3485 17.5314C95.9085 16.9854 96.3285 16.5094 96.6085 16.1034C96.8885 15.6834 97.0775 15.2914 97.1755 14.9274C97.2735 14.5634 97.3225 14.2204 97.3225 13.8984C97.3225 13.0444 97.0285 12.3724 96.4405 11.8824C95.8665 11.3924 95.0125 11.1474 93.8785 11.1474C93.0105 11.1474 92.2405 11.2804 91.5685 11.5464C90.9105 11.8124 90.3435 12.2254 89.8675 12.7854L88.7965 11.8614C89.3705 11.1894 90.1055 10.6714 91.0015 10.3074C91.8975 9.9434 92.8985 9.7614 94.0045 9.7614C94.9985 9.7614 95.8595 9.9224 96.5875 10.2444C97.3155 10.5524 97.8755 11.0074 98.2675 11.6094C98.6735 12.2114 98.8765 12.9184 98.8765 13.7304C98.8765 14.2064 98.8065 14.6754 98.6665 15.1374C98.5405 15.5994 98.3025 16.0894 97.9525 16.6074C97.6165 17.1114 97.1195 17.6854 96.4615 18.3294L90.8545 23.8314L90.4345 23.2434H99.5485V24.5874H89.2375Z" fill="#F1F0F1"/>
<path d="M46.029 19.5474V18.2454H51.531V19.5474H46.029ZM57.8584 24.7134C56.7944 24.7134 55.7864 24.5454 54.8344 24.2094C53.8964 23.8594 53.1404 23.3974 52.5664 22.8234L53.3014 21.6264C53.7774 22.1164 54.4144 22.5224 55.2124 22.8444C56.0244 23.1664 56.9064 23.3274 57.8584 23.3274C59.0764 23.3274 60.0074 23.0614 60.6514 22.5294C61.3094 21.9974 61.6384 21.2834 61.6384 20.3874C61.6384 19.4914 61.3164 18.7774 60.6724 18.2454C60.0424 17.7134 59.0414 17.4474 57.6694 17.4474H56.6194V16.3344L61.1554 10.6434L61.3654 11.2314H53.1754V9.8874H62.6254V10.9584L58.0894 16.6494L57.3544 16.1664H57.9214C59.6854 16.1664 61.0014 16.5584 61.8694 17.3424C62.7514 18.1264 63.1924 19.1344 63.1924 20.3664C63.1924 21.1924 62.9964 21.9344 62.6044 22.5924C62.2124 23.2504 61.6174 23.7684 60.8194 24.1464C60.0354 24.5244 59.0484 24.7134 57.8584 24.7134Z" fill="#F1F0F1"/>
<path d="M13.2901 24.5874L17.9521 18.5394L17.9311 19.2744L13.5001 13.5624H15.1801L18.8131 18.2874L18.1831 18.2664L21.8161 13.5624H23.4541L18.9811 19.3374L19.0021 18.5394L23.7061 24.5874H22.0051L18.1621 19.5474L18.7501 19.6314L14.9701 24.5874H13.2901Z" fill="#F1F0F1"/>
<path d="M264.36 56.5874V42.5174L265.032 43.2314H260.895V41.8874H265.872V56.5874H264.36Z" fill="#F1F0F1"/>
</svg>
