<svg width="902" height="902" viewBox="0 0 902 902" fill="none" xmlns="http://www.w3.org/2000/svg">
<path d="M901.061 452.645C901.646 452.059 901.646 451.109 901.061 450.523L891.515 440.977C890.929 440.392 889.979 440.392 889.393 440.977C888.808 441.563 888.808 442.513 889.393 443.099L897.879 451.584L889.393 460.069C888.808 460.655 888.808 461.605 889.393 462.191C889.979 462.776 890.929 462.776 891.515 462.191L901.061 452.645ZM0 453.084H900V450.084H0L0 453.084Z" fill="#F1F0F1"/>
<line x1="511" y1="431.584" x2="511" y2="471.584" stroke="#F1F0F1" stroke-width="2"/>
<line x1="271" y1="431.584" x2="271" y2="471.584" stroke="#F1F0F1" stroke-width="2"/>
<line x1="91" y1="431.584" x2="91" y2="471.584" stroke="#F1F0F1" stroke-width="2"/>
<line x1="211" y1="431.584" x2="211" y2="471.584" stroke="#F1F0F1" stroke-width="2"/>
<line x1="31" y1="431.584" x2="31" y2="471.584" stroke="#F1F0F1" stroke-width="2"/>
<line x1="571" y1="431.584" x2="571" y2="471.584" stroke="#F1F0F1" stroke-width="2"/>
<line x1="751" y1="431.584" x2="751" y2="471.584" stroke="#F1F0F1" stroke-width="2"/>
<line x1="331" y1="431.584" x2="331" y2="471.584" stroke="#F1F0F1" stroke-width="2"/>
<line x1="151" y1="431.584" x2="151" y2="471.584" stroke="#F1F0F1" stroke-width="2"/>
<line x1="631" y1="431.584" x2="631" y2="471.584" stroke="#F1F0F1" stroke-width="2"/>
<line x1="811" y1="431.584" x2="811" y2="471.584" stroke="#F1F0F1" stroke-width="2"/>
<line x1="691" y1="431.584" x2="691" y2="471.584" stroke="#F1F0F1" stroke-width="2"/>
<line x1="871" y1="431.584" x2="871" y2="471.584" stroke="#F1F0F1" stroke-width="2"/>
<line x1="391" y1="431.584" x2="391" y2="471.584" stroke="#F1F0F1" stroke-width="2"/>
<path d="M451.061 0.526733C450.475 -0.059021 449.525 -0.059021 448.939 0.526733L439.393 10.0727C438.808 10.6584 438.808 11.6082 439.393 12.194C439.979 12.7798 440.929 12.7798 441.515 12.194L450 3.70874L458.485 12.194C459.071 12.7798 460.021 12.7798 460.607 12.194C461.192 11.6082 461.192 10.6584 460.607 10.0727L451.061 0.526733ZM451.5 901.587L451.5 1.5874H448.5L448.5 901.587H451.5Z" fill="#F1F0F1"/>
<line x1="430.152" y1="390.588" x2="470.152" y2="390.588" stroke="#F1F0F1" stroke-width="2"/>
<line x1="429.545" y1="630.587" x2="469.545" y2="630.587" stroke="#F1F0F1" stroke-width="2"/>
<line x1="429.394" y1="690.587" x2="469.394" y2="690.587" stroke="#F1F0F1" stroke-width="2"/>
<line x1="430.303" y1="330.588" x2="470.303" y2="330.588" stroke="#F1F0F1" stroke-width="2"/>
<line x1="429.697" y1="570.587" x2="469.697" y2="570.587" stroke="#F1F0F1" stroke-width="2"/>
<line x1="430.455" y1="270.588" x2="470.455" y2="270.588" stroke="#F1F0F1" stroke-width="2"/>
<line x1="430.607" y1="210.588" x2="470.607" y2="210.588" stroke="#F1F0F1" stroke-width="2"/>
<line x1="429.849" y1="510.587" x2="469.849" y2="510.587" stroke="#F1F0F1" stroke-width="2"/>
<path d="M261.529 498.546V497.244H267.031V498.546H261.529ZM273.358 503.712C272.294 503.712 271.286 503.544 270.334 503.208C269.396 502.858 268.64 502.396 268.066 501.822L268.801 500.625C269.277 501.115 269.914 501.521 270.712 501.843C271.524 502.165 272.406 502.326 273.358 502.326C274.576 502.326 275.507 502.06 276.151 501.528C276.809 500.996 277.138 500.282 277.138 499.386C277.138 498.49 276.816 497.776 276.172 497.244C275.542 496.712 274.541 496.446 273.169 496.446H272.119V495.333L276.655 489.642L276.865 490.23H268.675V488.886H278.125V489.957L273.589 495.648L272.854 495.165H273.421C275.185 495.165 276.501 495.557 277.369 496.341C278.251 497.125 278.692 498.133 278.692 499.365C278.692 500.191 278.496 500.933 278.104 501.591C277.712 502.249 277.117 502.767 276.319 503.145C275.535 503.523 274.548 503.712 273.358 503.712Z" fill="#F1F0F1"/>
<path d="M199.727 498.546V497.244H205.229V498.546H199.727ZM207.489 499.722V498.63L215.28 488.886H216.96L209.232 498.63L208.413 498.378H220.236V499.722H207.489ZM215.784 503.586V499.722L215.826 498.378V494.976H217.296V503.586H215.784Z" fill="#F1F0F1"/>
<path d="M139.303 498.546V497.244H144.805V498.546H139.303ZM151.795 503.712C150.745 503.712 149.744 503.544 148.792 503.208C147.84 502.858 147.084 502.396 146.524 501.822L147.259 500.625C147.721 501.115 148.351 501.521 149.149 501.843C149.961 502.165 150.836 502.326 151.774 502.326C153.02 502.326 153.965 502.053 154.609 501.507C155.267 500.947 155.596 500.219 155.596 499.323C155.596 498.693 155.442 498.154 155.134 497.706C154.84 497.244 154.336 496.887 153.622 496.635C152.908 496.383 151.928 496.257 150.682 496.257H147.553L148.309 488.886H156.352V490.23H148.918L149.695 489.495L149.044 495.669L148.267 494.913H151.018C152.502 494.913 153.692 495.095 154.588 495.459C155.484 495.823 156.128 496.334 156.52 496.992C156.926 497.636 157.129 498.392 157.129 499.26C157.129 500.086 156.933 500.842 156.541 501.528C156.149 502.2 155.561 502.732 154.777 503.124C153.993 503.516 152.999 503.712 151.795 503.712Z" fill="#F1F0F1"/>
<path d="M81.2703 498.546V497.244H86.7723V498.546H81.2703ZM95.3119 503.712C94.0099 503.712 92.9109 503.425 92.0149 502.851C91.1189 502.263 90.4399 501.423 89.9779 500.331C89.5159 499.225 89.2849 497.902 89.2849 496.362C89.2849 494.696 89.5649 493.303 90.1249 492.183C90.6989 491.049 91.4899 490.195 92.4979 489.621C93.5059 489.047 94.6749 488.76 96.0049 488.76C96.6629 488.76 97.2929 488.823 97.8949 488.949C98.4969 489.075 99.0289 489.278 99.4909 489.558L98.8819 490.776C98.5039 490.524 98.0699 490.349 97.5799 490.251C97.0899 490.139 96.5719 490.083 96.0259 490.083C94.4439 490.083 93.1769 490.587 92.2249 491.595C91.2869 492.603 90.8179 494.108 90.8179 496.11C90.8179 496.418 90.8319 496.803 90.8599 497.265C90.9019 497.713 90.9859 498.161 91.1119 498.609L90.5869 498.21C90.7409 497.482 91.0419 496.866 91.4899 496.362C91.9379 495.844 92.4979 495.452 93.1699 495.186C93.8419 494.92 94.5769 494.787 95.3749 494.787C96.3549 494.787 97.2159 494.969 97.9579 495.333C98.6999 495.697 99.2809 496.208 99.7009 496.866C100.121 497.524 100.331 498.301 100.331 499.197C100.331 500.107 100.114 500.905 99.6799 501.591C99.2459 502.263 98.6439 502.788 97.8739 503.166C97.1179 503.53 96.2639 503.712 95.3119 503.712ZM95.2489 502.431C95.9489 502.431 96.5649 502.305 97.0969 502.053C97.6429 501.787 98.0699 501.416 98.3779 500.94C98.6859 500.45 98.8399 499.883 98.8399 499.239C98.8399 498.273 98.5039 497.503 97.8319 496.929C97.1739 496.355 96.2779 496.068 95.1439 496.068C94.3879 496.068 93.7299 496.208 93.1699 496.488C92.6099 496.768 92.1689 497.153 91.8469 497.643C91.5249 498.119 91.3639 498.665 91.3639 499.281C91.3639 499.813 91.5109 500.324 91.8049 500.814C92.0989 501.29 92.5329 501.682 93.1069 501.99C93.6949 502.284 94.4089 502.431 95.2489 502.431Z" fill="#F1F0F1"/>
<path d="M20.6702 498.546V497.244H26.1722V498.546H20.6702ZM30.8986 503.586L37.2406 489.558L37.7026 490.23H28.6096L29.3866 489.495V492.981H27.8956V488.886H38.6896V489.957L32.5366 503.586H30.8986Z" fill="#F1F0F1"/>
<path d="M166.018 705.586V685.986H168.09V705.586H166.018ZM174.467 705.586V685.986H176.539V705.586H174.467ZM182.917 705.586V685.986H184.989V705.586H182.917ZM123.298 738.37C122.439 738.743 121.571 739.042 120.694 739.266C119.835 739.471 118.976 739.574 118.118 739.574C116.382 739.574 115.01 739.182 114.002 738.398C112.994 737.595 112.49 736.363 112.49 734.702V729.886H114.45V734.59C114.45 735.71 114.814 736.55 115.542 737.11C116.27 737.67 117.25 737.95 118.482 737.95C119.228 737.95 120.012 737.857 120.834 737.67C121.655 737.465 122.486 737.175 123.326 736.802L123.298 738.37ZM123.13 744.586V729.886H125.118V744.586H123.13ZM137.064 744.726C135.533 744.726 134.189 744.409 133.032 743.774C131.874 743.121 130.969 742.234 130.316 741.114C129.662 739.975 129.336 738.678 129.336 737.222C129.336 735.766 129.644 734.478 130.26 733.358C130.894 732.238 131.753 731.361 132.836 730.726C133.937 730.073 135.169 729.746 136.532 729.746C137.913 729.746 139.136 730.063 140.2 730.698C141.282 731.314 142.132 732.191 142.748 733.33C143.364 734.45 143.672 735.747 143.672 737.222C143.672 737.315 143.662 737.418 143.644 737.53C143.644 737.623 143.644 737.726 143.644 737.838H130.848V736.354H142.58L141.796 736.942C141.796 735.878 141.562 734.935 141.096 734.114C140.648 733.274 140.032 732.621 139.248 732.154C138.464 731.687 137.558 731.454 136.532 731.454C135.524 731.454 134.618 731.687 133.816 732.154C133.013 732.621 132.388 733.274 131.94 734.114C131.492 734.954 131.268 735.915 131.268 736.998V737.306C131.268 738.426 131.51 739.415 131.996 740.274C132.5 741.114 133.19 741.777 134.068 742.262C134.964 742.729 135.981 742.962 137.12 742.962C138.016 742.962 138.846 742.803 139.612 742.486C140.396 742.169 141.068 741.683 141.628 741.03L142.748 742.318C142.094 743.102 141.273 743.699 140.284 744.11C139.313 744.521 138.24 744.726 137.064 744.726ZM150.216 744.586V731.09L150.72 731.622H144.644V729.886H157.776V731.622H151.7L152.204 731.09V744.586H150.216ZM160.65 744.586V729.886H167.146C168.808 729.886 170.114 730.203 171.066 730.838C172.037 731.473 172.522 732.406 172.522 733.638C172.522 734.833 172.065 735.757 171.15 736.41C170.236 737.045 169.032 737.362 167.538 737.362L167.93 736.774C169.685 736.774 170.973 737.101 171.794 737.754C172.616 738.407 173.026 739.35 173.026 740.582C173.026 741.851 172.56 742.841 171.626 743.55C170.712 744.241 169.284 744.586 167.342 744.586H160.65ZM162.582 743.018H167.258C168.509 743.018 169.452 742.822 170.086 742.43C170.74 742.019 171.066 741.366 171.066 740.47C171.066 739.574 170.777 738.921 170.198 738.51C169.62 738.099 168.705 737.894 167.454 737.894H162.582V743.018ZM162.582 736.41H167.006C168.145 736.41 169.013 736.195 169.61 735.766C170.226 735.337 170.534 734.711 170.534 733.89C170.534 733.069 170.226 732.453 169.61 732.042C169.013 731.631 168.145 731.426 167.006 731.426H162.582V736.41ZM183.985 744.726C182.455 744.726 181.111 744.409 179.953 743.774C178.796 743.121 177.891 742.234 177.237 741.114C176.584 739.975 176.257 738.678 176.257 737.222C176.257 735.766 176.565 734.478 177.181 733.358C177.816 732.238 178.675 731.361 179.757 730.726C180.859 730.073 182.091 729.746 183.453 729.746C184.835 729.746 186.057 730.063 187.121 730.698C188.204 731.314 189.053 732.191 189.669 733.33C190.285 734.45 190.593 735.747 190.593 737.222C190.593 737.315 190.584 737.418 190.565 737.53C190.565 737.623 190.565 737.726 190.565 737.838H177.769V736.354H189.501L188.717 736.942C188.717 735.878 188.484 734.935 188.017 734.114C187.569 733.274 186.953 732.621 186.169 732.154C185.385 731.687 184.48 731.454 183.453 731.454C182.445 731.454 181.54 731.687 180.737 732.154C179.935 732.621 179.309 733.274 178.861 734.114C178.413 734.954 178.189 735.915 178.189 736.998V737.306C178.189 738.426 178.432 739.415 178.917 740.274C179.421 741.114 180.112 741.777 180.989 742.262C181.885 742.729 182.903 742.962 184.041 742.962C184.937 742.962 185.768 742.803 186.533 742.486C187.317 742.169 187.989 741.683 188.549 741.03L189.669 742.318C189.016 743.102 188.195 743.699 187.205 744.11C186.235 744.521 185.161 744.726 183.985 744.726ZM202.582 744.726C201.313 744.726 200.165 744.437 199.138 743.858C198.111 743.261 197.29 742.411 196.674 741.31C196.077 740.19 195.778 738.827 195.778 737.222C195.778 735.617 196.077 734.263 196.674 733.162C197.271 732.042 198.083 731.193 199.11 730.614C200.137 730.035 201.294 729.746 202.582 729.746C203.982 729.746 205.233 730.063 206.334 730.698C207.454 731.314 208.331 732.191 208.966 733.33C209.601 734.45 209.918 735.747 209.918 737.222C209.918 738.715 209.601 740.022 208.966 741.142C208.331 742.262 207.454 743.139 206.334 743.774C205.233 744.409 203.982 744.726 202.582 744.726ZM194.994 750.018V729.886H196.898V734.31L196.702 737.25L196.982 740.218V750.018H194.994ZM202.442 742.962C203.487 742.962 204.421 742.729 205.242 742.262C206.063 741.777 206.717 741.105 207.202 740.246C207.687 739.369 207.93 738.361 207.93 737.222C207.93 736.083 207.687 735.085 207.202 734.226C206.717 733.367 206.063 732.695 205.242 732.21C204.421 731.725 203.487 731.482 202.442 731.482C201.397 731.482 200.454 731.725 199.614 732.21C198.793 732.695 198.139 733.367 197.654 734.226C197.187 735.085 196.954 736.083 196.954 737.222C196.954 738.361 197.187 739.369 197.654 740.246C198.139 741.105 198.793 741.777 199.614 742.262C200.454 742.729 201.397 742.962 202.442 742.962ZM216.442 744.586V731.09L216.946 731.622H210.87V729.886H224.002V731.622H217.926L218.43 731.09V744.586H216.442ZM233.205 735.066C235.053 735.085 236.453 735.495 237.405 736.298C238.375 737.101 238.861 738.258 238.861 739.77C238.861 741.338 238.338 742.542 237.293 743.382C236.266 744.222 234.773 744.633 232.813 744.614L226.877 744.586V729.886H228.865V735.01L233.205 735.066ZM232.701 743.102C234.063 743.121 235.09 742.85 235.781 742.29C236.49 741.711 236.845 740.871 236.845 739.77C236.845 738.669 236.499 737.866 235.809 737.362C235.118 736.839 234.082 736.569 232.701 736.55L228.865 736.494V743.046L232.701 743.102ZM158.787 789.018C157.76 787.319 156.958 785.359 156.379 783.138C155.819 780.898 155.539 778.49 155.539 775.914C155.539 773.338 155.819 770.93 156.379 768.69C156.958 766.431 157.76 764.471 158.787 762.81H160.691C159.59 764.733 158.778 766.777 158.255 768.942C157.751 771.089 157.499 773.413 157.499 775.914C157.499 778.415 157.751 780.749 158.255 782.914C158.778 785.061 159.59 787.095 160.691 789.018H158.787ZM163.522 776.866V775.13H170.858V776.866H163.522ZM175.501 771.798C175.091 771.798 174.736 771.649 174.437 771.35C174.157 771.051 174.017 770.687 174.017 770.258C174.017 769.81 174.157 769.446 174.437 769.166C174.736 768.886 175.091 768.746 175.501 768.746C175.912 768.746 176.257 768.886 176.537 769.166C176.836 769.446 176.985 769.81 176.985 770.258C176.985 770.687 176.836 771.051 176.537 771.35C176.257 771.649 175.912 771.798 175.501 771.798ZM174.101 787.674L175.333 782.494L175.557 783.698C175.128 783.698 174.764 783.558 174.465 783.278C174.185 782.998 174.045 782.634 174.045 782.186C174.045 781.738 174.185 781.374 174.465 781.094C174.764 780.814 175.119 780.674 175.529 780.674C175.959 780.674 176.304 780.823 176.565 781.122C176.845 781.421 176.985 781.775 176.985 782.186C176.985 782.335 176.976 782.485 176.957 782.634C176.939 782.783 176.901 782.951 176.845 783.138C176.789 783.325 176.715 783.549 176.621 783.81L175.445 787.674H174.101ZM180.147 776.866V775.13H187.483V776.866H180.147ZM192.182 789.018H190.278C191.398 787.095 192.21 785.061 192.714 782.914C193.237 780.749 193.498 778.415 193.498 775.914C193.498 773.413 193.237 771.089 192.714 768.942C192.21 766.777 191.398 764.733 190.278 762.81H192.182C193.246 764.471 194.058 766.431 194.618 768.69C195.178 770.93 195.458 773.338 195.458 775.914C195.458 778.49 195.178 780.898 194.618 783.138C194.058 785.359 193.246 787.319 192.182 789.018Z" fill="#F1F0F1"/>
<path d="M170.243 207.586V187.986H172.315V207.586H170.243ZM178.692 207.586V187.986H180.764V207.586H178.692ZM123.298 240.37C122.439 240.743 121.571 241.042 120.694 241.266C119.835 241.471 118.976 241.574 118.118 241.574C116.382 241.574 115.01 241.182 114.002 240.398C112.994 239.595 112.49 238.363 112.49 236.702V231.886H114.45V236.59C114.45 237.71 114.814 238.55 115.542 239.11C116.27 239.67 117.25 239.95 118.482 239.95C119.228 239.95 120.012 239.857 120.834 239.67C121.655 239.465 122.486 239.175 123.326 238.802L123.298 240.37ZM123.13 246.586V231.886H125.118V246.586H123.13ZM137.064 246.726C135.533 246.726 134.189 246.409 133.032 245.774C131.874 245.121 130.969 244.234 130.316 243.114C129.662 241.975 129.336 240.678 129.336 239.222C129.336 237.766 129.644 236.478 130.26 235.358C130.894 234.238 131.753 233.361 132.836 232.726C133.937 232.073 135.169 231.746 136.532 231.746C137.913 231.746 139.136 232.063 140.2 232.698C141.282 233.314 142.132 234.191 142.748 235.33C143.364 236.45 143.672 237.747 143.672 239.222C143.672 239.315 143.662 239.418 143.644 239.53C143.644 239.623 143.644 239.726 143.644 239.838H130.848V238.354H142.58L141.796 238.942C141.796 237.878 141.562 236.935 141.096 236.114C140.648 235.274 140.032 234.621 139.248 234.154C138.464 233.687 137.558 233.454 136.532 233.454C135.524 233.454 134.618 233.687 133.816 234.154C133.013 234.621 132.388 235.274 131.94 236.114C131.492 236.954 131.268 237.915 131.268 238.998V239.306C131.268 240.426 131.51 241.415 131.996 242.274C132.5 243.114 133.19 243.777 134.068 244.262C134.964 244.729 135.981 244.962 137.12 244.962C138.016 244.962 138.846 244.803 139.612 244.486C140.396 244.169 141.068 243.683 141.628 243.03L142.748 244.318C142.094 245.102 141.273 245.699 140.284 246.11C139.313 246.521 138.24 246.726 137.064 246.726ZM150.216 246.586V233.09L150.72 233.622H144.644V231.886H157.776V233.622H151.7L152.204 233.09V246.586H150.216ZM160.65 246.586V231.886H167.146C168.808 231.886 170.114 232.203 171.066 232.838C172.037 233.473 172.522 234.406 172.522 235.638C172.522 236.833 172.065 237.757 171.15 238.41C170.236 239.045 169.032 239.362 167.538 239.362L167.93 238.774C169.685 238.774 170.973 239.101 171.794 239.754C172.616 240.407 173.026 241.35 173.026 242.582C173.026 243.851 172.56 244.841 171.626 245.55C170.712 246.241 169.284 246.586 167.342 246.586H160.65ZM162.582 245.018H167.258C168.509 245.018 169.452 244.822 170.086 244.43C170.74 244.019 171.066 243.366 171.066 242.47C171.066 241.574 170.777 240.921 170.198 240.51C169.62 240.099 168.705 239.894 167.454 239.894H162.582V245.018ZM162.582 238.41H167.006C168.145 238.41 169.013 238.195 169.61 237.766C170.226 237.337 170.534 236.711 170.534 235.89C170.534 235.069 170.226 234.453 169.61 234.042C169.013 233.631 168.145 233.426 167.006 233.426H162.582V238.41ZM183.985 246.726C182.455 246.726 181.111 246.409 179.953 245.774C178.796 245.121 177.891 244.234 177.237 243.114C176.584 241.975 176.257 240.678 176.257 239.222C176.257 237.766 176.565 236.478 177.181 235.358C177.816 234.238 178.675 233.361 179.757 232.726C180.859 232.073 182.091 231.746 183.453 231.746C184.835 231.746 186.057 232.063 187.121 232.698C188.204 233.314 189.053 234.191 189.669 235.33C190.285 236.45 190.593 237.747 190.593 239.222C190.593 239.315 190.584 239.418 190.565 239.53C190.565 239.623 190.565 239.726 190.565 239.838H177.769V238.354H189.501L188.717 238.942C188.717 237.878 188.484 236.935 188.017 236.114C187.569 235.274 186.953 234.621 186.169 234.154C185.385 233.687 184.48 233.454 183.453 233.454C182.445 233.454 181.54 233.687 180.737 234.154C179.935 234.621 179.309 235.274 178.861 236.114C178.413 236.954 178.189 237.915 178.189 238.998V239.306C178.189 240.426 178.432 241.415 178.917 242.274C179.421 243.114 180.112 243.777 180.989 244.262C181.885 244.729 182.903 244.962 184.041 244.962C184.937 244.962 185.768 244.803 186.533 244.486C187.317 244.169 187.989 243.683 188.549 243.03L189.669 244.318C189.016 245.102 188.195 245.699 187.205 246.11C186.235 246.521 185.161 246.726 183.985 246.726ZM202.582 246.726C201.313 246.726 200.165 246.437 199.138 245.858C198.111 245.261 197.29 244.411 196.674 243.31C196.077 242.19 195.778 240.827 195.778 239.222C195.778 237.617 196.077 236.263 196.674 235.162C197.271 234.042 198.083 233.193 199.11 232.614C200.137 232.035 201.294 231.746 202.582 231.746C203.982 231.746 205.233 232.063 206.334 232.698C207.454 233.314 208.331 234.191 208.966 235.33C209.601 236.45 209.918 237.747 209.918 239.222C209.918 240.715 209.601 242.022 208.966 243.142C208.331 244.262 207.454 245.139 206.334 245.774C205.233 246.409 203.982 246.726 202.582 246.726ZM194.994 252.018V231.886H196.898V236.31L196.702 239.25L196.982 242.218V252.018H194.994ZM202.442 244.962C203.487 244.962 204.421 244.729 205.242 244.262C206.063 243.777 206.717 243.105 207.202 242.246C207.687 241.369 207.93 240.361 207.93 239.222C207.93 238.083 207.687 237.085 207.202 236.226C206.717 235.367 206.063 234.695 205.242 234.21C204.421 233.725 203.487 233.482 202.442 233.482C201.397 233.482 200.454 233.725 199.614 234.21C198.793 234.695 198.139 235.367 197.654 236.226C197.187 237.085 196.954 238.083 196.954 239.222C196.954 240.361 197.187 241.369 197.654 242.246C198.139 243.105 198.793 243.777 199.614 244.262C200.454 244.729 201.397 244.962 202.442 244.962ZM216.442 246.586V233.09L216.946 233.622H210.87V231.886H224.002V233.622H217.926L218.43 233.09V246.586H216.442ZM233.205 237.066C235.053 237.085 236.453 237.495 237.405 238.298C238.375 239.101 238.861 240.258 238.861 241.77C238.861 243.338 238.338 244.542 237.293 245.382C236.266 246.222 234.773 246.633 232.813 246.614L226.877 246.586V231.886H228.865V237.01L233.205 237.066ZM232.701 245.102C234.063 245.121 235.09 244.85 235.781 244.29C236.49 243.711 236.845 242.871 236.845 241.77C236.845 240.669 236.499 239.866 235.809 239.362C235.118 238.839 234.082 238.569 232.701 238.55L228.865 238.494V245.046L232.701 245.102ZM156.08 291.018C155.053 289.319 154.251 287.359 153.672 285.138C153.112 282.898 152.832 280.49 152.832 277.914C152.832 275.338 153.112 272.93 153.672 270.69C154.251 268.431 155.053 266.471 156.08 264.81H157.984C156.883 266.733 156.071 268.777 155.548 270.942C155.044 273.089 154.792 275.413 154.792 277.914C154.792 280.415 155.044 282.749 155.548 284.914C156.071 287.061 156.883 289.095 157.984 291.018H156.08ZM160.815 278.866V277.13H168.151V278.866H160.815ZM172.794 273.798C172.384 273.798 172.029 273.649 171.73 273.35C171.45 273.051 171.31 272.687 171.31 272.258C171.31 271.81 171.45 271.446 171.73 271.166C172.029 270.886 172.384 270.746 172.794 270.746C173.205 270.746 173.55 270.886 173.83 271.166C174.129 271.446 174.278 271.81 174.278 272.258C174.278 272.687 174.129 273.051 173.83 273.35C173.55 273.649 173.205 273.798 172.794 273.798ZM171.394 289.674L172.626 284.494L172.85 285.698C172.421 285.698 172.057 285.558 171.758 285.278C171.478 284.998 171.338 284.634 171.338 284.186C171.338 283.738 171.478 283.374 171.758 283.094C172.057 282.814 172.412 282.674 172.822 282.674C173.252 282.674 173.597 282.823 173.858 283.122C174.138 283.421 174.278 283.775 174.278 284.186C174.278 284.335 174.269 284.485 174.25 284.634C174.232 284.783 174.194 284.951 174.138 285.138C174.082 285.325 174.008 285.549 173.914 285.81L172.738 289.674H171.394ZM182.928 281.722V269.85H184.692V281.722H182.928ZM177.72 276.626V274.974H189.9V276.626H177.72ZM194.889 291.018H192.985C194.105 289.095 194.917 287.061 195.421 284.914C195.944 282.749 196.205 280.415 196.205 277.914C196.205 275.413 195.944 273.089 195.421 270.942C194.917 268.777 194.105 266.733 192.985 264.81H194.889C195.953 266.471 196.765 268.431 197.325 270.69C197.885 272.93 198.165 275.338 198.165 277.914C198.165 280.49 197.885 282.898 197.325 285.138C196.765 287.359 195.953 289.319 194.889 291.018Z" fill="#F1F0F1"/>
<path d="M305.521 277.586L314.481 257.986H316.525L325.485 277.586H323.301L315.069 259.19H315.909L307.677 277.586H305.521ZM309.049 272.35L309.665 270.67H321.061L321.677 272.35H309.049Z" fill="#F1F0F1"/>
<path d="M321.406 498.546V497.244H326.908V498.546H321.406ZM328.737 503.586V502.515L334.848 496.53C335.408 495.984 335.828 495.508 336.108 495.102C336.388 494.682 336.577 494.29 336.675 493.926C336.773 493.562 336.822 493.219 336.822 492.897C336.822 492.043 336.528 491.371 335.94 490.881C335.366 490.391 334.512 490.146 333.378 490.146C332.51 490.146 331.74 490.279 331.068 490.545C330.41 490.811 329.843 491.224 329.367 491.784L328.296 490.86C328.87 490.188 329.605 489.67 330.501 489.306C331.397 488.942 332.398 488.76 333.504 488.76C334.498 488.76 335.359 488.921 336.087 489.243C336.815 489.551 337.375 490.006 337.767 490.608C338.173 491.21 338.376 491.917 338.376 492.729C338.376 493.205 338.306 493.674 338.166 494.136C338.04 494.598 337.802 495.088 337.452 495.606C337.116 496.11 336.619 496.684 335.961 497.328L330.354 502.83L329.934 502.242H339.048V503.586H328.737Z" fill="#F1F0F1"/>
<path d="M383.631 498.546V497.244H389.133V498.546H383.631ZM393.695 503.586V489.516L394.367 490.23H390.23V488.886H395.207V503.586H393.695Z" fill="#F1F0F1"/>
<path d="M509.86 503.586V489.516L510.532 490.23H506.395V488.886H511.372V503.586H509.86Z" fill="#F1F0F1"/>
<path d="M564.851 503.586V502.515L570.962 496.53C571.522 495.984 571.942 495.508 572.222 495.102C572.502 494.682 572.691 494.29 572.789 493.926C572.887 493.562 572.936 493.219 572.936 492.897C572.936 492.043 572.642 491.371 572.054 490.881C571.48 490.391 570.626 490.146 569.492 490.146C568.624 490.146 567.854 490.279 567.182 490.545C566.524 490.811 565.957 491.224 565.481 491.784L564.41 490.86C564.984 490.188 565.719 489.67 566.615 489.306C567.511 488.942 568.512 488.76 569.618 488.76C570.612 488.76 571.473 488.921 572.201 489.243C572.929 489.551 573.489 490.006 573.881 490.608C574.287 491.21 574.49 491.917 574.49 492.729C574.49 493.205 574.42 493.674 574.28 494.136C574.154 494.598 573.916 495.088 573.566 495.606C573.23 496.11 572.733 496.684 572.075 497.328L566.468 502.83L566.048 502.242H575.162V503.586H564.851Z" fill="#F1F0F1"/>
<path d="M629.554 503.712C628.49 503.712 627.482 503.544 626.53 503.208C625.592 502.858 624.836 502.396 624.262 501.822L624.997 500.625C625.473 501.115 626.11 501.521 626.908 501.843C627.72 502.165 628.602 502.326 629.554 502.326C630.772 502.326 631.703 502.06 632.347 501.528C633.005 500.996 633.334 500.282 633.334 499.386C633.334 498.49 633.012 497.776 632.368 497.244C631.738 496.712 630.737 496.446 629.365 496.446H628.315V495.333L632.851 489.642L633.061 490.23H624.871V488.886H634.321V489.957L629.785 495.648L629.05 495.165H629.617C631.381 495.165 632.697 495.557 633.565 496.341C634.447 497.125 634.888 498.133 634.888 499.365C634.888 500.191 634.692 500.933 634.3 501.591C633.908 502.249 633.313 502.767 632.515 503.145C631.731 503.523 630.744 503.712 629.554 503.712Z" fill="#F1F0F1"/>
<path d="M683.898 499.722V498.63L691.689 488.886H693.369L685.641 498.63L684.822 498.378H696.645V499.722H683.898ZM692.193 503.586V499.722L692.235 498.378V494.976H693.705V503.586H692.193Z" fill="#F1F0F1"/>
<path d="M749.786 503.712C748.736 503.712 747.735 503.544 746.783 503.208C745.831 502.858 745.075 502.396 744.515 501.822L745.25 500.625C745.712 501.115 746.342 501.521 747.14 501.843C747.952 502.165 748.827 502.326 749.765 502.326C751.011 502.326 751.956 502.053 752.6 501.507C753.258 500.947 753.587 500.219 753.587 499.323C753.587 498.693 753.433 498.154 753.125 497.706C752.831 497.244 752.327 496.887 751.613 496.635C750.899 496.383 749.919 496.257 748.673 496.257H745.544L746.3 488.886H754.343V490.23H746.909L747.686 489.495L747.035 495.669L746.258 494.913H749.009C750.493 494.913 751.683 495.095 752.579 495.459C753.475 495.823 754.119 496.334 754.511 496.992C754.917 497.636 755.12 498.392 755.12 499.26C755.12 500.086 754.924 500.842 754.532 501.528C754.14 502.2 753.552 502.732 752.768 503.124C751.984 503.516 750.99 503.712 749.786 503.712Z" fill="#F1F0F1"/>
<path d="M811.221 503.712C809.919 503.712 808.82 503.425 807.924 502.851C807.028 502.263 806.349 501.423 805.887 500.331C805.425 499.225 805.194 497.902 805.194 496.362C805.194 494.696 805.474 493.303 806.034 492.183C806.608 491.049 807.399 490.195 808.407 489.621C809.415 489.047 810.584 488.76 811.914 488.76C812.572 488.76 813.202 488.823 813.804 488.949C814.406 489.075 814.938 489.278 815.4 489.558L814.791 490.776C814.413 490.524 813.979 490.349 813.489 490.251C812.999 490.139 812.481 490.083 811.935 490.083C810.353 490.083 809.086 490.587 808.134 491.595C807.196 492.603 806.727 494.108 806.727 496.11C806.727 496.418 806.741 496.803 806.769 497.265C806.811 497.713 806.895 498.161 807.021 498.609L806.496 498.21C806.65 497.482 806.951 496.866 807.399 496.362C807.847 495.844 808.407 495.452 809.079 495.186C809.751 494.92 810.486 494.787 811.284 494.787C812.264 494.787 813.125 494.969 813.867 495.333C814.609 495.697 815.19 496.208 815.61 496.866C816.03 497.524 816.24 498.301 816.24 499.197C816.24 500.107 816.023 500.905 815.589 501.591C815.155 502.263 814.553 502.788 813.783 503.166C813.027 503.53 812.173 503.712 811.221 503.712ZM811.158 502.431C811.858 502.431 812.474 502.305 813.006 502.053C813.552 501.787 813.979 501.416 814.287 500.94C814.595 500.45 814.749 499.883 814.749 499.239C814.749 498.273 814.413 497.503 813.741 496.929C813.083 496.355 812.187 496.068 811.053 496.068C810.297 496.068 809.639 496.208 809.079 496.488C808.519 496.768 808.078 497.153 807.756 497.643C807.434 498.119 807.273 498.665 807.273 499.281C807.273 499.813 807.42 500.324 807.714 500.814C808.008 501.29 808.442 501.682 809.016 501.99C809.604 502.284 810.318 502.431 811.158 502.431Z" fill="#F1F0F1"/>
<path d="M866.992 503.586L873.334 489.558L873.796 490.23H864.703L865.48 489.495V492.981H863.989V488.886H874.783V489.957L868.63 503.586H866.992Z" fill="#F1F0F1"/>
<path d="M711.801 697.586V677.986H713.873V697.586H711.801ZM725.604 697.586L716.924 677.986H719.164L727.284 696.438H726.052L734.228 677.986H736.328L727.648 697.586H725.604ZM670.298 730.37C669.439 730.743 668.571 731.042 667.694 731.266C666.835 731.471 665.976 731.574 665.118 731.574C663.382 731.574 662.01 731.182 661.002 730.398C659.994 729.595 659.49 728.363 659.49 726.702V721.886H661.45V726.59C661.45 727.71 661.814 728.55 662.542 729.11C663.27 729.67 664.25 729.95 665.482 729.95C666.228 729.95 667.012 729.857 667.834 729.67C668.655 729.465 669.486 729.175 670.326 728.802L670.298 730.37ZM670.13 736.586V721.886H672.118V736.586H670.13ZM684.064 736.726C682.533 736.726 681.189 736.409 680.032 735.774C678.874 735.121 677.969 734.234 677.316 733.114C676.662 731.975 676.336 730.678 676.336 729.222C676.336 727.766 676.644 726.478 677.26 725.358C677.894 724.238 678.753 723.361 679.836 722.726C680.937 722.073 682.169 721.746 683.532 721.746C684.913 721.746 686.136 722.063 687.2 722.698C688.282 723.314 689.132 724.191 689.748 725.33C690.364 726.45 690.672 727.747 690.672 729.222C690.672 729.315 690.662 729.418 690.644 729.53C690.644 729.623 690.644 729.726 690.644 729.838H677.848V728.354H689.58L688.796 728.942C688.796 727.878 688.562 726.935 688.096 726.114C687.648 725.274 687.032 724.621 686.248 724.154C685.464 723.687 684.558 723.454 683.532 723.454C682.524 723.454 681.618 723.687 680.816 724.154C680.013 724.621 679.388 725.274 678.94 726.114C678.492 726.954 678.268 727.915 678.268 728.998V729.306C678.268 730.426 678.51 731.415 678.996 732.274C679.5 733.114 680.19 733.777 681.068 734.262C681.964 734.729 682.981 734.962 684.12 734.962C685.016 734.962 685.846 734.803 686.612 734.486C687.396 734.169 688.068 733.683 688.628 733.03L689.748 734.318C689.094 735.102 688.273 735.699 687.284 736.11C686.313 736.521 685.24 736.726 684.064 736.726ZM697.216 736.586V723.09L697.72 723.622H691.644V721.886H704.776V723.622H698.7L699.204 723.09V736.586H697.216ZM707.65 736.586V721.886H714.146C715.808 721.886 717.114 722.203 718.066 722.838C719.037 723.473 719.522 724.406 719.522 725.638C719.522 726.833 719.065 727.757 718.15 728.41C717.236 729.045 716.032 729.362 714.538 729.362L714.93 728.774C716.685 728.774 717.973 729.101 718.794 729.754C719.616 730.407 720.026 731.35 720.026 732.582C720.026 733.851 719.56 734.841 718.626 735.55C717.712 736.241 716.284 736.586 714.342 736.586H707.65ZM709.582 735.018H714.258C715.509 735.018 716.452 734.822 717.086 734.43C717.74 734.019 718.066 733.366 718.066 732.47C718.066 731.574 717.777 730.921 717.198 730.51C716.62 730.099 715.705 729.894 714.454 729.894H709.582V735.018ZM709.582 728.41H714.006C715.145 728.41 716.013 728.195 716.61 727.766C717.226 727.337 717.534 726.711 717.534 725.89C717.534 725.069 717.226 724.453 716.61 724.042C716.013 723.631 715.145 723.426 714.006 723.426H709.582V728.41ZM730.985 736.726C729.455 736.726 728.111 736.409 726.953 735.774C725.796 735.121 724.891 734.234 724.237 733.114C723.584 731.975 723.257 730.678 723.257 729.222C723.257 727.766 723.565 726.478 724.181 725.358C724.816 724.238 725.675 723.361 726.757 722.726C727.859 722.073 729.091 721.746 730.453 721.746C731.835 721.746 733.057 722.063 734.121 722.698C735.204 723.314 736.053 724.191 736.669 725.33C737.285 726.45 737.593 727.747 737.593 729.222C737.593 729.315 737.584 729.418 737.565 729.53C737.565 729.623 737.565 729.726 737.565 729.838H724.769V728.354H736.501L735.717 728.942C735.717 727.878 735.484 726.935 735.017 726.114C734.569 725.274 733.953 724.621 733.169 724.154C732.385 723.687 731.48 723.454 730.453 723.454C729.445 723.454 728.54 723.687 727.737 724.154C726.935 724.621 726.309 725.274 725.861 726.114C725.413 726.954 725.189 727.915 725.189 728.998V729.306C725.189 730.426 725.432 731.415 725.917 732.274C726.421 733.114 727.112 733.777 727.989 734.262C728.885 734.729 729.903 734.962 731.041 734.962C731.937 734.962 732.768 734.803 733.533 734.486C734.317 734.169 734.989 733.683 735.549 733.03L736.669 734.318C736.016 735.102 735.195 735.699 734.205 736.11C733.235 736.521 732.161 736.726 730.985 736.726ZM749.582 736.726C748.313 736.726 747.165 736.437 746.138 735.858C745.111 735.261 744.29 734.411 743.674 733.31C743.077 732.19 742.778 730.827 742.778 729.222C742.778 727.617 743.077 726.263 743.674 725.162C744.271 724.042 745.083 723.193 746.11 722.614C747.137 722.035 748.294 721.746 749.582 721.746C750.982 721.746 752.233 722.063 753.334 722.698C754.454 723.314 755.331 724.191 755.966 725.33C756.601 726.45 756.918 727.747 756.918 729.222C756.918 730.715 756.601 732.022 755.966 733.142C755.331 734.262 754.454 735.139 753.334 735.774C752.233 736.409 750.982 736.726 749.582 736.726ZM741.994 742.018V721.886H743.898V726.31L743.702 729.25L743.982 732.218V742.018H741.994ZM749.442 734.962C750.487 734.962 751.421 734.729 752.242 734.262C753.063 733.777 753.717 733.105 754.202 732.246C754.687 731.369 754.93 730.361 754.93 729.222C754.93 728.083 754.687 727.085 754.202 726.226C753.717 725.367 753.063 724.695 752.242 724.21C751.421 723.725 750.487 723.482 749.442 723.482C748.397 723.482 747.454 723.725 746.614 724.21C745.793 724.695 745.139 725.367 744.654 726.226C744.187 727.085 743.954 728.083 743.954 729.222C743.954 730.361 744.187 731.369 744.654 732.246C745.139 733.105 745.793 733.777 746.614 734.262C747.454 734.729 748.397 734.962 749.442 734.962ZM763.442 736.586V723.09L763.946 723.622H757.87V721.886H771.002V723.622H764.926L765.43 723.09V736.586H763.442ZM780.205 727.066C782.053 727.085 783.453 727.495 784.405 728.298C785.375 729.101 785.861 730.258 785.861 731.77C785.861 733.338 785.338 734.542 784.293 735.382C783.266 736.222 781.773 736.633 779.813 736.614L773.877 736.586V721.886H775.865V727.01L780.205 727.066ZM779.701 735.102C781.063 735.121 782.09 734.85 782.781 734.29C783.49 733.711 783.845 732.871 783.845 731.77C783.845 730.669 783.499 729.866 782.809 729.362C782.118 728.839 781.082 728.569 779.701 728.55L775.865 728.494V735.046L779.701 735.102ZM703.08 781.018C702.053 779.319 701.251 777.359 700.672 775.138C700.112 772.898 699.832 770.49 699.832 767.914C699.832 765.338 700.112 762.93 700.672 760.69C701.251 758.431 702.053 756.471 703.08 754.81H704.984C703.883 756.733 703.071 758.777 702.548 760.942C702.044 763.089 701.792 765.413 701.792 767.914C701.792 770.415 702.044 772.749 702.548 774.914C703.071 777.061 703.883 779.095 704.984 781.018H703.08ZM713.303 771.722V759.85H715.067V771.722H713.303ZM708.095 766.626V764.974H720.275V766.626H708.095ZM725.208 763.798C724.798 763.798 724.443 763.649 724.144 763.35C723.864 763.051 723.724 762.687 723.724 762.258C723.724 761.81 723.864 761.446 724.144 761.166C724.443 760.886 724.798 760.746 725.208 760.746C725.619 760.746 725.964 760.886 726.244 761.166C726.543 761.446 726.692 761.81 726.692 762.258C726.692 762.687 726.543 763.051 726.244 763.35C725.964 763.649 725.619 763.798 725.208 763.798ZM723.808 779.674L725.04 774.494L725.264 775.698C724.835 775.698 724.471 775.558 724.172 775.278C723.892 774.998 723.752 774.634 723.752 774.186C723.752 773.738 723.892 773.374 724.172 773.094C724.471 772.814 724.826 772.674 725.236 772.674C725.666 772.674 726.011 772.823 726.272 773.122C726.552 773.421 726.692 773.775 726.692 774.186C726.692 774.335 726.683 774.485 726.664 774.634C726.646 774.783 726.608 774.951 726.552 775.138C726.496 775.325 726.422 775.549 726.328 775.81L725.152 779.674H723.808ZM729.854 768.866V767.13H737.19V768.866H729.854ZM741.889 781.018H739.985C741.105 779.095 741.917 777.061 742.421 774.914C742.944 772.749 743.205 770.415 743.205 767.914C743.205 765.413 742.944 763.089 742.421 760.942C741.917 758.777 741.105 756.733 739.985 754.81H741.889C742.953 756.471 743.765 758.431 744.325 760.69C744.885 762.93 745.165 765.338 745.165 767.914C745.165 770.49 744.885 772.898 744.325 775.138C743.765 777.359 742.953 779.319 741.889 781.018Z" fill="#F1F0F1"/>
<path d="M721.467 199.586V179.986H723.539V199.586H721.467ZM670.298 232.37C669.439 232.743 668.571 233.042 667.694 233.266C666.835 233.471 665.976 233.574 665.118 233.574C663.382 233.574 662.01 233.182 661.002 232.398C659.994 231.595 659.49 230.363 659.49 228.702V223.886H661.45V228.59C661.45 229.71 661.814 230.55 662.542 231.11C663.27 231.67 664.25 231.95 665.482 231.95C666.228 231.95 667.012 231.857 667.834 231.67C668.655 231.465 669.486 231.175 670.326 230.802L670.298 232.37ZM670.13 238.586V223.886H672.118V238.586H670.13ZM684.064 238.726C682.533 238.726 681.189 238.409 680.032 237.774C678.874 237.121 677.969 236.234 677.316 235.114C676.662 233.975 676.336 232.678 676.336 231.222C676.336 229.766 676.644 228.478 677.26 227.358C677.894 226.238 678.753 225.361 679.836 224.726C680.937 224.073 682.169 223.746 683.532 223.746C684.913 223.746 686.136 224.063 687.2 224.698C688.282 225.314 689.132 226.191 689.748 227.33C690.364 228.45 690.672 229.747 690.672 231.222C690.672 231.315 690.662 231.418 690.644 231.53C690.644 231.623 690.644 231.726 690.644 231.838H677.848V230.354H689.58L688.796 230.942C688.796 229.878 688.562 228.935 688.096 228.114C687.648 227.274 687.032 226.621 686.248 226.154C685.464 225.687 684.558 225.454 683.532 225.454C682.524 225.454 681.618 225.687 680.816 226.154C680.013 226.621 679.388 227.274 678.94 228.114C678.492 228.954 678.268 229.915 678.268 230.998V231.306C678.268 232.426 678.51 233.415 678.996 234.274C679.5 235.114 680.19 235.777 681.068 236.262C681.964 236.729 682.981 236.962 684.12 236.962C685.016 236.962 685.846 236.803 686.612 236.486C687.396 236.169 688.068 235.683 688.628 235.03L689.748 236.318C689.094 237.102 688.273 237.699 687.284 238.11C686.313 238.521 685.24 238.726 684.064 238.726ZM697.216 238.586V225.09L697.72 225.622H691.644V223.886H704.776V225.622H698.7L699.204 225.09V238.586H697.216ZM707.65 238.586V223.886H714.146C715.808 223.886 717.114 224.203 718.066 224.838C719.037 225.473 719.522 226.406 719.522 227.638C719.522 228.833 719.065 229.757 718.15 230.41C717.236 231.045 716.032 231.362 714.538 231.362L714.93 230.774C716.685 230.774 717.973 231.101 718.794 231.754C719.616 232.407 720.026 233.35 720.026 234.582C720.026 235.851 719.56 236.841 718.626 237.55C717.712 238.241 716.284 238.586 714.342 238.586H707.65ZM709.582 237.018H714.258C715.509 237.018 716.452 236.822 717.086 236.43C717.74 236.019 718.066 235.366 718.066 234.47C718.066 233.574 717.777 232.921 717.198 232.51C716.62 232.099 715.705 231.894 714.454 231.894H709.582V237.018ZM709.582 230.41H714.006C715.145 230.41 716.013 230.195 716.61 229.766C717.226 229.337 717.534 228.711 717.534 227.89C717.534 227.069 717.226 226.453 716.61 226.042C716.013 225.631 715.145 225.426 714.006 225.426H709.582V230.41ZM730.985 238.726C729.455 238.726 728.111 238.409 726.953 237.774C725.796 237.121 724.891 236.234 724.237 235.114C723.584 233.975 723.257 232.678 723.257 231.222C723.257 229.766 723.565 228.478 724.181 227.358C724.816 226.238 725.675 225.361 726.757 224.726C727.859 224.073 729.091 223.746 730.453 223.746C731.835 223.746 733.057 224.063 734.121 224.698C735.204 225.314 736.053 226.191 736.669 227.33C737.285 228.45 737.593 229.747 737.593 231.222C737.593 231.315 737.584 231.418 737.565 231.53C737.565 231.623 737.565 231.726 737.565 231.838H724.769V230.354H736.501L735.717 230.942C735.717 229.878 735.484 228.935 735.017 228.114C734.569 227.274 733.953 226.621 733.169 226.154C732.385 225.687 731.48 225.454 730.453 225.454C729.445 225.454 728.54 225.687 727.737 226.154C726.935 226.621 726.309 227.274 725.861 228.114C725.413 228.954 725.189 229.915 725.189 230.998V231.306C725.189 232.426 725.432 233.415 725.917 234.274C726.421 235.114 727.112 235.777 727.989 236.262C728.885 236.729 729.903 236.962 731.041 236.962C731.937 236.962 732.768 236.803 733.533 236.486C734.317 236.169 734.989 235.683 735.549 235.03L736.669 236.318C736.016 237.102 735.195 237.699 734.205 238.11C733.235 238.521 732.161 238.726 730.985 238.726ZM749.582 238.726C748.313 238.726 747.165 238.437 746.138 237.858C745.111 237.261 744.29 236.411 743.674 235.31C743.077 234.19 742.778 232.827 742.778 231.222C742.778 229.617 743.077 228.263 743.674 227.162C744.271 226.042 745.083 225.193 746.11 224.614C747.137 224.035 748.294 223.746 749.582 223.746C750.982 223.746 752.233 224.063 753.334 224.698C754.454 225.314 755.331 226.191 755.966 227.33C756.601 228.45 756.918 229.747 756.918 231.222C756.918 232.715 756.601 234.022 755.966 235.142C755.331 236.262 754.454 237.139 753.334 237.774C752.233 238.409 750.982 238.726 749.582 238.726ZM741.994 244.018V223.886H743.898V228.31L743.702 231.25L743.982 234.218V244.018H741.994ZM749.442 236.962C750.487 236.962 751.421 236.729 752.242 236.262C753.063 235.777 753.717 235.105 754.202 234.246C754.687 233.369 754.93 232.361 754.93 231.222C754.93 230.083 754.687 229.085 754.202 228.226C753.717 227.367 753.063 226.695 752.242 226.21C751.421 225.725 750.487 225.482 749.442 225.482C748.397 225.482 747.454 225.725 746.614 226.21C745.793 226.695 745.139 227.367 744.654 228.226C744.187 229.085 743.954 230.083 743.954 231.222C743.954 232.361 744.187 233.369 744.654 234.246C745.139 235.105 745.793 235.777 746.614 236.262C747.454 236.729 748.397 236.962 749.442 236.962ZM763.442 238.586V225.09L763.946 225.622H757.87V223.886H771.002V225.622H764.926L765.43 225.09V238.586H763.442ZM780.205 229.066C782.053 229.085 783.453 229.495 784.405 230.298C785.375 231.101 785.861 232.258 785.861 233.77C785.861 235.338 785.338 236.542 784.293 237.382C783.266 238.222 781.773 238.633 779.813 238.614L773.877 238.586V223.886H775.865V229.01L780.205 229.066ZM779.701 237.102C781.063 237.121 782.09 236.85 782.781 236.29C783.49 235.711 783.845 234.871 783.845 233.77C783.845 232.669 783.499 231.866 782.809 231.362C782.118 230.839 781.082 230.569 779.701 230.55L775.865 230.494V237.046L779.701 237.102ZM700.373 283.018C699.346 281.319 698.544 279.359 697.965 277.138C697.405 274.898 697.125 272.49 697.125 269.914C697.125 267.338 697.405 264.93 697.965 262.69C698.544 260.431 699.346 258.471 700.373 256.81H702.277C701.176 258.733 700.364 260.777 699.841 262.942C699.337 265.089 699.085 267.413 699.085 269.914C699.085 272.415 699.337 274.749 699.841 276.914C700.364 279.061 701.176 281.095 702.277 283.018H700.373ZM710.596 273.722V261.85H712.36V273.722H710.596ZM705.388 268.626V266.974H717.568V268.626H705.388ZM722.501 265.798C722.091 265.798 721.736 265.649 721.437 265.35C721.157 265.051 721.017 264.687 721.017 264.258C721.017 263.81 721.157 263.446 721.437 263.166C721.736 262.886 722.091 262.746 722.501 262.746C722.912 262.746 723.257 262.886 723.537 263.166C723.836 263.446 723.985 263.81 723.985 264.258C723.985 264.687 723.836 265.051 723.537 265.35C723.257 265.649 722.912 265.798 722.501 265.798ZM721.101 281.674L722.333 276.494L722.557 277.698C722.128 277.698 721.764 277.558 721.465 277.278C721.185 276.998 721.045 276.634 721.045 276.186C721.045 275.738 721.185 275.374 721.465 275.094C721.764 274.814 722.119 274.674 722.529 274.674C722.959 274.674 723.304 274.823 723.565 275.122C723.845 275.421 723.985 275.775 723.985 276.186C723.985 276.335 723.976 276.485 723.957 276.634C723.939 276.783 723.901 276.951 723.845 277.138C723.789 277.325 723.715 277.549 723.621 277.81L722.445 281.674H721.101ZM732.635 273.722V261.85H734.399V273.722H732.635ZM727.427 268.626V266.974H739.607V268.626H727.427ZM744.596 283.018H742.692C743.812 281.095 744.624 279.061 745.128 276.914C745.651 274.749 745.912 272.415 745.912 269.914C745.912 267.413 745.651 265.089 745.128 262.942C744.624 260.777 743.812 258.733 742.692 256.81H744.596C745.66 258.471 746.472 260.431 747.032 262.69C747.592 264.93 747.872 267.338 747.872 269.914C747.872 272.49 747.592 274.898 747.032 277.138C746.472 279.359 745.66 281.319 744.596 283.018Z" fill="#F1F0F1"/>
<circle cx="331.5" cy="272.086" r="2.5" fill="#F1F0F1"/>
<path d="M331.707 273.879C331.317 273.488 330.683 273.488 330.293 273.879L323.929 280.243C323.538 280.633 323.538 281.266 323.929 281.657C324.319 282.048 324.953 282.048 325.343 281.657L331 276L336.657 281.657C337.047 282.048 337.681 282.048 338.071 281.657C338.462 281.266 338.462 280.633 338.071 280.243L331.707 273.879ZM332 451.586L332 274.586L330 274.586L330 451.586L332 451.586Z" fill="#F1F0F1"/>
<path d="M333.293 269.879C332.902 270.269 332.902 270.903 333.293 271.293L339.657 277.657C340.047 278.048 340.681 278.048 341.071 277.657C341.462 277.266 341.462 276.633 341.071 276.243L335.414 270.586L341.071 264.929C341.462 264.539 341.462 263.905 341.071 263.515C340.681 263.124 340.047 263.124 339.657 263.515L333.293 269.879ZM450 269.586H334V271.586H450V269.586Z" fill="#F1F0F1"/>
</svg>
