<svg width="202" height="64" viewBox="0 0 202 64" fill="none" xmlns="http://www.w3.org/2000/svg">
<path d="M9.40095 24L14.063 17.952L14.042 18.687L9.61095 12.975H11.291L14.924 17.7L14.294 17.679L17.927 12.975H19.565L15.092 18.75L15.113 17.952L19.817 24H18.116L14.273 18.96L14.861 19.044L11.081 24H9.40095ZM42.0286 18.96V17.658H47.5306V18.96H42.0286ZM49.36 24V22.929L55.471 16.944C56.031 16.398 56.451 15.922 56.731 15.516C57.011 15.096 57.2 14.704 57.298 14.34C57.396 13.976 57.445 13.633 57.445 13.311C57.445 12.457 57.151 11.785 56.563 11.295C55.989 10.805 55.135 10.56 54.001 10.56C53.133 10.56 52.363 10.693 51.691 10.959C51.033 11.225 50.466 11.638 49.99 12.198L48.919 11.274C49.493 10.602 50.228 10.084 51.124 9.72C52.02 9.356 53.021 9.174 54.127 9.174C55.121 9.174 55.982 9.335 56.71 9.657C57.438 9.965 57.998 10.42 58.39 11.022C58.796 11.624 58.999 12.331 58.999 13.143C58.999 13.619 58.929 14.088 58.789 14.55C58.663 15.012 58.425 15.502 58.075 16.02C57.739 16.524 57.242 17.098 56.584 17.742L50.977 23.244L50.557 22.656H59.671V24H49.36ZM82.5725 18.96V17.658H88.0745V18.96H82.5725ZM92.6364 24V9.93L93.3084 10.644H89.1714V9.3H94.1484V24H92.6364ZM124.521 24.126C123.387 24.126 122.379 23.832 121.497 23.244C120.615 22.642 119.922 21.788 119.418 20.682C118.914 19.562 118.662 18.218 118.662 16.65C118.662 15.082 118.914 13.745 119.418 12.639C119.922 11.519 120.615 10.665 121.497 10.077C122.379 9.475 123.387 9.174 124.521 9.174C125.655 9.174 126.663 9.475 127.545 10.077C128.427 10.665 129.12 11.519 129.624 12.639C130.142 13.745 130.401 15.082 130.401 16.65C130.401 18.218 130.142 19.562 129.624 20.682C129.12 21.788 128.427 22.642 127.545 23.244C126.663 23.832 125.655 24.126 124.521 24.126ZM124.521 22.74C125.389 22.74 126.145 22.509 126.789 22.047C127.433 21.571 127.937 20.885 128.301 19.989C128.665 19.079 128.847 17.966 128.847 16.65C128.847 15.334 128.665 14.228 128.301 13.332C127.937 12.422 127.433 11.736 126.789 11.274C126.145 10.798 125.389 10.56 124.521 10.56C123.681 10.56 122.932 10.798 122.274 11.274C121.616 11.736 121.105 12.422 120.741 13.332C120.377 14.228 120.195 15.334 120.195 16.65C120.195 17.966 120.377 19.079 120.741 19.989C121.105 20.885 121.616 21.571 122.274 22.047C122.932 22.509 123.681 22.74 124.521 22.74ZM156.129 24V9.93L156.801 10.644H152.664V9.3H157.641V24H156.129ZM181.882 24V22.929L187.993 16.944C188.553 16.398 188.973 15.922 189.253 15.516C189.533 15.096 189.722 14.704 189.82 14.34C189.918 13.976 189.967 13.633 189.967 13.311C189.967 12.457 189.673 11.785 189.085 11.295C188.511 10.805 187.657 10.56 186.523 10.56C185.655 10.56 184.885 10.693 184.213 10.959C183.555 11.225 182.988 11.638 182.512 12.198L181.441 11.274C182.015 10.602 182.75 10.084 183.646 9.72C184.542 9.356 185.543 9.174 186.649 9.174C187.643 9.174 188.504 9.335 189.232 9.657C189.96 9.965 190.52 10.42 190.912 11.022C191.318 11.624 191.521 12.331 191.521 13.143C191.521 13.619 191.451 14.088 191.311 14.55C191.185 15.012 190.947 15.502 190.597 16.02C190.261 16.524 189.764 17.098 189.106 17.742L183.499 23.244L183.079 22.656H192.193V24H181.882ZM12.1698 60.179C11.6518 60.179 11.1548 60.095 10.6788 59.927C10.2168 59.759 9.81784 59.507 9.48184 59.171L10.1748 58.058C10.4548 58.324 10.7558 58.527 11.0778 58.667C11.4138 58.821 11.7848 58.898 12.1908 58.898C12.6808 58.898 13.1008 58.758 13.4508 58.478C13.8148 58.212 14.1578 57.736 14.4798 57.05L15.1938 55.433L15.3618 55.202L19.8978 44.975H21.3678L15.8448 57.323C15.5368 58.037 15.1938 58.604 14.8158 59.024C14.4518 59.444 14.0528 59.738 13.6188 59.906C13.1848 60.088 12.7018 60.179 12.1698 60.179ZM15.1098 56.315L10.0278 44.975H11.5818L16.0758 55.097L15.1098 56.315ZM43.4026 50.96V49.658H48.9046V50.96H43.4026ZM55.232 56.126C54.168 56.126 53.16 55.958 52.208 55.622C51.27 55.272 50.514 54.81 49.94 54.236L50.675 53.039C51.151 53.529 51.788 53.935 52.586 54.257C53.398 54.579 54.28 54.74 55.232 54.74C56.45 54.74 57.381 54.474 58.025 53.942C58.683 53.41 59.012 52.696 59.012 51.8C59.012 50.904 58.69 50.19 58.046 49.658C57.416 49.126 56.415 48.86 55.043 48.86H53.993V47.747L58.529 42.056L58.739 42.644H50.549V41.3H59.999V42.371L55.463 48.062L54.728 47.579H55.295C57.059 47.579 58.375 47.971 59.243 48.755C60.125 49.539 60.566 50.547 60.566 51.779C60.566 52.605 60.37 53.347 59.978 54.005C59.586 54.663 58.991 55.181 58.193 55.559C57.409 55.937 56.422 56.126 55.232 56.126ZM83.8645 50.96V49.658H89.3665V50.96H83.8645ZM93.9284 56V41.93L94.6004 42.644H90.4634V41.3H95.4404V56H93.9284ZM122.516 56V41.93L123.188 42.644H119.051V41.3H124.028V56H122.516ZM152.931 56.126C151.867 56.126 150.859 55.958 149.907 55.622C148.969 55.272 148.213 54.81 147.639 54.236L148.374 53.039C148.85 53.529 149.487 53.935 150.285 54.257C151.097 54.579 151.979 54.74 152.931 54.74C154.149 54.74 155.08 54.474 155.724 53.942C156.382 53.41 156.711 52.696 156.711 51.8C156.711 50.904 156.389 50.19 155.745 49.658C155.115 49.126 154.114 48.86 152.742 48.86H151.692V47.747L156.228 42.056L156.438 42.644H148.248V41.3H157.698V42.371L153.162 48.062L152.427 47.579H152.994C154.758 47.579 156.074 47.971 156.942 48.755C157.824 49.539 158.265 50.547 158.265 51.779C158.265 52.605 158.069 53.347 157.677 54.005C157.285 54.663 156.69 55.181 155.892 55.559C155.108 55.937 154.121 56.126 152.931 56.126ZM185.832 56.126C184.782 56.126 183.781 55.958 182.829 55.622C181.877 55.272 181.121 54.81 180.561 54.236L181.296 53.039C181.758 53.529 182.388 53.935 183.186 54.257C183.998 54.579 184.873 54.74 185.811 54.74C187.057 54.74 188.002 54.467 188.646 53.921C189.304 53.361 189.633 52.633 189.633 51.737C189.633 51.107 189.479 50.568 189.171 50.12C188.877 49.658 188.373 49.301 187.659 49.049C186.945 48.797 185.965 48.671 184.719 48.671H181.59L182.346 41.3H190.389V42.644H182.955L183.732 41.909L183.081 48.083L182.304 47.327H185.055C186.539 47.327 187.729 47.509 188.625 47.873C189.521 48.237 190.165 48.748 190.557 49.406C190.963 50.05 191.166 50.806 191.166 51.674C191.166 52.5 190.97 53.256 190.578 53.942C190.186 54.614 189.598 55.146 188.814 55.538C188.03 55.93 187.036 56.126 185.832 56.126Z" fill="#F1F0F1"/>
<line y1="1.5" x2="202" y2="1.5" stroke="#F1F0F1"/>
<line y1="31.5" x2="202" y2="31.5" stroke="#F1F0F1"/>
<line y1="61.5" x2="202" y2="61.5" stroke="#F1F0F1"/>
<line x1="0.5" y1="2" x2="0.5" y2="62" stroke="#F1F0F1"/>
<line x1="33.5" y1="2" x2="33.5" y2="62" stroke="#F1F0F1"/>
<line x1="70.5" y1="2" x2="70.5" y2="62" stroke="#F1F0F1"/>
<line x1="107.5" y1="2" x2="107.5" y2="62" stroke="#F1F0F1"/>
<line x1="140.5" y1="2" x2="140.5" y2="62" stroke="#F1F0F1"/>
<line x1="168.5" y1="2" x2="168.5" y2="62" stroke="#F1F0F1"/>
<line x1="201.5" y1="2" x2="201.5" y2="62" stroke="#F1F0F1"/>
</svg>
