<svg width="902" height="125" viewBox="0 0 902 125" fill="none" xmlns="http://www.w3.org/2000/svg">
<path d="M901.061 63.6481C901.646 63.0623 901.646 62.1125 901.061 61.5267L891.515 51.9808C890.929 51.395 889.979 51.395 889.393 51.9808C888.808 52.5666 888.808 53.5163 889.393 54.1021L897.879 62.5874L889.393 71.0727C888.808 71.6585 888.808 72.6082 889.393 73.194C889.979 73.7798 890.929 73.7798 891.515 73.194L901.061 63.6481ZM0 64.0874H900V61.0874H0L0 64.0874Z" fill="#F1F0F1"/>
<line x1="451" y1="42.5874" x2="451" y2="82.5874" stroke="#F1F0F1" stroke-width="2"/>
<line x1="511" y1="42.5874" x2="511" y2="82.5874" stroke="#F1F0F1" stroke-width="2"/>
<line x1="271" y1="42.5874" x2="271" y2="82.5874" stroke="#F1F0F1" stroke-width="2"/>
<line x1="211" y1="42.5874" x2="211" y2="82.5874" stroke="#F1F0F1" stroke-width="2"/>
<line x1="571" y1="42.5874" x2="571" y2="82.5874" stroke="#F1F0F1" stroke-width="2"/>
<line x1="331" y1="42.5874" x2="331" y2="82.5874" stroke="#F1F0F1" stroke-width="2"/>
<line x1="631" y1="42.5874" x2="631" y2="82.5874" stroke="#F1F0F1" stroke-width="2"/>
<line x1="691" y1="42.5874" x2="691" y2="82.5874" stroke="#F1F0F1" stroke-width="2"/>
<line x1="391" y1="42.5874" x2="391" y2="82.5874" stroke="#F1F0F1" stroke-width="2"/>
<path d="M261.529 19.5474V18.2454H267.031V19.5474H261.529ZM273.358 24.7134C272.294 24.7134 271.286 24.5454 270.334 24.2094C269.396 23.8594 268.64 23.3974 268.066 22.8234L268.801 21.6264C269.277 22.1164 269.914 22.5224 270.712 22.8444C271.524 23.1664 272.406 23.3274 273.358 23.3274C274.576 23.3274 275.507 23.0614 276.151 22.5294C276.809 21.9974 277.138 21.2834 277.138 20.3874C277.138 19.4914 276.816 18.7774 276.172 18.2454C275.542 17.7134 274.541 17.4474 273.169 17.4474H272.119V16.3344L276.655 10.6434L276.865 11.2314H268.675V9.8874H278.125V10.9584L273.589 16.6494L272.854 16.1664H273.421C275.185 16.1664 276.501 16.5584 277.369 17.3424C278.251 18.1264 278.692 19.1344 278.692 20.3664C278.692 21.1924 278.496 21.9344 278.104 22.5924C277.712 23.2504 277.117 23.7684 276.319 24.1464C275.535 24.5244 274.548 24.7134 273.358 24.7134Z" fill="#F1F0F1"/>
<path d="M47.7507 19.5474V18.2454H53.2527V19.5474H47.7507Z" fill="#F1F0F1"/>
<path d="M47.0418 108.692C45.9778 108.692 45.0188 108.454 44.1648 107.978C43.3248 107.488 42.6598 106.823 42.1698 105.983C41.6798 105.129 41.4348 104.156 41.4348 103.064C41.4348 101.958 41.6798 100.985 42.1698 100.145C42.6598 99.3054 43.3248 98.6474 44.1648 98.1714C45.0048 97.6954 45.9638 97.4574 47.0418 97.4574C48.1338 97.4574 49.0998 97.6954 49.9398 98.1714C50.7938 98.6474 51.4588 99.3054 51.9348 100.145C52.4248 100.985 52.6698 101.958 52.6698 103.064C52.6698 104.156 52.4248 105.129 51.9348 105.983C51.4588 106.823 50.7938 107.488 49.9398 107.978C49.0858 108.454 48.1198 108.692 47.0418 108.692ZM47.0418 107.369C47.8398 107.369 48.5468 107.194 49.1628 106.844C49.7788 106.48 50.2618 105.976 50.6118 105.332C50.9758 104.674 51.1578 103.918 51.1578 103.064C51.1578 102.196 50.9758 101.44 50.6118 100.796C50.2618 100.152 49.7788 99.6554 49.1628 99.3054C48.5468 98.9414 47.8468 98.7594 47.0628 98.7594C46.2788 98.7594 45.5788 98.9414 44.9628 99.3054C44.3468 99.6554 43.8568 100.152 43.4928 100.796C43.1288 101.44 42.9468 102.196 42.9468 103.064C42.9468 103.918 43.1288 104.674 43.4928 105.332C43.8568 105.976 44.3468 106.48 44.9628 106.844C45.5788 107.194 46.2718 107.369 47.0418 107.369ZM57.5462 108.587V98.4654L57.9242 98.8644H53.3672V97.5624H63.2162V98.8644H58.6592L59.0372 98.4654V108.587H57.5462ZM71.063 108.692C70.111 108.692 69.25 108.475 68.48 108.041C67.71 107.593 67.094 106.956 66.632 106.13C66.184 105.29 65.96 104.268 65.96 103.064C65.96 101.86 66.184 100.845 66.632 100.019C67.08 99.1794 67.689 98.5424 68.459 98.1084C69.229 97.6744 70.097 97.4574 71.063 97.4574C72.113 97.4574 73.051 97.6954 73.877 98.1714C74.717 98.6334 75.375 99.2914 75.851 100.145C76.327 100.985 76.565 101.958 76.565 103.064C76.565 104.184 76.327 105.164 75.851 106.004C75.375 106.844 74.717 107.502 73.877 107.978C73.051 108.454 72.113 108.692 71.063 108.692ZM65.372 112.661V97.5624H66.8V100.88L66.653 103.085L66.863 105.311V112.661H65.372ZM70.958 107.369C71.742 107.369 72.442 107.194 73.058 106.844C73.674 106.48 74.164 105.976 74.528 105.332C74.892 104.674 75.074 103.918 75.074 103.064C75.074 102.21 74.892 101.461 74.528 100.817C74.164 100.173 73.674 99.6694 73.058 99.3054C72.442 98.9414 71.742 98.7594 70.958 98.7594C70.174 98.7594 69.467 98.9414 68.837 99.3054C68.221 99.6694 67.731 100.173 67.367 100.817C67.017 101.461 66.842 102.21 66.842 103.064C66.842 103.918 67.017 104.674 67.367 105.332C67.731 105.976 68.221 106.48 68.837 106.844C69.467 107.194 70.174 107.369 70.958 107.369ZM79.7685 108.587V97.5624H81.2595V106.319L88.6305 97.5624H89.9535V108.587H88.4625V99.8094L81.1125 108.587H79.7685ZM94.2265 108.587V97.5624H95.7175V107.285H102.458V97.5624H103.949V108.587H94.2265ZM104.327 111.254V108.461L104.705 108.587H102.458V107.285H105.734V111.254H104.327ZM115.428 108.587V106.151L115.365 105.752V101.678C115.365 100.74 115.099 100.019 114.567 99.5154C114.049 99.0114 113.272 98.7594 112.236 98.7594C111.522 98.7594 110.843 98.8784 110.199 99.1164C109.555 99.3544 109.009 99.6694 108.561 100.061L107.889 98.9484C108.449 98.4724 109.121 98.1084 109.905 97.8564C110.689 97.5904 111.515 97.4574 112.383 97.4574C113.811 97.4574 114.91 97.8144 115.68 98.5284C116.464 99.2284 116.856 100.299 116.856 101.741V108.587H115.428ZM111.627 108.692C110.801 108.692 110.08 108.559 109.464 108.293C108.862 108.013 108.4 107.635 108.078 107.159C107.756 106.669 107.595 106.109 107.595 105.479C107.595 104.905 107.728 104.387 107.994 103.925C108.274 103.449 108.722 103.071 109.338 102.791C109.968 102.497 110.808 102.35 111.858 102.35H115.659V103.463H111.9C110.836 103.463 110.094 103.652 109.674 104.03C109.268 104.408 109.065 104.877 109.065 105.437C109.065 106.067 109.31 106.571 109.8 106.949C110.29 107.327 110.976 107.516 111.858 107.516C112.698 107.516 113.419 107.327 114.021 106.949C114.637 106.557 115.085 105.997 115.365 105.269L115.701 106.298C115.421 107.026 114.931 107.607 114.231 108.041C113.545 108.475 112.677 108.692 111.627 108.692ZM122.925 108.587V98.4654L123.303 98.8644H118.746V97.5624H128.595V98.8644H124.038L124.416 98.4654V108.587H122.925ZM134.963 108.692C133.815 108.692 132.807 108.454 131.939 107.978C131.071 107.488 130.392 106.823 129.902 105.983C129.412 105.129 129.167 104.156 129.167 103.064C129.167 101.972 129.398 101.006 129.86 100.166C130.336 99.3264 130.98 98.6684 131.792 98.1924C132.618 97.7024 133.542 97.4574 134.564 97.4574C135.6 97.4574 136.517 97.6954 137.315 98.1714C138.127 98.6334 138.764 99.2914 139.226 100.145C139.688 100.985 139.919 101.958 139.919 103.064C139.919 103.134 139.912 103.211 139.898 103.295C139.898 103.365 139.898 103.442 139.898 103.526H130.301V102.413H139.1L138.512 102.854C138.512 102.056 138.337 101.349 137.987 100.733C137.651 100.103 137.189 99.6134 136.601 99.2634C136.013 98.9134 135.334 98.7384 134.564 98.7384C133.808 98.7384 133.129 98.9134 132.527 99.2634C131.925 99.6134 131.456 100.103 131.12 100.733C130.784 101.363 130.616 102.084 130.616 102.896V103.127C130.616 103.967 130.798 104.709 131.162 105.353C131.54 105.983 132.058 106.48 132.716 106.844C133.388 107.194 134.151 107.369 135.005 107.369C135.677 107.369 136.3 107.25 136.874 107.012C137.462 106.774 137.966 106.41 138.386 105.92L139.226 106.886C138.736 107.474 138.12 107.922 137.378 108.23C136.65 108.538 135.845 108.692 134.963 108.692ZM140.978 108.566L141.083 107.285C141.181 107.299 141.272 107.32 141.356 107.348C141.454 107.362 141.538 107.369 141.608 107.369C142.056 107.369 142.413 107.201 142.679 106.865C142.959 106.529 143.169 106.081 143.309 105.521C143.449 104.961 143.547 104.331 143.603 103.631C143.659 102.917 143.708 102.203 143.75 101.489L143.939 97.5624H152.024V108.587H150.533V98.4234L150.911 98.8644H144.905L145.262 98.4024L145.094 101.594C145.052 102.546 144.975 103.456 144.863 104.324C144.765 105.192 144.604 105.955 144.38 106.613C144.17 107.271 143.876 107.789 143.498 108.167C143.12 108.531 142.637 108.713 142.049 108.713C141.881 108.713 141.706 108.699 141.524 108.671C141.356 108.643 141.174 108.608 140.978 108.566ZM161.009 101.447C162.395 101.461 163.445 101.769 164.159 102.371C164.887 102.973 165.251 103.841 165.251 104.975C165.251 106.151 164.859 107.054 164.075 107.684C163.305 108.314 162.185 108.622 160.715 108.608L156.263 108.587V97.5624H157.754V101.405L161.009 101.447ZM160.631 107.474C161.653 107.488 162.423 107.285 162.941 106.865C163.473 106.431 163.739 105.801 163.739 104.975C163.739 104.149 163.48 103.547 162.962 103.169C162.444 102.777 161.667 102.574 160.631 102.56L157.754 102.518V107.432L160.631 107.474ZM168.096 108.587V97.5624H169.587V102.434H176.538V97.5624H178.029V108.587H176.538V103.715H169.587V108.587H168.096ZM193.019 108.587V97.5624H194.51V108.587H193.019ZM186.908 101.447C188.294 101.461 189.351 101.769 190.079 102.371C190.807 102.973 191.171 103.841 191.171 104.975C191.171 106.151 190.779 107.054 189.995 107.684C189.211 108.314 188.091 108.622 186.635 108.608L182.267 108.587V97.5624H183.758V101.405L186.908 101.447ZM186.53 107.474C187.566 107.488 188.343 107.285 188.861 106.865C189.393 106.431 189.659 105.801 189.659 104.975C189.659 104.149 189.4 103.547 188.882 103.169C188.364 102.777 187.58 102.574 186.53 102.56L183.758 102.518V107.432L186.53 107.474ZM203.48 108.692C202.332 108.692 201.324 108.454 200.456 107.978C199.588 107.488 198.909 106.823 198.419 105.983C197.929 105.129 197.684 104.156 197.684 103.064C197.684 101.972 197.915 101.006 198.377 100.166C198.853 99.3264 199.497 98.6684 200.309 98.1924C201.135 97.7024 202.059 97.4574 203.081 97.4574C204.117 97.4574 205.034 97.6954 205.832 98.1714C206.644 98.6334 207.281 99.2914 207.743 100.145C208.205 100.985 208.436 101.958 208.436 103.064C208.436 103.134 208.429 103.211 208.415 103.295C208.415 103.365 208.415 103.442 208.415 103.526H198.818V102.413H207.617L207.029 102.854C207.029 102.056 206.854 101.349 206.504 100.733C206.168 100.103 205.706 99.6134 205.118 99.2634C204.53 98.9134 203.851 98.7384 203.081 98.7384C202.325 98.7384 201.646 98.9134 201.044 99.2634C200.442 99.6134 199.973 100.103 199.637 100.733C199.301 101.363 199.133 102.084 199.133 102.896V103.127C199.133 103.967 199.315 104.709 199.679 105.353C200.057 105.983 200.575 106.48 201.233 106.844C201.905 107.194 202.668 107.369 203.522 107.369C204.194 107.369 204.817 107.25 205.391 107.012C205.979 106.774 206.483 106.41 206.903 105.92L207.743 106.886C207.253 107.474 206.637 107.922 205.895 108.23C205.167 108.538 204.362 108.692 203.48 108.692Z" fill="#F1F0F1"/>
<path d="M321.406 19.5474V18.2454H326.908V19.5474H321.406ZM328.737 24.5874V23.5164L334.848 17.5314C335.408 16.9854 335.828 16.5094 336.108 16.1034C336.388 15.6834 336.577 15.2914 336.675 14.9274C336.773 14.5634 336.822 14.2204 336.822 13.8984C336.822 13.0444 336.528 12.3724 335.94 11.8824C335.366 11.3924 334.512 11.1474 333.378 11.1474C332.51 11.1474 331.74 11.2804 331.068 11.5464C330.41 11.8124 329.843 12.2254 329.367 12.7854L328.296 11.8614C328.87 11.1894 329.605 10.6714 330.501 10.3074C331.397 9.9434 332.398 9.7614 333.504 9.7614C334.498 9.7614 335.359 9.9224 336.087 10.2444C336.815 10.5524 337.375 11.0074 337.767 11.6094C338.173 12.2114 338.376 12.9184 338.376 13.7304C338.376 14.2064 338.306 14.6754 338.166 15.1374C338.04 15.5994 337.802 16.0894 337.452 16.6074C337.116 17.1114 336.619 17.6854 335.961 18.3294L330.354 23.8314L329.934 23.2434H339.048V24.5874H328.737Z" fill="#F1F0F1"/>
<path d="M324.478 116.587V101.887H330.82C332.458 101.887 333.725 102.216 334.621 102.874C335.531 103.532 335.986 104.463 335.986 105.667C335.986 106.465 335.797 107.137 335.419 107.683C335.055 108.229 334.551 108.642 333.907 108.922C333.277 109.202 332.584 109.342 331.828 109.342L332.185 108.838C333.123 108.838 333.928 108.985 334.6 109.279C335.286 109.559 335.818 109.986 336.196 110.56C336.574 111.12 336.763 111.82 336.763 112.66C336.763 113.906 336.301 114.872 335.377 115.558C334.467 116.244 333.088 116.587 331.24 116.587H324.478ZM326.032 115.306H331.219C332.507 115.306 333.494 115.089 334.18 114.655C334.866 114.207 335.209 113.5 335.209 112.534C335.209 111.582 334.866 110.889 334.18 110.455C333.494 110.007 332.507 109.783 331.219 109.783H325.864V108.502H330.715C331.891 108.502 332.801 108.278 333.445 107.83C334.103 107.382 334.432 106.717 334.432 105.835C334.432 104.939 334.103 104.274 333.445 103.84C332.801 103.392 331.891 103.168 330.715 103.168H326.032V115.306Z" fill="#F1F0F1"/>
<path d="M383.631 19.5474V18.2454H389.133V19.5474H383.631ZM393.695 24.5874V10.5174L394.367 11.2314H390.23V9.8874H395.207V24.5874H393.695Z" fill="#F1F0F1"/>
<path d="M448.999 24.7134C447.865 24.7134 446.857 24.4194 445.975 23.8314C445.093 23.2294 444.4 22.3754 443.896 21.2694C443.392 20.1494 443.14 18.8054 443.14 17.2374C443.14 15.6694 443.392 14.3324 443.896 13.2264C444.4 12.1064 445.093 11.2524 445.975 10.6644C446.857 10.0624 447.865 9.7614 448.999 9.7614C450.133 9.7614 451.141 10.0624 452.023 10.6644C452.905 11.2524 453.598 12.1064 454.102 13.2264C454.62 14.3324 454.879 15.6694 454.879 17.2374C454.879 18.8054 454.62 20.1494 454.102 21.2694C453.598 22.3754 452.905 23.2294 452.023 23.8314C451.141 24.4194 450.133 24.7134 448.999 24.7134ZM448.999 23.3274C449.867 23.3274 450.623 23.0964 451.267 22.6344C451.911 22.1584 452.415 21.4724 452.779 20.5764C453.143 19.6664 453.325 18.5534 453.325 17.2374C453.325 15.9214 453.143 14.8154 452.779 13.9194C452.415 13.0094 451.911 12.3234 451.267 11.8614C450.623 11.3854 449.867 11.1474 448.999 11.1474C448.159 11.1474 447.41 11.3854 446.752 11.8614C446.094 12.3234 445.583 13.0094 445.219 13.9194C444.855 14.8154 444.673 15.9214 444.673 17.2374C444.673 18.5534 444.855 19.6664 445.219 20.5764C445.583 21.4724 446.094 22.1584 446.752 22.6344C447.41 23.0964 448.159 23.3274 448.999 23.3274Z" fill="#F1F0F1"/>
<path d="M449.012 116.713C447.906 116.713 446.877 116.531 445.925 116.167C444.987 115.789 444.168 115.264 443.468 114.592C442.782 113.906 442.243 113.115 441.851 112.219C441.473 111.309 441.284 110.315 441.284 109.237C441.284 108.159 441.473 107.172 441.851 106.276C442.243 105.366 442.782 104.575 443.468 103.903C444.168 103.217 444.987 102.692 445.925 102.328C446.863 101.95 447.892 101.761 449.012 101.761C450.118 101.761 451.14 101.95 452.078 102.328C453.016 102.692 453.828 103.21 454.514 103.882C455.214 104.554 455.753 105.345 456.131 106.255C456.523 107.165 456.719 108.159 456.719 109.237C456.719 110.315 456.523 111.309 456.131 112.219C455.753 113.129 455.214 113.92 454.514 114.592C453.828 115.264 453.016 115.789 452.078 116.167C451.14 116.531 450.118 116.713 449.012 116.713ZM449.012 115.327C449.894 115.327 450.706 115.18 451.448 114.886C452.204 114.578 452.855 114.151 453.401 113.605C453.961 113.045 454.395 112.401 454.703 111.673C455.011 110.931 455.165 110.119 455.165 109.237C455.165 108.355 455.011 107.55 454.703 106.822C454.395 106.08 453.961 105.436 453.401 104.89C452.855 104.33 452.204 103.903 451.448 103.609C450.706 103.301 449.894 103.147 449.012 103.147C448.13 103.147 447.311 103.301 446.555 103.609C445.799 103.903 445.141 104.33 444.581 104.89C444.035 105.436 443.601 106.08 443.279 106.822C442.971 107.55 442.817 108.355 442.817 109.237C442.817 110.105 442.971 110.91 443.279 111.652C443.601 112.394 444.035 113.045 444.581 113.605C445.141 114.151 445.799 114.578 446.555 114.886C447.311 115.18 448.13 115.327 449.012 115.327Z" fill="#F1F0F1"/>
<path d="M509.86 24.5874V10.5174L510.532 11.2314H506.395V9.8874H511.372V24.5874H509.86Z" fill="#F1F0F1"/>
<path d="M564.851 24.5874V23.5164L570.962 17.5314C571.522 16.9854 571.942 16.5094 572.222 16.1034C572.502 15.6834 572.691 15.2914 572.789 14.9274C572.887 14.5634 572.936 14.2204 572.936 13.8984C572.936 13.0444 572.642 12.3724 572.054 11.8824C571.48 11.3924 570.626 11.1474 569.492 11.1474C568.624 11.1474 567.854 11.2804 567.182 11.5464C566.524 11.8124 565.957 12.2254 565.481 12.7854L564.41 11.8614C564.984 11.1894 565.719 10.6714 566.615 10.3074C567.511 9.9434 568.512 9.7614 569.618 9.7614C570.612 9.7614 571.473 9.9224 572.201 10.2444C572.929 10.5524 573.489 11.0074 573.881 11.6094C574.287 12.2114 574.49 12.9184 574.49 13.7304C574.49 14.2064 574.42 14.6754 574.28 15.1374C574.154 15.5994 573.916 16.0894 573.566 16.6074C573.23 17.1114 572.733 17.6854 572.075 18.3294L566.468 23.8314L566.048 23.2434H575.162V24.5874H564.851Z" fill="#F1F0F1"/>
<path d="M562.516 116.587L569.236 101.887H570.769L577.489 116.587H575.851L569.677 102.79H570.307L564.133 116.587H562.516ZM565.162 112.66L565.624 111.4H574.171L574.633 112.66H565.162Z" fill="#F1F0F1"/>
<path d="M629.554 24.7134C628.49 24.7134 627.482 24.5454 626.53 24.2094C625.592 23.8594 624.836 23.3974 624.262 22.8234L624.997 21.6264C625.473 22.1164 626.11 22.5224 626.908 22.8444C627.72 23.1664 628.602 23.3274 629.554 23.3274C630.772 23.3274 631.703 23.0614 632.347 22.5294C633.005 21.9974 633.334 21.2834 633.334 20.3874C633.334 19.4914 633.012 18.7774 632.368 18.2454C631.738 17.7134 630.737 17.4474 629.365 17.4474H628.315V16.3344L632.851 10.6434L633.061 11.2314H624.871V9.8874H634.321V10.9584L629.785 16.6494L629.05 16.1664H629.617C631.381 16.1664 632.697 16.5584 633.565 17.3424C634.447 18.1264 634.888 19.1344 634.888 20.3664C634.888 21.1924 634.692 21.9344 634.3 22.5924C633.908 23.2504 633.313 23.7684 632.515 24.1464C631.731 24.5244 630.744 24.7134 629.554 24.7134Z" fill="#F1F0F1"/>
<path d="M841.836 21.6894V12.7854H843.159V21.6894H841.836ZM837.93 17.8674V16.6284H847.065V17.8674H837.93Z" fill="#F1F0F1"/>
<path d="M692.427 108.587V97.5624H702.339V108.587H700.848V98.4654L701.226 98.8644H693.54L693.918 98.4654V108.587H692.427ZM711.114 108.692C710.05 108.692 709.091 108.454 708.237 107.978C707.397 107.488 706.732 106.823 706.242 105.983C705.752 105.129 705.507 104.156 705.507 103.064C705.507 101.958 705.752 100.985 706.242 100.145C706.732 99.3054 707.397 98.6474 708.237 98.1714C709.077 97.6954 710.036 97.4574 711.114 97.4574C712.206 97.4574 713.172 97.6954 714.012 98.1714C714.866 98.6474 715.531 99.3054 716.007 100.145C716.497 100.985 716.742 101.958 716.742 103.064C716.742 104.156 716.497 105.129 716.007 105.983C715.531 106.823 714.866 107.488 714.012 107.978C713.158 108.454 712.192 108.692 711.114 108.692ZM711.114 107.369C711.912 107.369 712.619 107.194 713.235 106.844C713.851 106.48 714.334 105.976 714.684 105.332C715.048 104.674 715.23 103.918 715.23 103.064C715.23 102.196 715.048 101.44 714.684 100.796C714.334 100.152 713.851 99.6554 713.235 99.3054C712.619 98.9414 711.919 98.7594 711.135 98.7594C710.351 98.7594 709.651 98.9414 709.035 99.3054C708.419 99.6554 707.929 100.152 707.565 100.796C707.201 101.44 707.019 102.196 707.019 103.064C707.019 103.918 707.201 104.674 707.565 105.332C707.929 105.976 708.419 106.48 709.035 106.844C709.651 107.194 710.344 107.369 711.114 107.369ZM717.851 108.566L717.956 107.285C718.054 107.299 718.145 107.32 718.229 107.348C718.327 107.362 718.411 107.369 718.481 107.369C718.929 107.369 719.286 107.201 719.552 106.865C719.832 106.529 720.042 106.081 720.182 105.521C720.322 104.961 720.42 104.331 720.476 103.631C720.532 102.917 720.581 102.203 720.623 101.489L720.812 97.5624H728.897V108.587H727.406V98.4234L727.784 98.8644H721.778L722.135 98.4024L721.967 101.594C721.925 102.546 721.848 103.456 721.736 104.324C721.638 105.192 721.477 105.955 721.253 106.613C721.043 107.271 720.749 107.789 720.371 108.167C719.993 108.531 719.51 108.713 718.922 108.713C718.754 108.713 718.579 108.699 718.397 108.671C718.229 108.643 718.047 108.608 717.851 108.566ZM737.671 108.692C736.607 108.692 735.648 108.454 734.794 107.978C733.954 107.488 733.289 106.823 732.799 105.983C732.309 105.129 732.064 104.156 732.064 103.064C732.064 101.958 732.309 100.985 732.799 100.145C733.289 99.3054 733.954 98.6474 734.794 98.1714C735.634 97.6954 736.593 97.4574 737.671 97.4574C738.763 97.4574 739.729 97.6954 740.569 98.1714C741.423 98.6474 742.088 99.3054 742.564 100.145C743.054 100.985 743.299 101.958 743.299 103.064C743.299 104.156 743.054 105.129 742.564 105.983C742.088 106.823 741.423 107.488 740.569 107.978C739.715 108.454 738.749 108.692 737.671 108.692ZM737.671 107.369C738.469 107.369 739.176 107.194 739.792 106.844C740.408 106.48 740.891 105.976 741.241 105.332C741.605 104.674 741.787 103.918 741.787 103.064C741.787 102.196 741.605 101.44 741.241 100.796C740.891 100.152 740.408 99.6554 739.792 99.3054C739.176 98.9414 738.476 98.7594 737.692 98.7594C736.908 98.7594 736.208 98.9414 735.592 99.3054C734.976 99.6554 734.486 100.152 734.122 100.796C733.758 101.44 733.576 102.196 733.576 103.064C733.576 103.918 733.758 104.674 734.122 105.332C734.486 105.976 734.976 106.48 735.592 106.844C736.208 107.194 736.901 107.369 737.671 107.369ZM759.179 108.587L755.399 103.127L756.638 102.392L760.964 108.587H759.179ZM752.921 103.673V102.392H756.407V103.673H752.921ZM756.785 103.232L755.357 103.022L759.032 97.5624H760.649L756.785 103.232ZM746.117 108.587H744.332L748.658 102.392L749.876 103.127L746.117 108.587ZM753.383 108.587H751.892V97.5624H753.383V108.587ZM752.354 103.673H748.889V102.392H752.354V103.673ZM748.532 103.232L744.647 97.5624H746.264L749.918 103.022L748.532 103.232ZM763.446 108.587V97.5624H764.937V106.319L772.308 97.5624H773.631V108.587H772.14V99.8094L764.79 108.587H763.446ZM780.004 108.587V98.4654L780.382 98.8644H775.825V97.5624H785.674V98.8644H781.117L781.495 98.4654V108.587H780.004ZM792.042 108.692C790.894 108.692 789.886 108.454 789.018 107.978C788.15 107.488 787.471 106.823 786.981 105.983C786.491 105.129 786.246 104.156 786.246 103.064C786.246 101.972 786.477 101.006 786.939 100.166C787.415 99.3264 788.059 98.6684 788.871 98.1924C789.697 97.7024 790.621 97.4574 791.643 97.4574C792.679 97.4574 793.596 97.6954 794.394 98.1714C795.206 98.6334 795.843 99.2914 796.305 100.145C796.767 100.985 796.998 101.958 796.998 103.064C796.998 103.134 796.991 103.211 796.977 103.295C796.977 103.365 796.977 103.442 796.977 103.526H787.38V102.413H796.179L795.591 102.854C795.591 102.056 795.416 101.349 795.066 100.733C794.73 100.103 794.268 99.6134 793.68 99.2634C793.092 98.9134 792.413 98.7384 791.643 98.7384C790.887 98.7384 790.208 98.9134 789.606 99.2634C789.004 99.6134 788.535 100.103 788.199 100.733C787.863 101.363 787.695 102.084 787.695 102.896V103.127C787.695 103.967 787.877 104.709 788.241 105.353C788.619 105.983 789.137 106.48 789.795 106.844C790.467 107.194 791.23 107.369 792.084 107.369C792.756 107.369 793.379 107.25 793.953 107.012C794.541 106.774 795.045 106.41 795.465 105.92L796.305 106.886C795.815 107.474 795.199 107.922 794.457 108.23C793.729 108.538 792.924 108.692 792.042 108.692ZM798.057 108.566L798.162 107.285C798.26 107.299 798.351 107.32 798.435 107.348C798.533 107.362 798.617 107.369 798.687 107.369C799.135 107.369 799.492 107.201 799.758 106.865C800.038 106.529 800.248 106.081 800.388 105.521C800.528 104.961 800.626 104.331 800.682 103.631C800.738 102.917 800.787 102.203 800.829 101.489L801.018 97.5624H809.103V108.587H807.612V98.4234L807.99 98.8644H801.984L802.341 98.4024L802.173 101.594C802.131 102.546 802.054 103.456 801.942 104.324C801.844 105.192 801.683 105.955 801.459 106.613C801.249 107.271 800.955 107.789 800.577 108.167C800.199 108.531 799.716 108.713 799.128 108.713C798.96 108.713 798.785 108.699 798.603 108.671C798.435 108.643 798.253 108.608 798.057 108.566ZM818.087 101.447C819.473 101.461 820.523 101.769 821.237 102.371C821.965 102.973 822.329 103.841 822.329 104.975C822.329 106.151 821.937 107.054 821.153 107.684C820.383 108.314 819.263 108.622 817.793 108.608L813.341 108.587V97.5624H814.832V101.405L818.087 101.447ZM817.709 107.474C818.731 107.488 819.501 107.285 820.019 106.865C820.551 106.431 820.817 105.801 820.817 104.975C820.817 104.149 820.558 103.547 820.04 103.169C819.522 102.777 818.745 102.574 817.709 102.56L814.832 102.518V107.432L817.709 107.474ZM825.174 108.587V97.5624H826.665V102.434H833.616V97.5624H835.107V108.587H833.616V103.715H826.665V108.587H825.174ZM850.097 108.587V97.5624H851.588V108.587H850.097ZM843.986 101.447C845.372 101.461 846.429 101.769 847.157 102.371C847.885 102.973 848.249 103.841 848.249 104.975C848.249 106.151 847.857 107.054 847.073 107.684C846.289 108.314 845.169 108.622 843.713 108.608L839.345 108.587V97.5624H840.836V101.405L843.986 101.447ZM843.608 107.474C844.644 107.488 845.421 107.285 845.939 106.865C846.471 106.431 846.737 105.801 846.737 104.975C846.737 104.149 846.478 103.547 845.96 103.169C845.442 102.777 844.658 102.574 843.608 102.56L840.836 102.518V107.432L843.608 107.474ZM860.558 108.692C859.41 108.692 858.402 108.454 857.534 107.978C856.666 107.488 855.987 106.823 855.497 105.983C855.007 105.129 854.762 104.156 854.762 103.064C854.762 101.972 854.993 101.006 855.455 100.166C855.931 99.3264 856.575 98.6684 857.387 98.1924C858.213 97.7024 859.137 97.4574 860.159 97.4574C861.195 97.4574 862.112 97.6954 862.91 98.1714C863.722 98.6334 864.359 99.2914 864.821 100.145C865.283 100.985 865.514 101.958 865.514 103.064C865.514 103.134 865.507 103.211 865.493 103.295C865.493 103.365 865.493 103.442 865.493 103.526H855.896V102.413H864.695L864.107 102.854C864.107 102.056 863.932 101.349 863.582 100.733C863.246 100.103 862.784 99.6134 862.196 99.2634C861.608 98.9134 860.929 98.7384 860.159 98.7384C859.403 98.7384 858.724 98.9134 858.122 99.2634C857.52 99.6134 857.051 100.103 856.715 100.733C856.379 101.363 856.211 102.084 856.211 102.896V103.127C856.211 103.967 856.393 104.709 856.757 105.353C857.135 105.983 857.653 106.48 858.311 106.844C858.983 107.194 859.746 107.369 860.6 107.369C861.272 107.369 861.895 107.25 862.469 107.012C863.057 106.774 863.561 106.41 863.981 105.92L864.821 106.886C864.331 107.474 863.715 107.922 862.973 108.23C862.245 108.538 861.44 108.692 860.558 108.692Z" fill="#F1F0F1"/>
</svg>
