<svg width="1920" height="70" viewBox="0 0 1920 70" fill="none" xmlns="http://www.w3.org/2000/svg">
<g clip-path="url(#clip0_1249_6824)">
<rect width="1920" height="69" transform="translate(0 0.282227)" fill="#FFC0CD"/>
<path d="M37.01 22.2822H54.59V43.2822H48.74V27.5622H42.89V43.2822H37.01V22.2822ZM74.2067 35.0322C74.2067 35.5422 74.1767 36.0222 74.1167 36.5322H62.0867C62.4467 38.3922 63.6167 39.3522 65.3867 39.3522C66.6767 39.3522 67.7867 38.7822 68.2967 37.8222H73.8767C72.7367 41.5122 69.4367 43.8222 65.3867 43.8222C60.3167 43.8222 56.5967 40.1322 56.5967 35.1822C56.5967 30.2322 60.2867 26.5722 65.3867 26.5722C70.6067 26.5722 74.2067 30.2922 74.2067 35.0322ZM65.3867 30.9522C63.7667 30.9522 62.6267 31.8222 62.1767 33.4422H68.7167C68.2367 31.8222 67.0667 30.9522 65.3867 30.9522ZM84.1555 43.8222C78.9655 43.8222 75.2155 40.1922 75.2155 35.1822C75.2155 30.1722 78.9355 26.6022 84.1855 26.6022C88.7455 26.6022 92.1355 29.4522 92.7655 33.7722H87.3055C86.8555 32.4522 85.6255 31.5822 84.1555 31.5822C82.2055 31.5822 80.7955 33.0822 80.7955 35.1822C80.7955 37.3122 82.2055 38.8422 84.1555 38.8422C85.6555 38.8422 86.8855 37.9122 87.3355 36.4722H92.8255C92.1955 40.8522 88.7155 43.8222 84.1555 43.8222ZM102.748 43.8222C97.4677 43.8222 93.6877 40.1922 93.6877 35.1822C93.6877 30.1722 97.4677 26.5722 102.748 26.5722C108.028 26.5722 111.838 30.1722 111.838 35.1822C111.838 40.1922 108.028 43.8222 102.748 43.8222ZM102.748 38.8122C104.788 38.8122 106.258 37.3422 106.258 35.2122C106.258 33.0822 104.788 31.5822 102.748 31.5822C100.738 31.5822 99.2677 33.0522 99.2677 35.2122C99.2677 37.3422 100.738 38.8122 102.748 38.8122ZM122.492 27.0822H128.012V43.2822H122.492V38.4522C121.622 38.6922 120.692 38.8122 119.792 38.8122C115.652 38.8122 112.952 36.1722 112.952 31.7622V27.0822H118.472V31.7922C118.472 33.4122 119.192 34.1922 120.632 34.1922C121.292 34.1922 122.012 34.0422 122.492 33.7722V27.0822ZM140.908 27.0822H146.488V43.2822H140.908V37.5822H136.468V43.2822H130.918V27.0822H136.468V32.6622H140.908V27.0822ZM161.33 27.0822H164.57V43.2822H159.17V36.0222L152.66 43.2822H149.39V27.0822H154.76V34.2822L161.33 27.0822ZM182.571 38.4822H184.701V47.0922H179.901V43.2822H167.481V27.0822H173.001V38.4822H177.051V27.0822H182.571V38.4822ZM199.649 27.0822H203.819V43.2822H199.499L199.019 42.1422C197.699 43.2222 196.019 43.8222 194.129 43.8222C189.179 43.8222 185.639 40.2222 185.639 35.1822C185.639 30.1722 189.179 26.6022 194.129 26.6022C196.049 26.6022 197.759 27.2322 199.079 28.3422L199.649 27.0822ZM194.879 38.9022C196.979 38.9022 198.509 37.3122 198.509 35.1822C198.509 33.0822 196.979 31.5222 194.879 31.5222C192.779 31.5222 191.249 33.0822 191.249 35.1822C191.249 37.3122 192.779 38.9022 194.879 38.9022Z" fill="#231F20"/>
<rect width="62.7081" height="61.6834" transform="matrix(0.83205 -0.5547 0.83205 0.5547 1867.18 35.0664)" fill="#231F20"/>
</g>
<defs>
<clipPath id="clip0_1249_6824">
<rect width="1920" height="69" fill="white" transform="translate(0 0.282227)"/>
</clipPath>
</defs>
</svg>
