<svg width="1280" height="70" viewBox="0 0 1280 70" fill="none" xmlns="http://www.w3.org/2000/svg">
<g clip-path="url(#clip0_7_4266)">
<rect width="1280" height="69" transform="translate(0 0.587433)" fill="#FFA782"/>
<path d="M50.808 46.2714C42.258 46.2714 36.178 40.4194 36.178 32.3254C36.178 24.1934 42.258 18.3414 50.808 18.3414C59.358 18.3414 65.438 24.1554 65.438 32.3254C65.438 40.4574 59.358 46.2714 50.808 46.2714ZM50.808 39.4694C54.874 39.4694 57.8 36.4674 57.8 32.3254C57.8 28.1454 54.874 25.1434 50.808 25.1434C46.78 25.1434 43.778 28.1834 43.778 32.3254C43.778 36.4294 46.78 39.4694 50.808 39.4694ZM82.3139 25.0674V31.1854H74.9039V45.5874H67.9499V25.0674H82.3139ZM86.3151 25.0674H102.351V45.5874H95.3591V30.9954H92.1671L91.5971 36.8474C90.9511 43.1174 88.1011 45.7014 82.8191 45.7014H80.9951V39.8874H81.9071C83.8071 39.8874 84.7571 38.9374 84.9851 36.6194L86.3151 25.0674ZM122.594 25.0674H127.876V45.5874H122.404L121.796 44.1434C120.124 45.5114 117.996 46.2714 115.602 46.2714C109.332 46.2714 104.848 41.7114 104.848 35.3274C104.848 28.9814 109.332 24.4594 115.602 24.4594C118.034 24.4594 120.2 25.2574 121.872 26.6634L122.594 25.0674ZM116.552 40.0394C119.212 40.0394 121.15 38.0254 121.15 35.3274C121.15 32.6674 119.212 30.6914 116.552 30.6914C113.892 30.6914 111.954 32.6674 111.954 35.3274C111.954 38.0254 113.892 40.0394 116.552 40.0394ZM146.852 34.7194C148.98 35.5554 150.272 37.3034 150.272 39.6594C150.272 43.1174 147.536 45.5874 143.584 45.5874H131.576V25.0674H143.394C147.08 25.0674 149.626 27.1954 149.626 30.2734C149.626 32.2494 148.562 33.8454 146.852 34.7194ZM143.166 31.2614C143.166 30.2734 142.444 29.5514 141.304 29.5514H138.15V33.0094H141.304C142.444 33.0094 143.166 32.2874 143.166 31.2614ZM141.532 40.8754C142.748 40.8754 143.47 40.1534 143.47 39.0514C143.47 37.9114 142.748 37.2274 141.532 37.2274H138.15V40.8754H141.532ZM156.584 25.0674H172.62V45.5874H165.628V30.9954H162.436L161.866 36.8474C161.22 43.1174 158.37 45.7014 153.088 45.7014H151.264V39.8874H152.176C154.076 39.8874 155.026 38.9374 155.254 36.6194L156.584 25.0674ZM197.422 35.1374C197.422 35.7834 197.384 36.3914 197.308 37.0374H182.07C182.526 39.3934 184.008 40.6094 186.25 40.6094C187.884 40.6094 189.29 39.8874 189.936 38.6714H197.004C195.56 43.3454 191.38 46.2714 186.25 46.2714C179.828 46.2714 175.116 41.5974 175.116 35.3274C175.116 29.0574 179.79 24.4214 186.25 24.4214C192.862 24.4214 197.422 29.1334 197.422 35.1374ZM186.25 29.9694C184.198 29.9694 182.754 31.0714 182.184 33.1234H190.468C189.86 31.0714 188.378 29.9694 186.25 29.9694ZM212.532 25.0674H219.6V45.5874H212.532V38.3674H206.908V45.5874H199.878V25.0674H206.908V32.1354H212.532V25.0674ZM238.4 25.0674H242.504V45.5874H235.664V36.3914L227.418 45.5874H223.276V25.0674H230.078V34.1874L238.4 25.0674ZM267.32 35.1374C267.32 35.7834 267.282 36.3914 267.206 37.0374H251.968C252.424 39.3934 253.906 40.6094 256.148 40.6094C257.782 40.6094 259.188 39.8874 259.834 38.6714H266.902C265.458 43.3454 261.278 46.2714 256.148 46.2714C249.726 46.2714 245.014 41.5974 245.014 35.3274C245.014 29.0574 249.688 24.4214 256.148 24.4214C262.76 24.4214 267.32 29.1334 267.32 35.1374ZM256.148 29.9694C254.096 29.9694 252.652 31.0714 252.082 33.1234H260.366C259.758 31.0714 258.276 29.9694 256.148 29.9694Z" fill="#443D3E"/>
<rect x="1244.78" y="35.3717" width="49.1923" height="48.3884" transform="rotate(-45 1244.78 35.3717)" fill="#231F20"/>
</g>
<defs>
<clipPath id="clip0_7_4266">
<rect width="1280" height="69" fill="white" transform="translate(0 0.587433)"/>
</clipPath>
</defs>
</svg>
