<svg width="431" height="296" viewBox="0 0 431 296" fill="none" xmlns="http://www.w3.org/2000/svg">
<path fill-rule="evenodd" clip-rule="evenodd" d="M354.789 78.8008L354.778 78.5443C354.767 78.2914 354.751 77.9449 354.728 77.5157C354.683 76.6586 354.613 75.4635 354.509 74.017C354.302 71.1496 353.952 67.1709 353.375 62.8131C352.808 58.5306 351.966 53.4448 350.686 48.5028C349.549 44.1135 347.484 37.4293 343.407 31.5841C341.276 28.5288 337.617 24.2748 331.838 21.3411C325.392 18.0687 318.004 17.327 310.935 19.3255C299.303 22.614 292.469 32.1237 289.05 37.4605C280.932 50.1303 272.272 72.1585 262.101 106.096C257.889 120.149 253.956 129.051 250.783 134.38C249.173 132.391 247.314 129.776 245.263 126.445C237.6 113.997 230.538 97.0243 225.213 82.265C222.615 75.0623 220.547 68.7175 219.135 64.1906C218.43 61.9319 217.892 60.1382 217.536 58.9312C217.359 58.328 217.227 57.8723 217.143 57.5794L217.053 57.2643L217.036 57.2054L217.034 57.1983C217.034 57.1983 217.034 57.1983 217.034 57.1983C213.358 44.0889 199.752 36.4364 186.64 40.108C173.525 43.7804 165.87 57.3893 169.542 70.5044L193.289 63.8549C169.542 70.5044 169.544 70.5097 169.546 70.5156L169.562 70.5749L169.601 70.7125L169.735 71.1831C169.85 71.5818 170.014 72.148 170.225 72.8663C170.648 74.3022 171.263 76.3494 172.053 78.8828C173.631 83.9402 175.927 90.9845 178.819 99.001C184.475 114.68 192.9 135.467 203.264 152.301C208.389 160.626 214.838 169.406 222.756 176.055C230.648 182.681 242.938 189.51 258.123 187.02C272.988 184.582 283.448 174.352 290.57 163.717C297.26 153.729 302.973 140.558 308.059 124.439C308.749 135.024 309.569 146.773 310.5 158.744C312.052 178.686 313.937 199.516 316.089 216.673C317.162 225.224 318.341 233.194 319.643 239.834C320.741 245.439 322.469 253.234 325.657 259.211C333.755 274.393 345.774 284.54 360.651 288.402C374.509 291.999 387.558 289.274 397.064 285.862C406.754 282.384 415.007 277.388 420.552 273.585C423.404 271.63 425.731 269.856 427.392 268.531C428.226 267.866 428.903 267.306 429.403 266.883C429.517 266.787 429.622 266.697 429.718 266.616C429.833 266.517 429.935 266.429 430.023 266.352L430.233 266.17L430.312 266.1L430.344 266.071L430.359 266.058C430.366 266.052 430.373 266.046 413.999 247.606C397.625 229.166 397.632 229.161 397.638 229.155L397.65 229.145L397.67 229.126L397.7 229.1C397.715 229.087 397.72 229.083 397.715 229.088C397.71 229.091 397.699 229.101 397.68 229.117C397.656 229.138 397.619 229.17 397.57 229.211C397.398 229.356 397.083 229.619 396.64 229.972C395.746 230.685 394.376 231.732 392.657 232.911C389.061 235.377 384.681 237.905 380.4 239.442C375.935 241.044 373.677 240.828 373.043 240.663C372.876 240.62 372.655 240.554 372.23 240.199C371.78 239.823 370.756 238.822 369.474 236.546C369.511 236.51 368.921 234.831 368.043 230.348C367.051 225.289 366.034 218.57 365.026 210.534C363.017 194.517 361.203 174.583 359.672 154.917C358.146 135.312 356.923 116.247 356.081 102.063C355.66 94.977 355.335 89.1231 355.116 85.0464C355.006 83.0083 354.923 81.4152 354.867 80.3353L354.789 78.8008ZM246.947 139.53C246.946 139.528 246.98 139.498 247.05 139.449C246.982 139.508 246.947 139.533 246.947 139.53ZM255.302 138.919C255.34 138.94 255.359 138.952 255.359 138.953C255.36 138.954 255.341 138.943 255.302 138.919Z" fill="#FF82A2"/>
<path fill-rule="evenodd" clip-rule="evenodd" d="M331.386 79.8661L331.386 79.8593L331.383 79.802L331.374 79.5815C331.365 79.3887 331.352 79.1062 331.333 78.7443C331.295 78.0206 331.234 76.9791 331.142 75.7029C330.958 73.1519 330.649 69.6573 330.15 65.8873C329.652 62.121 328.96 58.058 328.007 54.3772C327.061 50.7241 325.828 47.3313 324.193 44.9869C323.37 43.8082 322.396 42.8211 321.233 42.2306C320.037 41.6232 318.71 41.4728 317.308 41.8691C314.631 42.6261 311.83 45.3323 308.775 50.0995C302.602 59.7337 294.704 78.9144 284.542 112.821C279.477 129.72 274.265 141.532 269.057 149.308C263.841 157.095 258.739 160.68 253.933 161.468C249.142 162.253 244.282 160.319 239.407 156.225C234.533 152.133 229.79 145.997 225.314 138.727C216.367 124.195 208.658 105.411 203.176 90.2146C200.438 82.6253 198.262 75.9482 196.771 71.1694C196.026 68.7802 195.451 66.866 195.064 65.5503C194.87 64.8925 194.723 64.3843 194.624 64.0411L194.513 63.6521L194.486 63.5541L194.477 63.524C194.477 63.5228 194.477 63.5223 193.289 63.8548L194.477 63.524C194.294 62.8682 193.613 62.4838 192.957 62.6675C192.301 62.8511 191.919 63.5315 192.102 64.1873L193.289 63.8548C192.102 64.1873 192.102 64.1856 192.102 64.1873L192.112 64.2228L192.141 64.3245L192.254 64.7213C192.354 65.0697 192.503 65.5835 192.698 66.2471C193.089 67.5742 193.667 69.501 194.417 71.904C195.917 76.7094 198.104 83.4214 200.856 91.0514C206.355 106.294 214.132 125.269 223.214 140.02C227.751 147.391 232.657 153.778 237.821 158.114C242.984 162.449 248.551 164.849 254.332 163.901C260.096 162.956 265.709 158.739 271.106 150.681C276.509 142.612 281.807 130.536 286.904 113.529C297.065 79.6256 304.883 60.7446 310.852 51.4299C313.868 46.7227 316.244 44.7327 317.979 44.2421C318.784 44.0145 319.473 44.1026 320.117 44.4295C320.794 44.7733 321.485 45.4165 322.17 46.3978C323.548 48.3736 324.694 51.42 325.62 54.9956C326.539 58.5436 327.214 62.4989 327.705 66.2109C328.196 69.9191 328.501 73.3627 328.682 75.8804C328.773 77.1386 328.833 78.164 328.87 78.8737C328.889 79.2285 328.902 79.5043 328.91 79.6906L328.919 79.9019L328.921 79.9547L328.922 79.9675C328.922 79.9681 328.922 79.9711 330.15 79.9257L328.922 79.9675L328.923 79.9867L330.154 79.9256C328.923 79.9867 328.923 79.9855 328.923 79.9867L328.923 79.9936L329.008 81.669C329.065 82.7671 329.149 84.3796 329.26 86.4383C329.482 90.5556 329.809 96.4577 330.233 103.598C331.081 117.878 332.315 137.112 333.857 156.926C335.399 176.737 337.25 197.141 339.334 213.757C340.376 222.063 341.479 229.439 342.633 235.328C343.777 241.165 344.998 245.691 346.329 248.186C351.815 258.474 358.911 263.746 366.538 265.726C374.113 267.692 382.037 266.365 389.149 263.812C396.27 261.256 402.683 257.433 407.302 254.265C409.616 252.678 411.488 251.25 412.785 250.216C413.433 249.699 413.938 249.28 414.282 248.989C414.455 248.843 414.587 248.73 414.677 248.652L414.78 248.562L414.807 248.538L414.815 248.531C414.815 248.531 414.818 248.528 413.999 247.606L413.181 246.684L413.153 246.708L413.061 246.788C412.979 246.86 412.855 246.967 412.691 247.105C412.363 247.382 411.876 247.786 411.247 248.288C409.989 249.291 408.164 250.684 405.908 252.231C401.386 255.332 395.166 259.032 388.316 261.491C381.456 263.954 374.072 265.134 367.157 263.339C360.294 261.557 353.717 256.799 348.504 247.026C347.369 244.897 346.201 240.715 345.053 234.854C343.914 229.044 342.82 221.731 341.781 213.45C339.704 196.891 337.856 176.532 336.316 156.734C334.775 136.94 333.543 117.722 332.695 103.452C332.271 96.3167 331.944 90.4192 331.723 86.3057C331.612 84.249 331.528 82.6383 331.471 81.542L331.387 79.8914L331.386 79.8783L331.386 79.8743L331.386 79.8661Z" fill="#FF1176"/>
<path d="M368.408 259.893C368.408 265.341 363.992 269.758 358.544 269.758C353.096 269.758 348.68 265.341 348.68 259.893C348.68 254.446 353.096 250.029 358.544 250.029C363.992 250.029 368.408 254.446 368.408 259.893Z" fill="#FF1176"/>
<path d="M328.951 45.3479C328.951 50.7957 324.535 55.212 319.087 55.212C313.639 55.212 309.223 50.7957 309.223 45.3479C309.223 39.9001 313.639 35.4837 319.087 35.4837C324.535 35.4837 328.951 39.9001 328.951 45.3479Z" fill="#FF1176"/>
<path d="M259.902 161.251C259.902 166.699 255.486 171.116 250.038 171.116C244.59 171.116 240.174 166.699 240.174 161.251C240.174 155.804 244.59 151.387 250.038 151.387C255.486 151.387 259.902 155.804 259.902 161.251Z" fill="#FF1176"/>
<path fill-rule="evenodd" clip-rule="evenodd" d="M195.963 15.746L211.831 32.345L211.82 32.3502L243.109 65.0808L222.521 75.2516L205.764 57.7221L168.906 266.753C167.487 274.801 159.813 280.174 151.765 278.755L146.256 277.784C139.55 276.601 135.072 270.206 136.255 263.5L173.691 51.1863L150.633 62.5773L134.765 45.9783L195.963 15.746Z" fill="#FFA782"/>
<path fill-rule="evenodd" clip-rule="evenodd" d="M196.76 11.2265L217.985 33.4298L217.974 33.435L249.264 66.1661L221.724 79.7711L208.138 65.5589L172.548 267.395C170.775 277.455 161.182 284.172 151.122 282.398L145.614 281.427C136.896 279.889 131.074 271.576 132.612 262.858L168.78 57.7384L149.836 67.0968L128.61 44.893L196.76 11.2265ZM205.676 31.2602L195.166 20.2654L140.92 47.0636L151.43 58.0578L178.602 44.6342L139.897 264.142C139.069 268.837 142.204 273.313 146.898 274.141L152.407 275.112C158.443 276.177 164.198 272.147 165.263 266.111L203.389 49.8854L223.318 70.7322L236.954 63.9956L205.666 31.2654L205.676 31.2602Z" fill="#EC7500"/>
<path fill-rule="evenodd" clip-rule="evenodd" d="M0.967912 93.9298L51.4648 58.5714L178.766 240.376C186.578 251.533 183.867 266.91 172.71 274.721L142.414 295.935L0.967912 93.9298ZM160.576 272.369C154.998 276.275 147.31 274.92 143.404 269.341C139.498 263.763 140.854 256.075 146.432 252.169C152.01 248.263 159.698 249.619 163.604 255.197C167.51 260.775 166.155 268.463 160.576 272.369Z" fill="#82DAFF"/>
<path fill-rule="evenodd" clip-rule="evenodd" d="M15.1095 114.132L40.3579 96.4529L38.9435 94.4329L13.695 112.112L15.1095 114.132Z" fill="#00B6E2"/>
<path fill-rule="evenodd" clip-rule="evenodd" d="M23.5983 126.25L43.797 112.106L42.3826 110.086L22.1838 124.23L23.5983 126.25Z" fill="#00B6E2"/>
<path fill-rule="evenodd" clip-rule="evenodd" d="M32.0963 138.37L47.2454 127.762L45.8309 125.742L30.6819 136.35L32.0963 138.37Z" fill="#00B6E2"/>
<path fill-rule="evenodd" clip-rule="evenodd" d="M40.5715 150.491L60.7703 136.348L59.3558 134.328L39.1571 148.471L40.5715 150.491Z" fill="#00B6E2"/>
<path fill-rule="evenodd" clip-rule="evenodd" d="M49.056 162.612L74.3045 144.933L72.89 142.913L47.6415 160.592L49.056 162.612Z" fill="#00B6E2"/>
<path fill-rule="evenodd" clip-rule="evenodd" d="M57.5445 174.732L77.7433 160.589L76.3289 158.569L56.1301 172.712L57.5445 174.732Z" fill="#00B6E2"/>
<path fill-rule="evenodd" clip-rule="evenodd" d="M66.0427 186.85L81.1918 176.243L79.7773 174.223L64.6283 184.83L66.0427 186.85Z" fill="#00B6E2"/>
<path fill-rule="evenodd" clip-rule="evenodd" d="M74.5179 198.971L94.7167 184.828L93.3022 182.808L73.1035 196.951L74.5179 198.971Z" fill="#00B6E2"/>
<path fill-rule="evenodd" clip-rule="evenodd" d="M83.0024 211.095L108.251 193.416L106.836 191.396L81.588 209.075L83.0024 211.095Z" fill="#00B6E2"/>
</svg>
