<svg width="101" height="68" viewBox="0 0 101 68" fill="none" xmlns="http://www.w3.org/2000/svg">
<path fill-rule="evenodd" clip-rule="evenodd" d="M82.5348 16.937L82.5322 16.8772C82.5296 16.8182 82.5258 16.7374 82.5206 16.6373C82.5101 16.4373 82.4937 16.1586 82.4693 15.8211C82.4211 15.1523 82.3395 14.2242 82.2049 13.2077C82.0727 12.2087 81.8762 11.0224 81.5776 9.86959C81.3124 8.84572 80.8308 7.28652 79.8798 5.92304C79.3826 5.21035 78.5291 4.21805 77.1811 3.5337C75.6775 2.77038 73.9541 2.59736 72.3051 3.06354C69.5918 3.83063 67.9978 6.04893 67.2001 7.2938C65.3064 10.2492 63.2865 15.3876 60.9139 23.304C59.9314 26.5821 59.0141 28.6585 58.2739 29.9018C57.8983 29.4378 57.4647 28.8278 56.9863 28.0508C55.1987 25.147 53.5513 21.1879 52.3093 17.7451C51.7033 16.065 51.2209 14.585 50.8914 13.529C50.727 13.0021 50.6015 12.5837 50.5186 12.3022C50.4772 12.1615 50.4464 12.0552 50.4268 11.9868L50.4058 11.9133L50.4019 11.8996L50.4015 11.8979C50.4015 11.8979 50.4015 11.8979 50.4015 11.8979C49.5439 8.83997 46.3701 7.05492 43.3115 7.91136C40.2522 8.76801 38.4667 11.9425 39.3233 15.0018L44.8626 13.4507C39.3233 15.0018 39.3236 15.003 39.324 15.0044L39.3279 15.0182L39.337 15.0503L39.3683 15.1601C39.395 15.2531 39.4332 15.3852 39.4826 15.5527C39.5812 15.8877 39.7246 16.3652 39.909 16.9562C40.2771 18.1359 40.8126 19.7791 41.4872 21.649C42.8065 25.3064 44.7717 30.1552 47.1893 34.0822C48.3847 36.024 49.8891 38.0721 51.7362 39.6231C53.5771 41.1687 56.4438 42.7616 59.986 42.1807C63.4534 41.6121 65.8934 39.2257 67.5549 36.7451C69.1153 34.4152 70.448 31.3428 71.6343 27.5829C71.7954 30.0519 71.9865 32.7926 72.2038 35.5849C72.5658 40.2368 73.0054 45.0956 73.5075 49.0977C73.7577 51.0923 74.0328 52.9516 74.3364 54.5003C74.5926 55.8078 74.9958 57.6262 75.7394 59.0204C77.6282 62.5619 80.4318 64.9287 83.9023 65.8296C87.1346 66.6686 90.1786 66.0331 92.396 65.2371C94.6564 64.4257 96.5816 63.2605 97.8751 62.3734C98.5401 61.9173 99.083 61.5035 99.4706 61.1945C99.6651 61.0393 99.8229 60.9086 99.9396 60.81C99.9662 60.7875 99.9907 60.7667 100.013 60.7476C100.04 60.7246 100.064 60.7041 100.084 60.6862L100.133 60.6437L100.152 60.6275L100.159 60.6207L100.163 60.6176C100.164 60.6162 100.166 60.6148 96.3464 56.3134C92.527 52.012 92.5285 52.0107 92.53 52.0094L92.5327 52.007L92.5375 52.0027L92.5444 51.9966C92.5479 51.9936 92.549 51.9927 92.5478 51.9937C92.5468 51.9946 92.5441 51.9969 92.5398 52.0005C92.5341 52.0055 92.5255 52.0128 92.514 52.0225C92.474 52.0563 92.4004 52.1176 92.297 52.2C92.0886 52.3662 91.7691 52.6105 91.3681 52.8856C90.5293 53.4608 89.5076 54.0504 88.509 54.4089C87.4675 54.7828 86.9406 54.7322 86.7929 54.6939C86.7539 54.6837 86.7024 54.6685 86.6032 54.5857C86.4981 54.4978 86.2593 54.2643 85.9602 53.7334C85.9689 53.7251 85.8313 53.3335 85.6264 52.2878C85.3951 51.1076 85.1579 49.5403 84.9228 47.6658C84.4541 43.9296 84.0309 39.2795 83.6738 34.6922C83.318 30.1192 83.0327 25.6718 82.8362 22.3633C82.738 20.7104 82.6622 19.3449 82.611 18.3939C82.5854 17.9185 82.566 17.5469 82.553 17.295L82.5348 16.937ZM57.379 31.103C57.3789 31.1024 57.3868 31.0956 57.403 31.0842C57.3872 31.098 57.3791 31.1037 57.379 31.103ZM59.3279 30.9604C59.3368 30.9653 59.3413 30.9682 59.3414 30.9684C59.3414 30.9687 59.3369 30.9662 59.3279 30.9604Z" fill="#FF82A2"/>
<path fill-rule="evenodd" clip-rule="evenodd" d="M77.0757 17.1856L77.0756 17.184L77.0751 17.1707L77.0729 17.1192C77.0709 17.0743 77.0678 17.0084 77.0634 16.924C77.0545 16.7551 77.0403 16.5122 77.0188 16.2145C76.9759 15.6195 76.9038 14.8043 76.7874 13.9249C76.6711 13.0463 76.5099 12.0986 76.2875 11.24C76.0668 10.3878 75.7792 9.5964 75.3977 9.04955C75.2059 8.77458 74.9787 8.54433 74.7074 8.40659C74.4283 8.2649 74.1188 8.22984 73.7919 8.32226C73.1673 8.49885 72.5139 9.13011 71.8014 10.2421C70.3614 12.4895 68.5191 16.9636 66.1486 24.8729C64.9672 28.8148 63.7514 31.57 62.5365 33.384C61.3199 35.2004 60.1298 36.0365 59.0086 36.2204C57.8912 36.4036 56.7575 35.9524 55.6202 34.9975C54.4833 34.0428 53.3768 32.6117 52.3328 30.9158C50.2459 27.526 48.4476 23.1443 47.1688 19.5996C46.5302 17.8292 46.0227 16.2717 45.6748 15.157C45.5009 14.5997 45.3669 14.1532 45.2765 13.8463C45.2313 13.6928 45.197 13.5743 45.174 13.4942L45.1482 13.4035L45.1417 13.3806L45.1397 13.3736C45.1396 13.3733 45.1396 13.3732 44.8626 13.4508L45.1397 13.3736C45.0969 13.2206 44.9381 13.131 44.7851 13.1738C44.6321 13.2166 44.5428 13.3753 44.5857 13.5283L44.8626 13.4508C44.5857 13.5283 44.5856 13.5279 44.5857 13.5283L44.588 13.5366L44.5947 13.5603L44.6211 13.6529C44.6444 13.7342 44.6791 13.854 44.7247 14.0088C44.8159 14.3184 44.9507 14.7678 45.1257 15.3283C45.4755 16.4493 45.9857 18.015 46.6277 19.7948C47.9103 23.3502 49.7246 27.7764 51.8429 31.2173C52.9014 32.9367 54.0457 34.4266 55.2503 35.438C56.4546 36.4492 57.7533 37.0092 59.1017 36.7881C60.4463 36.5676 61.7555 35.5838 63.0144 33.7041C64.2749 31.8221 65.5107 29.0052 66.6997 25.0381C69.0699 17.1295 70.8935 12.7253 72.2857 10.5525C72.9893 9.45444 73.5436 8.99023 73.9484 8.8758C74.1361 8.82272 74.2968 8.84326 74.447 8.91951C74.605 8.99972 74.7663 9.14975 74.9259 9.37865C75.2474 9.83954 75.5146 10.5501 75.7306 11.3842C75.945 12.2118 76.1025 13.1345 76.2172 14.0003C76.3317 14.8653 76.4027 15.6686 76.445 16.2559C76.4662 16.5494 76.4802 16.7886 76.4889 16.9541C76.4933 17.0369 76.4963 17.1012 76.4982 17.1447L76.5003 17.194L76.5008 17.2063L76.5009 17.2093C76.5009 17.2094 76.5009 17.2101 76.7875 17.1995L76.5009 17.2093L76.5011 17.2137L76.7884 17.1995C76.5011 17.2137 76.5011 17.2135 76.5011 17.2137L76.5012 17.2154L76.5211 17.6062C76.5343 17.8623 76.554 18.2385 76.5798 18.7187C76.6315 19.6791 76.7079 21.0559 76.8069 22.7214C77.0047 26.0524 77.2924 30.539 77.6521 35.1609C78.0117 39.7822 78.4436 44.5418 78.9298 48.4176C79.1728 50.3552 79.4299 52.0758 79.6991 53.4494C79.966 54.811 80.2508 55.8668 80.5613 56.4488C81.8412 58.8487 83.4963 60.0784 85.2753 60.5402C87.0425 60.9989 88.8909 60.6893 90.5497 60.0938C92.2107 59.4975 93.7068 58.6057 94.7843 57.8668C95.3239 57.4967 95.7607 57.1634 96.0632 56.9222C96.2144 56.8016 96.3322 56.7039 96.4125 56.636C96.4527 56.602 96.4835 56.5755 96.5045 56.5573L96.5285 56.5364L96.5349 56.5308L96.5366 56.5292C96.5368 56.5291 96.5374 56.5285 96.3465 56.3135L96.1555 56.0984L96.1491 56.104L96.1277 56.1227C96.1085 56.1394 96.0795 56.1643 96.0412 56.1966C95.9647 56.2612 95.8512 56.3555 95.7045 56.4725C95.411 56.7065 94.9854 57.0313 94.4589 57.3924C93.4042 58.1157 91.9533 58.9788 90.3554 59.5524C88.7553 60.1268 87.0328 60.4021 85.4199 59.9834C83.8188 59.5678 82.2846 58.4578 81.0688 56.1781C80.804 55.6816 80.5316 54.7061 80.2636 53.3388C79.9981 51.9836 79.7428 50.2776 79.5005 48.346C79.016 44.4835 78.585 39.7343 78.2256 35.1163C77.8663 30.499 77.5788 26.0161 77.3811 22.6873C77.2822 21.023 77.2059 19.6473 77.1542 18.6878C77.1284 18.208 77.1087 17.8323 77.0955 17.5766L77.0759 17.1915L77.0758 17.1885L77.0757 17.1875L77.0757 17.1856Z" fill="#FF1176"/>
<path d="M85.7116 59.1795C85.7116 60.4503 84.6815 61.4805 83.4107 61.4805C82.1399 61.4805 81.1097 60.4503 81.1097 59.1795C81.1097 57.9087 82.1399 56.8786 83.4107 56.8786C84.6815 56.8786 85.7116 57.9087 85.7116 59.1795Z" fill="#FF1176"/>
<path d="M76.5077 9.13372C76.5077 10.4045 75.4775 11.4347 74.2067 11.4347C72.9359 11.4347 71.9058 10.4045 71.9058 9.13372C71.9058 7.86294 72.9359 6.83276 74.2067 6.83276C75.4775 6.83276 76.5077 7.86294 76.5077 9.13372Z" fill="#FF1176"/>
<path d="M60.401 36.1699C60.401 37.4407 59.3708 38.4709 58.1 38.4709C56.8292 38.4709 55.7991 37.4407 55.7991 36.1699C55.7991 34.8991 56.8292 33.869 58.1 33.869C59.3708 33.869 60.401 34.8991 60.401 36.1699Z" fill="#FF1176"/>
<path fill-rule="evenodd" clip-rule="evenodd" d="M45.4862 2.22856L49.1876 6.10052L49.1852 6.10175L56.4838 13.7367L51.6813 16.1091L47.7724 12.0201L39.1748 60.7797C38.8438 62.6569 37.0536 63.9104 35.1764 63.5794L33.8914 63.3528C32.3271 63.0769 31.2826 61.5852 31.5584 60.0208L40.291 10.4956L34.9124 13.1527L31.211 9.2807L45.4862 2.22856Z" fill="#FFA782"/>
<path fill-rule="evenodd" clip-rule="evenodd" d="M45.6722 1.17434L50.6233 6.35358L50.6208 6.35481L57.9196 13.9898L51.4955 17.1634L48.3263 13.8482L40.0246 60.9295C39.6108 63.2761 37.3732 64.8429 35.0267 64.4291L33.7417 64.2025C31.708 63.8439 30.3501 61.9047 30.7087 59.871L39.1454 12.0239L34.7266 14.2069L29.7753 9.02756L45.6722 1.17434ZM47.7521 5.84749L45.3004 3.28281L32.6467 9.53387L35.0983 12.0984L41.4368 8.96719L32.4082 60.1707C32.2151 61.2657 32.9463 62.31 34.0413 62.503L35.3263 62.7296C36.7342 62.9779 38.0768 62.0378 38.3251 60.6299L47.2186 10.1921L51.8673 15.0549L55.0482 13.4835L47.7496 5.84872L47.7521 5.84749Z" fill="#EC7500"/>
<path fill-rule="evenodd" clip-rule="evenodd" d="M0.00087495 20.4662L11.78 12.2183L41.4749 54.627C43.2971 57.2294 42.6647 60.8163 40.0623 62.6385L32.9952 67.5869L0.00087495 20.4662ZM37.2319 62.0898C35.9307 63.0009 34.1373 62.6847 33.2261 61.3835C32.315 60.0823 32.6313 58.2889 33.9325 57.3778C35.2337 56.4666 37.0271 56.7829 37.9382 58.0841C38.8493 59.3853 38.5331 61.1787 37.2319 62.0898Z" fill="#82DAFF"/>
<path fill-rule="evenodd" clip-rule="evenodd" d="M3.29962 25.1787L9.1892 21.0547L8.85925 20.5835L2.96968 24.7075L3.29962 25.1787Z" fill="#00B6E2"/>
<path fill-rule="evenodd" clip-rule="evenodd" d="M5.27978 28.0053L9.99144 24.7062L9.6615 24.235L4.94984 27.5341L5.27978 28.0053Z" fill="#00B6E2"/>
<path fill-rule="evenodd" clip-rule="evenodd" d="M7.26202 30.8325L10.7958 28.3581L10.4658 27.8869L6.93207 30.3613L7.26202 30.8325Z" fill="#00B6E2"/>
<path fill-rule="evenodd" clip-rule="evenodd" d="M9.23901 33.6599L13.9507 30.3608L13.6207 29.8896L8.90907 33.1887L9.23901 33.6599Z" fill="#00B6E2"/>
<path fill-rule="evenodd" clip-rule="evenodd" d="M11.2181 36.4874L17.1077 32.3634L16.7777 31.8922L10.8881 36.0162L11.2181 36.4874Z" fill="#00B6E2"/>
<path fill-rule="evenodd" clip-rule="evenodd" d="M13.1984 39.3146L17.91 36.0154L17.5801 35.5442L12.8684 38.8434L13.1984 39.3146Z" fill="#00B6E2"/>
<path fill-rule="evenodd" clip-rule="evenodd" d="M15.1805 42.1412L18.7142 39.6668L18.3843 39.1956L14.8505 41.67L15.1805 42.1412Z" fill="#00B6E2"/>
<path fill-rule="evenodd" clip-rule="evenodd" d="M17.1575 44.9686L21.8691 41.6695L21.5392 41.1983L16.8275 44.4974L17.1575 44.9686Z" fill="#00B6E2"/>
<path fill-rule="evenodd" clip-rule="evenodd" d="M19.1367 47.7966L25.0262 43.6727L24.6963 43.2015L18.8067 47.3254L19.1367 47.7966Z" fill="#00B6E2"/>
</svg>
