<svg width="66" height="45" viewBox="0 0 66 45" fill="none" xmlns="http://www.w3.org/2000/svg">
<path fill-rule="evenodd" clip-rule="evenodd" d="M54.1519 11.1081L54.1503 11.0689C54.1485 11.0301 54.146 10.9771 54.1426 10.9114C54.1357 10.7803 54.125 10.5973 54.109 10.376C54.0773 9.9371 54.0238 9.32818 53.9355 8.66124C53.8487 8.0058 53.7198 7.22744 53.5239 6.47108C53.3499 5.79931 53.0339 4.7763 52.4099 3.88171C52.0838 3.41411 51.5238 2.76305 50.6393 2.31404C49.6528 1.81322 48.522 1.6997 47.4401 2.00556C45.6599 2.50886 44.614 3.96431 44.0907 4.78108C42.8482 6.72016 41.5229 10.0915 39.9662 15.2855C39.3216 17.4363 38.7198 18.7987 38.2341 19.6144C37.9877 19.31 37.7032 18.9098 37.3893 18.3999C36.2164 16.4948 35.1356 13.8972 34.3207 11.6383C33.923 10.5359 33.6066 9.56488 33.3904 8.87206C33.2825 8.52636 33.2002 8.25185 33.1458 8.06712C33.1186 7.9748 33.0984 7.90506 33.0855 7.86023L33.0718 7.812L33.0692 7.80298L33.0689 7.8019C33.0689 7.8019 33.0689 7.80191 33.0689 7.8019C32.5063 5.79554 30.4239 4.62435 28.4171 5.18627C26.4099 5.74832 25.2384 7.83114 25.8004 9.83836L29.4348 8.82067C25.8004 9.83836 25.8007 9.83917 25.8009 9.84009L25.8035 9.84916L25.8094 9.87022L25.83 9.94224C25.8475 10.0033 25.8726 10.0899 25.9049 10.1998C25.9697 10.4196 26.0637 10.7329 26.1847 11.1207C26.4262 11.8947 26.7776 12.9728 27.2202 14.1997C28.0858 16.5994 29.3752 19.7807 30.9614 22.3572C31.7457 23.6312 32.7328 24.9751 33.9447 25.9926C35.1525 27.0068 37.0333 28.0518 39.3574 27.6707C41.6325 27.2977 43.2334 25.7319 44.3234 24.1044C45.3473 22.5757 46.2217 20.5599 47 18.0929C47.1057 19.7129 47.2311 21.5111 47.3736 23.3431C47.6112 26.3953 47.8996 29.5832 48.229 32.2091C48.3932 33.5177 48.5737 34.7376 48.7728 35.7537C48.941 36.6116 49.2055 37.8046 49.6934 38.7194C50.9326 41.043 52.7721 42.5959 55.0491 43.187C57.1699 43.7375 59.1671 43.3205 60.622 42.7983C62.105 42.2659 63.3682 41.5014 64.2168 40.9194C64.6532 40.6201 65.0094 40.3486 65.2637 40.1459C65.3913 40.044 65.4948 39.9583 65.5714 39.8936C65.5888 39.8789 65.6049 39.8652 65.6196 39.8527C65.6372 39.8376 65.6528 39.8241 65.6663 39.8124L65.6984 39.7845L65.7104 39.7738L65.7155 39.7694L65.7177 39.7674C65.7188 39.7664 65.7198 39.7655 63.2139 36.9433C60.7079 34.1211 60.7089 34.1203 60.7099 34.1194L60.7117 34.1178L60.7148 34.1151L60.7193 34.111C60.7216 34.1091 60.7223 34.1084 60.7215 34.1091C60.7209 34.1097 60.7191 34.1112 60.7163 34.1136C60.7126 34.1168 60.7069 34.1217 60.6994 34.128C60.6731 34.1502 60.6248 34.1904 60.557 34.2445C60.4203 34.3536 60.2107 34.5139 59.9475 34.6943C59.3972 35.0717 58.7268 35.4586 58.0717 35.6938C57.3883 35.9391 57.0426 35.9059 56.9457 35.8807C56.9201 35.8741 56.8863 35.8641 56.8213 35.8097C56.7523 35.7521 56.5956 35.5989 56.3994 35.2505C56.405 35.2451 56.3148 34.9882 56.1803 34.3021C56.0286 33.5278 55.873 32.4995 55.7187 31.2695C55.4112 28.8182 55.1335 25.7672 54.8993 22.7575C54.6658 19.7571 54.4786 16.8391 54.3497 14.6683C54.2853 13.5838 54.2355 12.6879 54.202 12.064C54.1852 11.7521 54.1724 11.5082 54.1639 11.343L54.1519 11.1081ZM37.647 20.4026C37.6469 20.4022 37.6521 20.3977 37.6627 20.3902C37.6523 20.3992 37.647 20.403 37.647 20.4026ZM38.9256 20.309C38.9315 20.3122 38.9345 20.3141 38.9345 20.3142C38.9345 20.3144 38.9316 20.3128 38.9256 20.309Z" fill="#FF82A2"/>
<path fill-rule="evenodd" clip-rule="evenodd" d="M50.5701 11.2711L50.5701 11.2701L50.5698 11.2613L50.5683 11.2276C50.567 11.1981 50.565 11.1548 50.5621 11.0994C50.5563 10.9887 50.5469 10.8293 50.5328 10.634C50.5047 10.2435 50.4574 9.70869 50.381 9.1317C50.3047 8.55527 50.1989 7.93345 50.053 7.37012C49.9082 6.81101 49.7195 6.29175 49.4692 5.93296C49.3434 5.75255 49.1943 5.60148 49.0163 5.5111C48.8332 5.41814 48.6301 5.39513 48.4156 5.45578C48.0058 5.57164 47.5771 5.98582 47.1096 6.71542C46.1649 8.18991 44.9561 11.1255 43.4008 16.3148C42.6257 18.9011 41.828 20.7089 41.0308 21.8991C40.2326 23.0908 39.4518 23.6394 38.7162 23.76C37.983 23.8803 37.2392 23.5842 36.493 22.9577C35.747 22.3313 35.0211 21.3923 34.3361 20.2796C32.9669 18.0555 31.787 15.1807 30.948 12.8549C30.529 11.6934 30.1959 10.6715 29.9677 9.94011C29.8536 9.57445 29.7657 9.28149 29.7064 9.08013C29.6767 8.97944 29.6542 8.90166 29.6392 8.84915L29.6222 8.78961L29.6179 8.77461L29.6166 8.77C29.6166 8.76982 29.6166 8.76975 29.4349 8.82063L29.6166 8.77C29.5885 8.66964 29.4843 8.61081 29.384 8.63891C29.2836 8.66702 29.225 8.77116 29.2531 8.87152L29.4349 8.82063C29.2531 8.87152 29.2531 8.87127 29.2531 8.87152L29.2547 8.87695L29.2591 8.89253L29.2764 8.95325C29.2917 9.00657 29.3144 9.0852 29.3444 9.18676C29.4042 9.38988 29.4927 9.68477 29.6074 10.0525C29.8369 10.788 30.1717 11.8152 30.5929 12.983C31.4345 15.3158 32.6248 18.2198 34.0147 20.4775C34.7092 21.6056 35.46 22.5831 36.2503 23.2467C37.0405 23.9102 37.8925 24.2775 38.7772 24.1325C39.6595 23.9878 40.5184 23.3423 41.3444 22.1091C42.1714 20.8743 42.9822 19.026 43.7623 16.4232C45.3175 11.2343 46.514 8.34463 47.4274 6.91904C47.889 6.19861 48.2527 5.89404 48.5183 5.81896C48.6415 5.78413 48.7469 5.79761 48.8454 5.84764C48.9491 5.90026 49.0549 5.9987 49.1597 6.14888C49.3706 6.45127 49.5459 6.91751 49.6877 7.46475C49.8283 8.00777 49.9317 8.61312 50.0069 9.18122C50.082 9.74875 50.1286 10.2758 50.1564 10.6611C50.1703 10.8537 50.1795 11.0106 50.1852 11.1192C50.188 11.1735 50.19 11.2157 50.1913 11.2443L50.1926 11.2766L50.193 11.2847L50.193 11.2866C50.193 11.2867 50.1931 11.2872 50.3811 11.2802L50.193 11.2866L50.1932 11.2896L50.3816 11.2802C50.1932 11.2896 50.1932 11.2894 50.1932 11.2896L50.1932 11.2906L50.2063 11.5471C50.2149 11.7151 50.2278 11.9619 50.2448 12.277C50.2787 12.9071 50.3289 13.8104 50.3938 14.9032C50.5235 17.0887 50.7123 20.0324 50.9483 23.0649C51.1843 26.0969 51.4676 29.2198 51.7866 31.7627C51.9461 33.034 52.1148 34.1629 52.2914 35.0642C52.4665 35.9575 52.6534 36.6502 52.8571 37.0321C53.6968 38.6066 54.7828 39.4135 55.95 39.7165C57.1095 40.0174 58.3222 39.8143 59.4106 39.4236C60.5004 39.0324 61.482 38.4473 62.1889 37.9624C62.543 37.7196 62.8296 37.5009 63.028 37.3427C63.1273 37.2635 63.2045 37.1994 63.2572 37.1549C63.2836 37.1326 63.3038 37.1152 63.3176 37.1033L63.3334 37.0895L63.3375 37.0859L63.3387 37.0849C63.3388 37.0848 63.3392 37.0844 63.2139 36.9433L63.0886 36.8022L63.0844 36.8059L63.0704 36.8181C63.0577 36.8291 63.0387 36.8454 63.0136 36.8666C62.9635 36.909 62.889 36.9708 62.7927 37.0476C62.6002 37.2012 62.3209 37.4143 61.9755 37.6512C61.2834 38.1258 60.3315 38.692 59.2831 39.0684C58.2333 39.4452 57.1031 39.6259 56.0449 39.3512C54.9944 39.0785 53.9878 38.3502 53.1901 36.8545C53.0163 36.5287 52.8376 35.8887 52.6618 34.9916C52.4875 34.1024 52.3201 32.9831 52.1611 31.7158C51.8432 29.1815 51.5604 26.0655 51.3246 23.0356C51.0889 20.0062 50.9002 17.0649 50.7705 14.8808C50.7057 13.7888 50.6556 12.8862 50.6217 12.2567C50.6047 11.9419 50.5918 11.6954 50.5832 11.5276L50.5703 11.275L50.5702 11.273L50.5702 11.2724L50.5701 11.2711Z" fill="#FF1176"/>
<path d="M56.2363 38.8239C56.2363 39.6577 55.5604 40.3336 54.7266 40.3336C53.8928 40.3336 53.2169 39.6577 53.2169 38.8239C53.2169 37.9901 53.8928 37.3142 54.7266 37.3142C55.5604 37.3142 56.2363 37.9901 56.2363 38.8239Z" fill="#FF1176"/>
<path d="M50.1975 5.98819C50.1975 6.82197 49.5216 7.49787 48.6878 7.49787C47.854 7.49787 47.1781 6.82197 47.1781 5.98819C47.1781 5.15442 47.854 4.47852 48.6878 4.47852C49.5216 4.47852 50.1975 5.15442 50.1975 5.98819Z" fill="#FF1176"/>
<path d="M39.6297 23.727C39.6297 24.5607 38.9538 25.2366 38.12 25.2366C37.2863 25.2366 36.6104 24.5607 36.6104 23.727C36.6104 22.8932 37.2863 22.2173 38.12 22.2173C38.9538 22.2173 39.6297 22.8932 39.6297 23.727Z" fill="#FF1176"/>
<path fill-rule="evenodd" clip-rule="evenodd" d="M29.844 1.45779L32.2725 3.99822L32.2709 3.99902L37.0596 9.00836L33.9086 10.565L31.3439 7.88213L25.703 39.8738C25.4858 41.1054 24.3113 41.9278 23.0796 41.7107L22.2365 41.562C21.2101 41.381 20.5248 40.4023 20.7058 39.3759L26.4354 6.88184L22.9064 8.6252L20.4778 6.08477L29.844 1.45779Z" fill="#FFA782"/>
<path fill-rule="evenodd" clip-rule="evenodd" d="M29.966 0.765974L33.2145 4.16413L33.2129 4.16493L38.0016 9.17434L33.7867 11.2566L31.7074 9.08141L26.2605 39.972C25.9891 41.5115 24.5209 42.5395 22.9814 42.2681L22.1383 42.1194C20.804 41.8841 19.913 40.6118 20.1483 39.2775L25.6837 7.88451L22.7845 9.31677L19.5359 5.91855L29.966 0.765974ZM31.3307 3.83208L29.7221 2.14936L21.4199 6.25074L23.0284 7.93338L27.1871 5.87894L21.2634 39.4741C21.1367 40.1925 21.6164 40.8777 22.3349 41.0044L23.178 41.153C24.1017 41.3159 24.9826 40.6991 25.1455 39.7753L30.9806 6.68262L34.0307 9.87316L36.1177 8.84215L31.329 3.83288L31.3307 3.83208Z" fill="#EC7500"/>
<path fill-rule="evenodd" clip-rule="evenodd" d="M0.000582012 13.4237L7.729 8.01221L27.2121 35.837C28.4077 37.5444 27.9927 39.8978 26.2853 41.0934L21.6485 44.3401L0.000582012 13.4237ZM24.4282 40.7334C23.5745 41.3312 22.3978 41.1237 21.8 40.27C21.2022 39.4162 21.4097 38.2396 22.2634 37.6418C23.1172 37.044 24.2939 37.2515 24.8917 38.1052C25.4894 38.9589 25.282 40.1356 24.4282 40.7334Z" fill="#82DAFF"/>
<path fill-rule="evenodd" clip-rule="evenodd" d="M2.16489 16.5156L6.0291 13.8099L5.81262 13.5007L1.94841 16.2065L2.16489 16.5156Z" fill="#00B6E2"/>
<path fill-rule="evenodd" clip-rule="evenodd" d="M3.4641 18.3702L6.55547 16.2056L6.33899 15.8965L3.24762 18.0611L3.4641 18.3702Z" fill="#00B6E2"/>
<path fill-rule="evenodd" clip-rule="evenodd" d="M4.76465 20.2251L7.08318 18.6016L6.8667 18.2925L4.54817 19.9159L4.76465 20.2251Z" fill="#00B6E2"/>
<path fill-rule="evenodd" clip-rule="evenodd" d="M6.06176 22.0802L9.15312 19.9156L8.93665 19.6064L5.84528 21.771L6.06176 22.0802Z" fill="#00B6E2"/>
<path fill-rule="evenodd" clip-rule="evenodd" d="M7.36032 23.9353L11.2245 21.2296L11.0081 20.9204L7.14385 23.6262L7.36032 23.9353Z" fill="#00B6E2"/>
<path fill-rule="evenodd" clip-rule="evenodd" d="M8.65953 25.7904L11.7509 23.6258L11.5344 23.3167L8.44306 25.4813L8.65953 25.7904Z" fill="#00B6E2"/>
<path fill-rule="evenodd" clip-rule="evenodd" d="M9.96009 27.645L12.2786 26.0216L12.0621 25.7124L9.74361 27.3359L9.96009 27.645Z" fill="#00B6E2"/>
<path fill-rule="evenodd" clip-rule="evenodd" d="M11.2572 29.5001L14.3486 27.3355L14.1321 27.0264L11.0407 29.191L11.2572 29.5001Z" fill="#00B6E2"/>
<path fill-rule="evenodd" clip-rule="evenodd" d="M12.5558 31.3555L16.42 28.6497L16.2035 28.3406L12.3393 31.0463L12.5558 31.3555Z" fill="#00B6E2"/>
</svg>
