<svg width="1920" height="60" viewBox="0 0 1920 60" fill="none" xmlns="http://www.w3.org/2000/svg">
<g clip-path="url(#clip0_1153_6484)">
<rect width="1920" height="59" transform="translate(0 0.587402)" fill="#FFC0CD"/>
<path d="M49.16 17.5874H54.98V38.5874H49.16V30.5474H42.86V38.5874H37.01V17.5874H42.86V25.1774H49.16V17.5874ZM71.0169 22.3874H75.1869V38.5874H70.8669L70.3869 37.4474C69.0669 38.5274 67.3869 39.1274 65.4969 39.1274C60.5469 39.1274 57.0069 35.5274 57.0069 30.4874C57.0069 25.4774 60.5469 21.9074 65.4969 21.9074C67.4169 21.9074 69.1269 22.5374 70.4469 23.6474L71.0169 22.3874ZM66.2469 34.2074C68.3469 34.2074 69.8769 32.6174 69.8769 30.4874C69.8769 28.3874 68.3469 26.8274 66.2469 26.8274C64.1469 26.8274 62.6169 28.3874 62.6169 30.4874C62.6169 32.6174 64.1469 34.2074 66.2469 34.2074ZM94.9684 22.3874H100.368V38.5874H78.1084V22.3874H83.5084V33.7874H86.6884V22.3874H91.7884V33.7874H94.9684V22.3874ZM116.37 22.3874H120.54V38.5874H116.22L115.74 37.4474C114.42 38.5274 112.74 39.1274 110.85 39.1274C105.9 39.1274 102.36 35.5274 102.36 30.4874C102.36 25.4774 105.9 21.9074 110.85 21.9074C112.77 21.9074 114.48 22.5374 115.8 23.6474L116.37 22.3874ZM111.6 34.2074C113.7 34.2074 115.23 32.6174 115.23 30.4874C115.23 28.3874 113.7 26.8274 111.6 26.8274C109.5 26.8274 107.97 28.3874 107.97 30.4874C107.97 32.6174 109.5 34.2074 111.6 34.2074ZM151.205 38.5874H145.955L144.755 30.3674L140.495 38.6474H139.085L134.765 30.3374L133.595 38.5874H128.345L130.835 22.3874H135.725L139.775 30.5774L143.885 22.3874H148.625L151.205 38.5874ZM165.021 22.3874H168.261V38.5874H162.861V31.3274L156.351 38.5874H153.081V22.3874H158.451V29.5874L165.021 22.3874ZM179.183 39.1274C173.993 39.1274 170.243 35.4974 170.243 30.4874C170.243 25.4774 173.963 21.9074 179.213 21.9074C183.773 21.9074 187.163 24.7574 187.793 29.0774H182.333C181.883 27.7574 180.653 26.8874 179.183 26.8874C177.233 26.8874 175.823 28.3874 175.823 30.4874C175.823 32.6174 177.233 34.1474 179.183 34.1474C180.683 34.1474 181.913 33.2174 182.363 31.7774H187.853C187.223 36.1574 183.743 39.1274 179.183 39.1274ZM197.655 39.1274C192.465 39.1274 188.715 35.4974 188.715 30.4874C188.715 25.4774 192.435 21.9074 197.685 21.9074C202.245 21.9074 205.635 24.7574 206.265 29.0774H200.805C200.355 27.7574 199.125 26.8874 197.655 26.8874C195.705 26.8874 194.295 28.3874 194.295 30.4874C194.295 32.6174 195.705 34.1474 197.655 34.1474C199.155 34.1474 200.385 33.2174 200.835 31.7774H206.325C205.695 36.1574 202.215 39.1274 197.655 39.1274ZM220.057 22.3874H223.297V38.5874H217.897V31.3274L211.387 38.5874H208.117V22.3874H213.487V29.5874L220.057 22.3874ZM231.399 22.3874H240.339V38.5874H235.179V33.3974H233.409L230.799 38.5874H224.889L228.399 32.4074C226.719 31.5074 225.699 29.8874 225.699 27.8774C225.699 24.6974 228.069 22.3874 231.399 22.3874ZM232.899 29.6174H235.179V26.3174H232.899C231.759 26.3174 231.129 26.9774 231.129 27.9674C231.129 28.9574 231.759 29.6174 232.899 29.6174Z" fill="#231F20"/>
<rect width="60.0584" height="59.077" transform="matrix(0.868759 -0.495235 0.868759 0.495235 1867.18 30.3304)" fill="#231F20"/>
</g>
<defs>
<clipPath id="clip0_1153_6484">
<rect width="1920" height="59" fill="white" transform="translate(0 0.587402)"/>
</clipPath>
</defs>
</svg>
