<svg width="1920" height="60" viewBox="0 0 1920 60" fill="none" xmlns="http://www.w3.org/2000/svg">
<g clip-path="url(#clip0_1153_6542)">
<rect width="1920" height="59" transform="translate(0 0.587402)" fill="#E0F4FF"/>
<path d="M55.7 38.5874H48.83L42.8 29.3174V38.5874H37.01V17.5874H42.8V26.4674L48.35 17.5874H55.07L48.35 27.7874L55.7 38.5874ZM63.2251 39.1274C57.9451 39.1274 54.1651 35.4974 54.1651 30.4874C54.1651 25.4774 57.9451 21.8774 63.2251 21.8774C68.5051 21.8774 72.3151 25.4774 72.3151 30.4874C72.3151 35.4974 68.5051 39.1274 63.2251 39.1274ZM63.2251 34.1174C65.2651 34.1174 66.7351 32.6474 66.7351 30.5174C66.7351 28.3874 65.2651 26.8874 63.2251 26.8874C61.2151 26.8874 59.7451 28.3574 59.7451 30.5174C59.7451 32.6474 61.2151 34.1174 63.2251 34.1174ZM84.2898 22.3874H89.8698V38.5874H84.2898V32.8874H79.8498V38.5874H74.2998V22.3874H79.8498V27.9674H84.2898V22.3874ZM107.142 22.3874V27.2174H102.072V38.5874H96.582V27.2174H91.482V22.3874H107.142ZM121.541 22.3874H125.711V38.5874H121.391L120.911 37.4474C119.591 38.5274 117.911 39.1274 116.021 39.1274C111.071 39.1274 107.531 35.5274 107.531 30.4874C107.531 25.4774 111.071 21.9074 116.021 21.9074C117.941 21.9074 119.651 22.5374 120.971 23.6474L121.541 22.3874ZM116.771 34.2074C118.871 34.2074 120.401 32.6174 120.401 30.4874C120.401 28.3874 118.871 26.8274 116.771 26.8274C114.671 26.8274 113.141 28.3874 113.141 30.4874C113.141 32.6174 114.671 34.2074 116.771 34.2074ZM144.863 38.5874H138.293L134.213 31.7474V38.5874H128.633V22.3874H134.213V28.7474L138.113 22.3874H144.353L139.283 30.1574L144.863 38.5874ZM160.069 22.3874V27.2174H154.999V38.5874H149.509V27.2174H144.409V22.3874H160.069ZM169.361 26.5574C173.321 26.5574 175.811 28.9874 175.811 32.5874C175.811 36.1574 173.321 38.5874 169.361 38.5874H161.681V22.3874H166.841V26.5574H169.361ZM178.001 22.3874H183.551V38.5874H178.001V22.3874ZM168.761 34.3574C169.901 34.3574 170.621 33.6974 170.621 32.5874C170.621 31.4474 169.901 30.7874 168.761 30.7874H166.841V34.3574H168.761Z" fill="#231F20"/>
<rect width="60.0584" height="59.077" transform="matrix(0.868759 -0.495235 0.868759 0.495235 1867.18 30.3306)" fill="#231F20"/>
</g>
<defs>
<clipPath id="clip0_1153_6542">
<rect width="1920" height="59" fill="white" transform="translate(0 0.587402)"/>
</clipPath>
</defs>
</svg>
