<svg width="1920" height="60" viewBox="0 0 1920 60" fill="none" xmlns="http://www.w3.org/2000/svg">
<g clip-path="url(#clip0_1153_6479)">
<rect width="1920" height="59" transform="translate(0 0.587402)" fill="#FFA782"/>
<path d="M55.7 38.5874H48.83L42.8 29.3174V38.5874H37.01V17.5874H42.8V26.4674L48.35 17.5874H55.07L48.35 27.7874L55.7 38.5874ZM69.3479 22.3874V27.2174H64.2779V38.5874H58.7879V27.2174H53.6879V22.3874H69.3479ZM78.797 39.1274C73.517 39.1274 69.737 35.4974 69.737 30.4874C69.737 25.4774 73.517 21.8774 78.797 21.8774C84.077 21.8774 87.887 25.4774 87.887 30.4874C87.887 35.4974 84.077 39.1274 78.797 39.1274ZM78.797 34.1174C80.837 34.1174 82.307 32.6474 82.307 30.5174C82.307 28.3874 80.837 26.8874 78.797 26.8874C76.787 26.8874 75.317 28.3574 75.317 30.5174C75.317 32.6474 76.787 34.1174 78.797 34.1174ZM117.616 38.5874H112.366L111.166 30.3674L106.906 38.6474H105.496L101.176 30.3374L100.006 38.5874H94.7555L97.2455 22.3874H102.136L106.186 30.5774L110.296 22.3874H115.036L117.616 38.5874ZM127.172 26.5574C131.132 26.5574 133.622 28.9874 133.622 32.5874C133.622 36.1574 131.132 38.5874 127.172 38.5874H119.492V22.3874H124.652V26.5574H127.172ZM135.812 22.3874H141.362V38.5874H135.812V22.3874ZM126.572 34.3574C127.712 34.3574 128.432 33.6974 128.432 32.5874C128.432 31.4474 127.712 30.7874 126.572 30.7874H124.652V34.3574H126.572Z" fill="#231F20"/>
<rect width="60.0584" height="59.077" transform="matrix(0.868759 -0.495235 0.868759 0.495235 1867.18 30.3304)" fill="#231F20"/>
</g>
<defs>
<clipPath id="clip0_1153_6479">
<rect width="1920" height="59" fill="white" transform="translate(0 0.587402)"/>
</clipPath>
</defs>
</svg>
