<svg width="510" height="318" viewBox="0 0 510 318" fill="none" xmlns="http://www.w3.org/2000/svg">
<line x1="107.574" y1="207.871" x2="49.5738" y2="29.871" stroke="#FF1176" stroke-width="3"/>
<line x1="386.704" y1="166.161" x2="301.704" y2="20.161" stroke="#FF1176" stroke-width="3"/>
<line x1="503.857" y1="131.899" x2="283.857" y2="110.899" stroke="#FF1176" stroke-width="3"/>
<line x1="405.01" y1="75.515" x2="270.01" y2="198.515" stroke="#FF1176" stroke-width="3"/>
<path d="M25.0156 32.4062L31.7356 17.7062H33.2686L39.9886 32.4062H38.3506L32.1766 18.6092H32.8066L26.6326 32.4062H25.0156ZM27.6616 28.4792L28.1236 27.2192H36.6706L37.1326 28.4792H27.6616Z" fill="#F1F0F1"/>
<path d="M277.016 24.4062L283.736 9.70625H285.269L291.989 24.4062H290.351L284.177 10.6092H284.807L278.633 24.4062H277.016ZM279.662 20.4792L280.124 19.2192H288.671L289.133 20.4792H279.662Z" fill="#F1F0F1"/>
<path d="M263.978 223.406V208.706H270.32C271.958 208.706 273.225 209.035 274.121 209.693C275.031 210.351 275.486 211.282 275.486 212.486C275.486 213.284 275.297 213.956 274.919 214.502C274.555 215.048 274.051 215.461 273.407 215.741C272.777 216.021 272.084 216.161 271.328 216.161L271.685 215.657C272.623 215.657 273.428 215.804 274.1 216.098C274.786 216.378 275.318 216.805 275.696 217.379C276.074 217.939 276.263 218.639 276.263 219.479C276.263 220.725 275.801 221.691 274.877 222.377C273.967 223.063 272.588 223.406 270.74 223.406H263.978ZM265.532 222.125H270.719C272.007 222.125 272.994 221.908 273.68 221.474C274.366 221.026 274.709 220.319 274.709 219.353C274.709 218.401 274.366 217.708 273.68 217.274C272.994 216.826 272.007 216.602 270.719 216.602H265.364V215.321H270.215C271.391 215.321 272.301 215.097 272.945 214.649C273.603 214.201 273.932 213.536 273.932 212.654C273.932 211.758 273.603 211.093 272.945 210.659C272.301 210.211 271.391 209.987 270.215 209.987H265.532V222.125Z" fill="#F1F0F1"/>
<path d="M503.731 157.532C502.625 157.532 501.603 157.35 500.665 156.986C499.727 156.608 498.915 156.083 498.229 155.411C497.543 154.739 497.004 153.948 496.612 153.038C496.234 152.128 496.045 151.134 496.045 150.056C496.045 148.978 496.234 147.984 496.612 147.074C497.004 146.164 497.543 145.373 498.229 144.701C498.929 144.029 499.748 143.511 500.686 143.147C501.624 142.769 502.646 142.58 503.752 142.58C504.816 142.58 505.817 142.762 506.755 143.126C507.693 143.476 508.484 144.008 509.128 144.722L508.141 145.709C507.539 145.093 506.874 144.652 506.146 144.386C505.418 144.106 504.634 143.966 503.794 143.966C502.912 143.966 502.093 144.12 501.337 144.428C500.581 144.722 499.923 145.149 499.363 145.709C498.803 146.255 498.362 146.899 498.04 147.641C497.732 148.369 497.578 149.174 497.578 150.056C497.578 150.938 497.732 151.75 498.04 152.492C498.362 153.22 498.803 153.864 499.363 154.424C499.923 154.97 500.581 155.397 501.337 155.705C502.093 155.999 502.912 156.146 503.794 156.146C504.634 156.146 505.418 156.006 506.146 155.726C506.874 155.446 507.539 154.998 508.141 154.382L509.128 155.369C508.484 156.083 507.693 156.622 506.755 156.986C505.817 157.35 504.809 157.532 503.731 157.532Z" fill="#F1F0F1"/>
<path d="M101.866 234.406V219.706H103.147L109.867 231.172H109.195L115.852 219.706H117.133V234.406H115.642V222.037H115.999L109.867 232.537H109.132L102.958 222.037H103.357V234.406H101.866Z" fill="#F1F0F1"/>
<path d="M385.854 189.406V174.706H387.135L393.855 186.172H393.183L399.84 174.706H401.121V189.406H399.63V177.037H399.987L393.855 187.537H393.12L386.946 177.037H387.345V189.406H385.854ZM408.977 191.275L408.284 190.561H411.245V191.506H405.281V190.561H408.515L407.822 191.275V183.211L408.326 183.736H405.428V182.791H408.977V191.275Z" fill="#F1F0F1"/>
<path d="M401.854 62.4062V47.7062H403.135L409.855 59.1722H409.183L415.84 47.7062H417.121V62.4062H415.63V50.0372H415.987L409.855 60.5372H409.12L402.946 50.0372H403.345V62.4062H401.854ZM420.525 64.5063V63.7713L424.515 60.2432C425.061 59.7532 425.418 59.3612 425.586 59.0672C425.768 58.7592 425.859 58.4582 425.859 58.1642C425.859 57.7582 425.677 57.4082 425.313 57.1142C424.949 56.8202 424.354 56.6732 423.528 56.6732C422.996 56.6732 422.506 56.7572 422.058 56.9252C421.61 57.0792 421.246 57.3172 420.966 57.6392L420.189 57.0302C420.553 56.5962 421.022 56.2672 421.596 56.0432C422.17 55.8192 422.835 55.7072 423.591 55.7072C424.725 55.7072 425.572 55.9382 426.132 56.4002C426.706 56.8622 426.993 57.4292 426.993 58.1012C426.993 58.5352 426.881 58.9482 426.657 59.3402C426.447 59.7322 426.013 60.2222 425.355 60.8102L421.764 63.9813L421.407 63.5613H427.413V64.5063H420.525Z" fill="#F1F0F1"/>
<path d="M246.854 109.406V94.7062H248.135L254.855 106.172H254.183L260.84 94.7062H262.121V109.406H260.63V97.0372H260.987L254.855 107.537H254.12L247.946 97.0372H248.345V109.406H246.854ZM268.759 111.59C267.989 111.59 267.282 111.485 266.638 111.275C265.994 111.079 265.504 110.813 265.168 110.477L265.651 109.637C265.973 109.917 266.407 110.148 266.953 110.33C267.499 110.526 268.101 110.624 268.759 110.624C269.613 110.624 270.243 110.47 270.649 110.162C271.055 109.868 271.258 109.476 271.258 108.986C271.258 108.482 271.055 108.083 270.649 107.789C270.257 107.495 269.641 107.348 268.801 107.348H267.919V106.571L270.922 103.316L271.09 103.736H265.399V102.791H271.972V103.526L268.99 106.802L268.507 106.487H268.99C270.096 106.487 270.936 106.718 271.51 107.18C272.098 107.642 272.392 108.244 272.392 108.986C272.392 109.462 272.252 109.896 271.972 110.288C271.706 110.694 271.3 111.009 270.754 111.233C270.222 111.471 269.557 111.59 268.759 111.59Z" fill="#F1F0F1"/>
<line x1="61" y1="197.406" x2="61" y2="217.406" stroke="#F1F0F1" stroke-width="2"/>
<line x1="323.946" y1="172.082" x2="330.428" y2="191.003" stroke="#F1F0F1" stroke-width="2"/>
<line x1="435.946" y1="140.082" x2="442.428" y2="159.003" stroke="#F1F0F1" stroke-width="2"/>
<line x1="151" y1="197.406" x2="151" y2="217.406" stroke="#F1F0F1" stroke-width="2"/>
<line x1="268.195" y1="146.425" x2="287.812" y2="150.317" stroke="#F1F0F1" stroke-width="2"/>
<line x1="283.331" y1="61.4254" x2="302.949" y2="65.3169" stroke="#F1F0F1" stroke-width="2"/>
<line x1="350.177" y1="56.3034" x2="361.53" y2="39.8385" stroke="#F1F0F1" stroke-width="2"/>
<line x1="448.177" y1="111.303" x2="459.53" y2="94.8385" stroke="#F1F0F1" stroke-width="2"/>
<line x1="346.177" y1="53.3034" x2="357.53" y2="36.8385" stroke="#F1F0F1" stroke-width="2"/>
<line x1="444.177" y1="108.303" x2="455.53" y2="91.8385" stroke="#F1F0F1" stroke-width="2"/>
<line x1="267.058" y1="151.017" x2="286.676" y2="154.909" stroke="#F1F0F1" stroke-width="2"/>
<line x1="282.195" y1="66.0172" x2="301.812" y2="69.9086" stroke="#F1F0F1" stroke-width="2"/>
<line x1="353.941" y1="59.1686" x2="365.295" y2="42.7037" stroke="#F1F0F1" stroke-width="2"/>
<line x1="451.941" y1="114.169" x2="463.295" y2="97.7037" stroke="#F1F0F1" stroke-width="2"/>
<path d="M16.7667 208.406L49.5544 27.8936L200.584 208.406H16.7667Z" stroke="#F1F0F1" stroke-width="3.5"/>
<path d="M268.894 199.704L301.784 18.6279L505.464 132.378L268.894 199.704Z" stroke="#F1F0F1" stroke-width="3.5"/>
<path d="M27.9209 269.406L34.6409 254.706H36.1739L42.8939 269.406H41.2559L35.0819 255.609H35.7119L29.5379 269.406H27.9209ZM30.5669 265.479L31.0289 264.219H39.5759L40.0379 265.479H30.5669ZM45.3256 269.406V254.706H46.6066L53.3266 266.172H52.6546L59.3116 254.706H60.5926V269.406H59.1016V257.037H59.4586L53.3266 267.537H52.5916L46.4176 257.037H46.8166V269.406H45.3256ZM68.4844 264.24V263.169H89.4844V264.24H68.4844ZM97.1015 269.406V258.381H98.6135L103.611 266.844H102.981L108.063 258.381H109.449V269.406H108.084V260.082L108.357 260.208L103.611 268.062H102.939L98.1515 260.124L98.4665 260.061V269.406H97.1015ZM118.417 269.511C117.269 269.511 116.261 269.273 115.393 268.797C114.525 268.307 113.846 267.642 113.356 266.802C112.866 265.948 112.621 264.975 112.621 263.883C112.621 262.791 112.852 261.825 113.314 260.985C113.79 260.145 114.434 259.487 115.246 259.011C116.072 258.521 116.996 258.276 118.018 258.276C119.054 258.276 119.971 258.514 120.769 258.99C121.581 259.452 122.218 260.11 122.68 260.964C123.142 261.804 123.373 262.777 123.373 263.883C123.373 263.953 123.366 264.03 123.352 264.114C123.352 264.184 123.352 264.261 123.352 264.345H113.755V263.232H122.554L121.966 263.673C121.966 262.875 121.791 262.168 121.441 261.552C121.105 260.922 120.643 260.432 120.055 260.082C119.467 259.732 118.788 259.557 118.018 259.557C117.262 259.557 116.583 259.732 115.981 260.082C115.379 260.432 114.91 260.922 114.574 261.552C114.238 262.182 114.07 262.903 114.07 263.715V263.946C114.07 264.786 114.252 265.528 114.616 266.172C114.994 266.802 115.512 267.299 116.17 267.663C116.842 268.013 117.605 268.188 118.459 268.188C119.131 268.188 119.754 268.069 120.328 267.831C120.916 267.593 121.42 267.229 121.84 266.739L122.68 267.705C122.19 268.293 121.574 268.741 120.832 269.049C120.104 269.357 119.299 269.511 118.417 269.511ZM134.008 268.692V259.683H128.695L128.569 262.14C128.541 262.882 128.492 263.61 128.422 264.324C128.366 265.038 128.261 265.696 128.107 266.298C127.967 266.886 127.764 267.369 127.498 267.747C127.232 268.111 126.889 268.321 126.469 268.377L124.978 268.104C125.412 268.118 125.769 267.964 126.049 267.642C126.329 267.306 126.546 266.851 126.7 266.277C126.854 265.703 126.966 265.052 127.036 264.324C127.106 263.582 127.162 262.826 127.204 262.056L127.351 258.381H135.499V268.692H134.008ZM124.516 272.073V268.104H137.221V272.073H135.814V269.406H125.923V272.073H124.516ZM140.127 269.406V258.381H141.618V267.138L148.989 258.381H150.312V269.406H148.821V260.628L141.471 269.406H140.127ZM161.431 269.406V266.97L161.368 266.571V262.497C161.368 261.559 161.102 260.838 160.57 260.334C160.052 259.83 159.275 259.578 158.239 259.578C157.525 259.578 156.846 259.697 156.202 259.935C155.558 260.173 155.012 260.488 154.564 260.88L153.892 259.767C154.452 259.291 155.124 258.927 155.908 258.675C156.692 258.409 157.518 258.276 158.386 258.276C159.814 258.276 160.913 258.633 161.683 259.347C162.467 260.047 162.859 261.118 162.859 262.56V269.406H161.431ZM157.63 269.511C156.804 269.511 156.083 269.378 155.467 269.112C154.865 268.832 154.403 268.454 154.081 267.978C153.759 267.488 153.598 266.928 153.598 266.298C153.598 265.724 153.731 265.206 153.997 264.744C154.277 264.268 154.725 263.89 155.341 263.61C155.971 263.316 156.811 263.169 157.861 263.169H161.662V264.282H157.903C156.839 264.282 156.097 264.471 155.677 264.849C155.271 265.227 155.068 265.696 155.068 266.256C155.068 266.886 155.313 267.39 155.803 267.768C156.293 268.146 156.979 268.335 157.861 268.335C158.701 268.335 159.422 268.146 160.024 267.768C160.64 267.376 161.088 266.816 161.368 266.088L161.704 267.117C161.424 267.845 160.934 268.426 160.234 268.86C159.548 269.294 158.68 269.511 157.63 269.511ZM166.828 269.406V258.381H168.319V263.253H175.27V258.381H176.761V269.406H175.27V264.534H168.319V269.406H166.828ZM187.845 269.406V266.97L187.782 266.571V262.497C187.782 261.559 187.516 260.838 186.984 260.334C186.466 259.83 185.689 259.578 184.653 259.578C183.939 259.578 183.26 259.697 182.616 259.935C181.972 260.173 181.426 260.488 180.978 260.88L180.306 259.767C180.866 259.291 181.538 258.927 182.322 258.675C183.106 258.409 183.932 258.276 184.8 258.276C186.228 258.276 187.327 258.633 188.097 259.347C188.881 260.047 189.273 261.118 189.273 262.56V269.406H187.845ZM184.044 269.511C183.218 269.511 182.497 269.378 181.881 269.112C181.279 268.832 180.817 268.454 180.495 267.978C180.173 267.488 180.012 266.928 180.012 266.298C180.012 265.724 180.145 265.206 180.411 264.744C180.691 264.268 181.139 263.89 181.755 263.61C182.385 263.316 183.225 263.169 184.275 263.169H188.076V264.282H184.317C183.253 264.282 182.511 264.471 182.091 264.849C181.685 265.227 181.482 265.696 181.482 266.256C181.482 266.886 181.727 267.39 182.217 267.768C182.707 268.146 183.393 268.335 184.275 268.335C185.115 268.335 185.836 268.146 186.438 267.768C187.054 267.376 187.502 266.816 187.782 266.088L188.118 267.117C187.838 267.845 187.348 268.426 186.648 268.86C185.962 269.294 185.094 269.511 184.044 269.511ZM38.9598 301.406V291.284L39.3378 291.683H34.7808V290.381H44.6298V291.683H40.0728L40.4508 291.284V301.406H38.9598ZM52.4766 301.511C51.5246 301.511 50.6636 301.294 49.8936 300.86C49.1236 300.412 48.5076 299.775 48.0456 298.949C47.5976 298.109 47.3736 297.087 47.3736 295.883C47.3736 294.679 47.5976 293.664 48.0456 292.838C48.4936 291.998 49.1026 291.361 49.8726 290.927C50.6426 290.493 51.5106 290.276 52.4766 290.276C53.5266 290.276 54.4646 290.514 55.2906 290.99C56.1306 291.452 56.7886 292.11 57.2646 292.964C57.7406 293.804 57.9786 294.777 57.9786 295.883C57.9786 297.003 57.7406 297.983 57.2646 298.823C56.7886 299.663 56.1306 300.321 55.2906 300.797C54.4646 301.273 53.5266 301.511 52.4766 301.511ZM46.7856 305.48V290.381H48.2136V293.699L48.0666 295.904L48.2766 298.13V305.48H46.7856ZM52.3716 300.188C53.1556 300.188 53.8556 300.013 54.4716 299.663C55.0876 299.299 55.5776 298.795 55.9416 298.151C56.3056 297.493 56.4876 296.737 56.4876 295.883C56.4876 295.029 56.3056 294.28 55.9416 293.636C55.5776 292.992 55.0876 292.488 54.4716 292.124C53.8556 291.76 53.1556 291.578 52.3716 291.578C51.5876 291.578 50.8806 291.76 50.2506 292.124C49.6346 292.488 49.1446 292.992 48.7806 293.636C48.4306 294.28 48.2556 295.029 48.2556 295.883C48.2556 296.737 48.4306 297.493 48.7806 298.151C49.1446 298.795 49.6346 299.299 50.2506 299.663C50.8806 300.013 51.5876 300.188 52.3716 300.188ZM65.907 301.511C64.759 301.511 63.751 301.273 62.883 300.797C62.015 300.307 61.336 299.642 60.846 298.802C60.356 297.948 60.111 296.975 60.111 295.883C60.111 294.791 60.342 293.825 60.804 292.985C61.28 292.145 61.924 291.487 62.736 291.011C63.562 290.521 64.486 290.276 65.508 290.276C66.544 290.276 67.461 290.514 68.259 290.99C69.071 291.452 69.708 292.11 70.17 292.964C70.632 293.804 70.863 294.777 70.863 295.883C70.863 295.953 70.856 296.03 70.842 296.114C70.842 296.184 70.842 296.261 70.842 296.345H61.245V295.232H70.044L69.456 295.673C69.456 294.875 69.281 294.168 68.931 293.552C68.595 292.922 68.133 292.432 67.545 292.082C66.957 291.732 66.278 291.557 65.508 291.557C64.752 291.557 64.073 291.732 63.471 292.082C62.869 292.432 62.4 292.922 62.064 293.552C61.728 294.182 61.56 294.903 61.56 295.715V295.946C61.56 296.786 61.742 297.528 62.106 298.172C62.484 298.802 63.002 299.299 63.66 299.663C64.332 300.013 65.095 300.188 65.949 300.188C66.621 300.188 67.244 300.069 67.818 299.831C68.406 299.593 68.91 299.229 69.33 298.739L70.17 299.705C69.68 300.293 69.064 300.741 68.322 301.049C67.594 301.357 66.789 301.511 65.907 301.511ZM74.1474 305.585C73.6294 305.585 73.1324 305.501 72.6564 305.333C72.1944 305.165 71.7954 304.913 71.4594 304.577L72.1524 303.464C72.4324 303.73 72.7334 303.933 73.0554 304.073C73.3914 304.227 73.7624 304.304 74.1684 304.304C74.6584 304.304 75.0784 304.164 75.4284 303.884C75.7924 303.618 76.1354 303.142 76.4574 302.456L77.1714 300.839L77.3394 300.608L81.8754 290.381H83.3454L77.8224 302.729C77.5144 303.443 77.1714 304.01 76.7934 304.43C76.4294 304.85 76.0304 305.144 75.5964 305.312C75.1624 305.494 74.6794 305.585 74.1474 305.585ZM77.0874 301.721L72.0054 290.381H73.5594L78.0534 300.503L77.0874 301.721ZM85.6684 301.406V290.381H93.4804V291.683H86.7814L87.1594 291.305V301.406H85.6684ZM99.6585 301.511C98.5945 301.511 97.6355 301.273 96.7815 300.797C95.9415 300.307 95.2765 299.642 94.7865 298.802C94.2965 297.948 94.0515 296.975 94.0515 295.883C94.0515 294.777 94.2965 293.804 94.7865 292.964C95.2765 292.124 95.9415 291.466 96.7815 290.99C97.6215 290.514 98.5805 290.276 99.6585 290.276C100.75 290.276 101.716 290.514 102.556 290.99C103.41 291.466 104.075 292.124 104.551 292.964C105.041 293.804 105.286 294.777 105.286 295.883C105.286 296.975 105.041 297.948 104.551 298.802C104.075 299.642 103.41 300.307 102.556 300.797C101.702 301.273 100.736 301.511 99.6585 301.511ZM99.6585 300.188C100.456 300.188 101.163 300.013 101.779 299.663C102.395 299.299 102.878 298.795 103.228 298.151C103.592 297.493 103.774 296.737 103.774 295.883C103.774 295.015 103.592 294.259 103.228 293.615C102.878 292.971 102.395 292.474 101.779 292.124C101.163 291.76 100.463 291.578 99.6795 291.578C98.8955 291.578 98.1955 291.76 97.5795 292.124C96.9635 292.474 96.4735 292.971 96.1095 293.615C95.7455 294.259 95.5635 295.015 95.5635 295.883C95.5635 296.737 95.7455 297.493 96.1095 298.151C96.4735 298.795 96.9635 299.299 97.5795 299.663C98.1955 300.013 98.8885 300.188 99.6585 300.188ZM106.396 301.385L106.501 300.104C106.599 300.118 106.69 300.139 106.774 300.167C106.872 300.181 106.956 300.188 107.026 300.188C107.474 300.188 107.831 300.02 108.097 299.684C108.377 299.348 108.587 298.9 108.727 298.34C108.867 297.78 108.965 297.15 109.021 296.45C109.077 295.736 109.126 295.022 109.168 294.308L109.357 290.381H117.442V301.406H115.951V291.242L116.329 291.683H110.323L110.68 291.221L110.512 294.413C110.47 295.365 110.393 296.275 110.281 297.143C110.183 298.011 110.022 298.774 109.798 299.432C109.588 300.09 109.294 300.608 108.916 300.986C108.538 301.35 108.055 301.532 107.467 301.532C107.299 301.532 107.124 301.518 106.942 301.49C106.774 301.462 106.592 301.427 106.396 301.385ZM126.426 294.266C127.812 294.28 128.862 294.588 129.576 295.19C130.304 295.792 130.668 296.66 130.668 297.794C130.668 298.97 130.276 299.873 129.492 300.503C128.722 301.133 127.602 301.441 126.132 301.427L121.68 301.406V290.381H123.171V294.224L126.426 294.266ZM126.048 300.293C127.07 300.307 127.84 300.104 128.358 299.684C128.89 299.25 129.156 298.62 129.156 297.794C129.156 296.968 128.897 296.366 128.379 295.988C127.861 295.596 127.084 295.393 126.048 295.379L123.171 295.337V300.251L126.048 300.293ZM133.513 301.406V290.381H135.004V295.253H141.955V290.381H143.446V301.406H141.955V296.534H135.004V301.406H133.513ZM147.684 301.406V290.381H149.175V299.138L156.546 290.381H157.869V301.406H156.378V292.628L149.028 301.406H147.684ZM170.227 301.406L165.691 295.946L166.93 295.211L171.991 301.406H170.227ZM162.142 301.406V290.381H163.633V301.406H162.142ZM163.171 296.492V295.211H166.72V296.492H163.171ZM167.056 296.051L165.67 295.841L170.059 290.381H171.676L167.056 296.051ZM180.985 301.406V298.97L180.922 298.571V294.497C180.922 293.559 180.656 292.838 180.124 292.334C179.606 291.83 178.829 291.578 177.793 291.578C177.079 291.578 176.4 291.697 175.756 291.935C175.112 292.173 174.566 292.488 174.118 292.88L173.446 291.767C174.006 291.291 174.678 290.927 175.462 290.675C176.246 290.409 177.072 290.276 177.94 290.276C179.368 290.276 180.467 290.633 181.237 291.347C182.021 292.047 182.413 293.118 182.413 294.56V301.406H180.985ZM177.184 301.511C176.358 301.511 175.637 301.378 175.021 301.112C174.419 300.832 173.957 300.454 173.635 299.978C173.313 299.488 173.152 298.928 173.152 298.298C173.152 297.724 173.285 297.206 173.551 296.744C173.831 296.268 174.279 295.89 174.895 295.61C175.525 295.316 176.365 295.169 177.415 295.169H181.216V296.282H177.457C176.393 296.282 175.651 296.471 175.231 296.849C174.825 297.227 174.622 297.696 174.622 298.256C174.622 298.886 174.867 299.39 175.357 299.768C175.847 300.146 176.533 300.335 177.415 300.335C178.255 300.335 178.976 300.146 179.578 299.768C180.194 299.376 180.642 298.816 180.922 298.088L181.258 299.117C180.978 299.845 180.488 300.426 179.788 300.86C179.102 301.294 178.234 301.511 177.184 301.511Z" fill="#F1F0F1"/>
<path d="M301.738 245.406L308.458 230.706H309.991L316.711 245.406H315.073L308.899 231.609H309.529L303.355 245.406H301.738ZM304.384 241.479L304.846 240.219H313.393L313.855 241.479H304.384ZM319.143 245.406V230.706H320.424L327.144 242.172H326.472L333.129 230.706H334.41V245.406H332.919V233.037H333.276L327.144 243.537H326.409L320.235 233.037H320.634V245.406H319.143ZM342.266 247.275L341.573 246.561H344.534V247.506H338.57V246.561H341.804L341.111 247.275V239.211L341.615 239.736H338.717V238.791H342.266V247.275ZM347.005 248.472L347.929 244.587L348.097 245.49C347.775 245.49 347.502 245.385 347.278 245.175C347.068 244.965 346.963 244.692 346.963 244.356C346.963 244.02 347.068 243.747 347.278 243.537C347.502 243.327 347.768 243.222 348.076 243.222C348.398 243.222 348.657 243.334 348.853 243.558C349.063 243.782 349.168 244.048 349.168 244.356C349.168 244.468 349.161 244.58 349.147 244.692C349.133 244.804 349.105 244.93 349.063 245.07C349.021 245.21 348.965 245.378 348.895 245.574L348.013 248.472H347.005ZM358.169 245.406V230.706H364.511C366.149 230.706 367.416 231.035 368.312 231.693C369.222 232.351 369.677 233.282 369.677 234.486C369.677 235.284 369.488 235.956 369.11 236.502C368.746 237.048 368.242 237.461 367.598 237.741C366.968 238.021 366.275 238.161 365.519 238.161L365.876 237.657C366.814 237.657 367.619 237.804 368.291 238.098C368.977 238.378 369.509 238.805 369.887 239.379C370.265 239.939 370.454 240.639 370.454 241.479C370.454 242.725 369.992 243.691 369.068 244.377C368.158 245.063 366.779 245.406 364.931 245.406H358.169ZM359.723 244.125H364.91C366.198 244.125 367.185 243.908 367.871 243.474C368.557 243.026 368.9 242.319 368.9 241.353C368.9 240.401 368.557 239.708 367.871 239.274C367.185 238.826 366.198 238.602 364.91 238.602H359.555V237.321H364.406C365.582 237.321 366.492 237.097 367.136 236.649C367.794 236.201 368.123 235.536 368.123 234.654C368.123 233.758 367.794 233.093 367.136 232.659C366.492 232.211 365.582 231.987 364.406 231.987H359.723V244.125ZM374.001 245.406V230.706H375.282L382.002 242.172H381.33L387.987 230.706H389.268V245.406H387.777V233.037H388.134L382.002 243.537H381.267L375.093 233.037H375.492V245.406H374.001ZM392.672 247.506V246.771L396.662 243.243C397.208 242.753 397.565 242.361 397.733 242.067C397.915 241.759 398.006 241.458 398.006 241.164C398.006 240.758 397.824 240.408 397.46 240.114C397.096 239.82 396.501 239.673 395.675 239.673C395.143 239.673 394.653 239.757 394.205 239.925C393.757 240.079 393.393 240.317 393.113 240.639L392.336 240.03C392.7 239.596 393.169 239.267 393.743 239.043C394.317 238.819 394.982 238.707 395.738 238.707C396.872 238.707 397.719 238.938 398.279 239.4C398.853 239.862 399.14 240.429 399.14 241.101C399.14 241.535 399.028 241.948 398.804 242.34C398.594 242.732 398.16 243.222 397.502 243.81L393.911 246.981L393.554 246.561H399.56V247.506H392.672ZM401.864 248.472L402.788 244.587L402.956 245.49C402.634 245.49 402.361 245.385 402.137 245.175C401.927 244.965 401.822 244.692 401.822 244.356C401.822 244.02 401.927 243.747 402.137 243.537C402.361 243.327 402.627 243.222 402.935 243.222C403.257 243.222 403.516 243.334 403.712 243.558C403.922 243.782 404.027 244.048 404.027 244.356C404.027 244.468 404.02 244.58 404.006 244.692C403.992 244.804 403.964 244.93 403.922 245.07C403.88 245.21 403.824 245.378 403.754 245.574L402.872 248.472H401.864ZM419.412 245.532C418.306 245.532 417.284 245.35 416.346 244.986C415.408 244.608 414.596 244.083 413.91 243.411C413.224 242.739 412.685 241.948 412.293 241.038C411.915 240.128 411.726 239.134 411.726 238.056C411.726 236.978 411.915 235.984 412.293 235.074C412.685 234.164 413.224 233.373 413.91 232.701C414.61 232.029 415.429 231.511 416.367 231.147C417.305 230.769 418.327 230.58 419.433 230.58C420.497 230.58 421.498 230.762 422.436 231.126C423.374 231.476 424.165 232.008 424.809 232.722L423.822 233.709C423.22 233.093 422.555 232.652 421.827 232.386C421.099 232.106 420.315 231.966 419.475 231.966C418.593 231.966 417.774 232.12 417.018 232.428C416.262 232.722 415.604 233.149 415.044 233.709C414.484 234.255 414.043 234.899 413.721 235.641C413.413 236.369 413.259 237.174 413.259 238.056C413.259 238.938 413.413 239.75 413.721 240.492C414.043 241.22 414.484 241.864 415.044 242.424C415.604 242.97 416.262 243.397 417.018 243.705C417.774 243.999 418.593 244.146 419.475 244.146C420.315 244.146 421.099 244.006 421.827 243.726C422.555 243.446 423.22 242.998 423.822 242.382L424.809 243.369C424.165 244.083 423.374 244.622 422.436 244.986C421.498 245.35 420.49 245.532 419.412 245.532ZM428.122 245.406V230.706H429.403L436.123 242.172H435.451L442.108 230.706H443.389V245.406H441.898V233.037H442.255L436.123 243.537H435.388L429.214 233.037H429.613V245.406H428.122ZM450.026 247.59C449.256 247.59 448.549 247.485 447.905 247.275C447.261 247.079 446.771 246.813 446.435 246.477L446.918 245.637C447.24 245.917 447.674 246.148 448.22 246.33C448.766 246.526 449.368 246.624 450.026 246.624C450.88 246.624 451.51 246.47 451.916 246.162C452.322 245.868 452.525 245.476 452.525 244.986C452.525 244.482 452.322 244.083 451.916 243.789C451.524 243.495 450.908 243.348 450.068 243.348H449.186V242.571L452.189 239.316L452.357 239.736H446.666V238.791H453.239V239.526L450.257 242.802L449.774 242.487H450.257C451.363 242.487 452.203 242.718 452.777 243.18C453.365 243.642 453.659 244.244 453.659 244.986C453.659 245.462 453.519 245.896 453.239 246.288C452.973 246.694 452.567 247.009 452.021 247.233C451.489 247.471 450.824 247.59 450.026 247.59ZM460.304 240.24V239.169H481.304V240.24H460.304ZM343.428 277.406V266.381H344.94L349.938 274.844H349.308L354.39 266.381H355.776V277.406H354.411V268.082L354.684 268.208L349.938 276.062H349.266L344.478 268.124L344.793 268.061V277.406H343.428ZM364.744 277.511C363.596 277.511 362.588 277.273 361.72 276.797C360.852 276.307 360.173 275.642 359.683 274.802C359.193 273.948 358.948 272.975 358.948 271.883C358.948 270.791 359.179 269.825 359.641 268.985C360.117 268.145 360.761 267.487 361.573 267.011C362.399 266.521 363.323 266.276 364.345 266.276C365.381 266.276 366.298 266.514 367.096 266.99C367.908 267.452 368.545 268.11 369.007 268.964C369.469 269.804 369.7 270.777 369.7 271.883C369.7 271.953 369.693 272.03 369.679 272.114C369.679 272.184 369.679 272.261 369.679 272.345H360.082V271.232H368.881L368.293 271.673C368.293 270.875 368.118 270.168 367.768 269.552C367.432 268.922 366.97 268.432 366.382 268.082C365.794 267.732 365.115 267.557 364.345 267.557C363.589 267.557 362.91 267.732 362.308 268.082C361.706 268.432 361.237 268.922 360.901 269.552C360.565 270.182 360.397 270.903 360.397 271.715V271.946C360.397 272.786 360.579 273.528 360.943 274.172C361.321 274.802 361.839 275.299 362.497 275.663C363.169 276.013 363.932 276.188 364.786 276.188C365.458 276.188 366.081 276.069 366.655 275.831C367.243 275.593 367.747 275.229 368.167 274.739L369.007 275.705C368.517 276.293 367.901 276.741 367.159 277.049C366.431 277.357 365.626 277.511 364.744 277.511ZM380.335 276.692V267.683H375.022L374.896 270.14C374.868 270.882 374.819 271.61 374.749 272.324C374.693 273.038 374.588 273.696 374.434 274.298C374.294 274.886 374.091 275.369 373.825 275.747C373.559 276.111 373.216 276.321 372.796 276.377L371.305 276.104C371.739 276.118 372.096 275.964 372.376 275.642C372.656 275.306 372.873 274.851 373.027 274.277C373.181 273.703 373.293 273.052 373.363 272.324C373.433 271.582 373.489 270.826 373.531 270.056L373.678 266.381H381.826V276.692H380.335ZM370.843 280.073V276.104H383.548V280.073H382.141V277.406H372.25V280.073H370.843ZM386.454 277.406V266.381H387.945V275.138L395.316 266.381H396.639V277.406H395.148V268.628L387.798 277.406H386.454ZM407.758 277.406V274.97L407.695 274.571V270.497C407.695 269.559 407.429 268.838 406.897 268.334C406.379 267.83 405.602 267.578 404.566 267.578C403.852 267.578 403.173 267.697 402.529 267.935C401.885 268.173 401.339 268.488 400.891 268.88L400.219 267.767C400.779 267.291 401.451 266.927 402.235 266.675C403.019 266.409 403.845 266.276 404.713 266.276C406.141 266.276 407.24 266.633 408.01 267.347C408.794 268.047 409.186 269.118 409.186 270.56V277.406H407.758ZM403.957 277.511C403.131 277.511 402.41 277.378 401.794 277.112C401.192 276.832 400.73 276.454 400.408 275.978C400.086 275.488 399.925 274.928 399.925 274.298C399.925 273.724 400.058 273.206 400.324 272.744C400.604 272.268 401.052 271.89 401.668 271.61C402.298 271.316 403.138 271.169 404.188 271.169H407.989V272.282H404.23C403.166 272.282 402.424 272.471 402.004 272.849C401.598 273.227 401.395 273.696 401.395 274.256C401.395 274.886 401.64 275.39 402.13 275.768C402.62 276.146 403.306 276.335 404.188 276.335C405.028 276.335 405.749 276.146 406.351 275.768C406.967 275.376 407.415 274.816 407.695 274.088L408.031 275.117C407.751 275.845 407.261 276.426 406.561 276.86C405.875 277.294 405.007 277.511 403.957 277.511ZM413.155 277.406V266.381H414.646V271.253H421.597V266.381H423.088V277.406H421.597V272.534H414.646V277.406H413.155ZM438.078 277.406V266.381H439.569V277.406H438.078ZM431.967 270.266C433.353 270.28 434.41 270.588 435.138 271.19C435.866 271.792 436.23 272.66 436.23 273.794C436.23 274.97 435.838 275.873 435.054 276.503C434.27 277.133 433.15 277.441 431.694 277.427L427.326 277.406V266.381H428.817V270.224L431.967 270.266ZM431.589 276.293C432.625 276.307 433.402 276.104 433.92 275.684C434.452 275.25 434.718 274.62 434.718 273.794C434.718 272.968 434.459 272.366 433.941 271.988C433.423 271.596 432.639 271.393 431.589 271.379L428.817 271.337V276.251L431.589 276.293ZM295.222 309.406V299.284L295.6 299.683H291.043V298.381H300.892V299.683H296.335L296.713 299.284V309.406H295.222ZM308.739 309.511C307.787 309.511 306.926 309.294 306.156 308.86C305.386 308.412 304.77 307.775 304.308 306.949C303.86 306.109 303.636 305.087 303.636 303.883C303.636 302.679 303.86 301.664 304.308 300.838C304.756 299.998 305.365 299.361 306.135 298.927C306.905 298.493 307.773 298.276 308.739 298.276C309.789 298.276 310.727 298.514 311.553 298.99C312.393 299.452 313.051 300.11 313.527 300.964C314.003 301.804 314.241 302.777 314.241 303.883C314.241 305.003 314.003 305.983 313.527 306.823C313.051 307.663 312.393 308.321 311.553 308.797C310.727 309.273 309.789 309.511 308.739 309.511ZM303.048 313.48V298.381H304.476V301.699L304.329 303.904L304.539 306.13V313.48H303.048ZM308.634 308.188C309.418 308.188 310.118 308.013 310.734 307.663C311.35 307.299 311.84 306.795 312.204 306.151C312.568 305.493 312.75 304.737 312.75 303.883C312.75 303.029 312.568 302.28 312.204 301.636C311.84 300.992 311.35 300.488 310.734 300.124C310.118 299.76 309.418 299.578 308.634 299.578C307.85 299.578 307.143 299.76 306.513 300.124C305.897 300.488 305.407 300.992 305.043 301.636C304.693 302.28 304.518 303.029 304.518 303.883C304.518 304.737 304.693 305.493 305.043 306.151C305.407 306.795 305.897 307.299 306.513 307.663C307.143 308.013 307.85 308.188 308.634 308.188ZM322.17 309.511C321.022 309.511 320.014 309.273 319.146 308.797C318.278 308.307 317.599 307.642 317.109 306.802C316.619 305.948 316.374 304.975 316.374 303.883C316.374 302.791 316.605 301.825 317.067 300.985C317.543 300.145 318.187 299.487 318.999 299.011C319.825 298.521 320.749 298.276 321.771 298.276C322.807 298.276 323.724 298.514 324.522 298.99C325.334 299.452 325.971 300.11 326.433 300.964C326.895 301.804 327.126 302.777 327.126 303.883C327.126 303.953 327.119 304.03 327.105 304.114C327.105 304.184 327.105 304.261 327.105 304.345H317.508V303.232H326.307L325.719 303.673C325.719 302.875 325.544 302.168 325.194 301.552C324.858 300.922 324.396 300.432 323.808 300.082C323.22 299.732 322.541 299.557 321.771 299.557C321.015 299.557 320.336 299.732 319.734 300.082C319.132 300.432 318.663 300.922 318.327 301.552C317.991 302.182 317.823 302.903 317.823 303.715V303.946C317.823 304.786 318.005 305.528 318.369 306.172C318.747 306.802 319.265 307.299 319.923 307.663C320.595 308.013 321.358 308.188 322.212 308.188C322.884 308.188 323.507 308.069 324.081 307.831C324.669 307.593 325.173 307.229 325.593 306.739L326.433 307.705C325.943 308.293 325.327 308.741 324.585 309.049C323.857 309.357 323.052 309.511 322.17 309.511ZM330.41 313.585C329.892 313.585 329.395 313.501 328.919 313.333C328.457 313.165 328.058 312.913 327.722 312.577L328.415 311.464C328.695 311.73 328.996 311.933 329.318 312.073C329.654 312.227 330.025 312.304 330.431 312.304C330.921 312.304 331.341 312.164 331.691 311.884C332.055 311.618 332.398 311.142 332.72 310.456L333.434 308.839L333.602 308.608L338.138 298.381H339.608L334.085 310.729C333.777 311.443 333.434 312.01 333.056 312.43C332.692 312.85 332.293 313.144 331.859 313.312C331.425 313.494 330.942 313.585 330.41 313.585ZM333.35 309.721L328.268 298.381H329.822L334.316 308.503L333.35 309.721ZM341.931 309.406V298.381H349.743V299.683H343.044L343.422 299.305V309.406H341.931ZM355.921 309.511C354.857 309.511 353.898 309.273 353.044 308.797C352.204 308.307 351.539 307.642 351.049 306.802C350.559 305.948 350.314 304.975 350.314 303.883C350.314 302.777 350.559 301.804 351.049 300.964C351.539 300.124 352.204 299.466 353.044 298.99C353.884 298.514 354.843 298.276 355.921 298.276C357.013 298.276 357.979 298.514 358.819 298.99C359.673 299.466 360.338 300.124 360.814 300.964C361.304 301.804 361.549 302.777 361.549 303.883C361.549 304.975 361.304 305.948 360.814 306.802C360.338 307.642 359.673 308.307 358.819 308.797C357.965 309.273 356.999 309.511 355.921 309.511ZM355.921 308.188C356.719 308.188 357.426 308.013 358.042 307.663C358.658 307.299 359.141 306.795 359.491 306.151C359.855 305.493 360.037 304.737 360.037 303.883C360.037 303.015 359.855 302.259 359.491 301.615C359.141 300.971 358.658 300.474 358.042 300.124C357.426 299.76 356.726 299.578 355.942 299.578C355.158 299.578 354.458 299.76 353.842 300.124C353.226 300.474 352.736 300.971 352.372 301.615C352.008 302.259 351.826 303.015 351.826 303.883C351.826 304.737 352.008 305.493 352.372 306.151C352.736 306.795 353.226 307.299 353.842 307.663C354.458 308.013 355.151 308.188 355.921 308.188ZM362.658 309.385L362.763 308.104C362.861 308.118 362.952 308.139 363.036 308.167C363.134 308.181 363.218 308.188 363.288 308.188C363.736 308.188 364.093 308.02 364.359 307.684C364.639 307.348 364.849 306.9 364.989 306.34C365.129 305.78 365.227 305.15 365.283 304.45C365.339 303.736 365.388 303.022 365.43 302.308L365.619 298.381H373.704V309.406H372.213V299.242L372.591 299.683H366.585L366.942 299.221L366.774 302.413C366.732 303.365 366.655 304.275 366.543 305.143C366.445 306.011 366.284 306.774 366.06 307.432C365.85 308.09 365.556 308.608 365.178 308.986C364.8 309.35 364.317 309.532 363.729 309.532C363.561 309.532 363.386 309.518 363.204 309.49C363.036 309.462 362.854 309.427 362.658 309.385ZM382.689 302.266C384.075 302.28 385.125 302.588 385.839 303.19C386.567 303.792 386.931 304.66 386.931 305.794C386.931 306.97 386.539 307.873 385.755 308.503C384.985 309.133 383.865 309.441 382.395 309.427L377.943 309.406V298.381H379.434V302.224L382.689 302.266ZM382.311 308.293C383.333 308.307 384.103 308.104 384.621 307.684C385.153 307.25 385.419 306.62 385.419 305.794C385.419 304.968 385.16 304.366 384.642 303.988C384.124 303.596 383.347 303.393 382.311 303.379L379.434 303.337V308.251L382.311 308.293ZM389.776 309.406V298.381H391.267V303.253H398.218V298.381H399.709V309.406H398.218V304.534H391.267V309.406H389.776ZM403.947 309.406V298.381H405.438V307.138L412.809 298.381H414.132V309.406H412.641V300.628L405.291 309.406H403.947ZM426.49 309.406L421.954 303.946L423.193 303.211L428.254 309.406H426.49ZM418.405 309.406V298.381H419.896V309.406H418.405ZM419.434 304.492V303.211H422.983V304.492H419.434ZM423.319 304.051L421.933 303.841L426.322 298.381H427.939L423.319 304.051ZM437.248 309.406V306.97L437.185 306.571V302.497C437.185 301.559 436.919 300.838 436.387 300.334C435.869 299.83 435.092 299.578 434.056 299.578C433.342 299.578 432.663 299.697 432.019 299.935C431.375 300.173 430.829 300.488 430.381 300.88L429.709 299.767C430.269 299.291 430.941 298.927 431.725 298.675C432.509 298.409 433.335 298.276 434.203 298.276C435.631 298.276 436.73 298.633 437.5 299.347C438.284 300.047 438.676 301.118 438.676 302.56V309.406H437.248ZM433.447 309.511C432.621 309.511 431.9 309.378 431.284 309.112C430.682 308.832 430.22 308.454 429.898 307.978C429.576 307.488 429.415 306.928 429.415 306.298C429.415 305.724 429.548 305.206 429.814 304.744C430.094 304.268 430.542 303.89 431.158 303.61C431.788 303.316 432.628 303.169 433.678 303.169H437.479V304.282H433.72C432.656 304.282 431.914 304.471 431.494 304.849C431.088 305.227 430.885 305.696 430.885 306.256C430.885 306.886 431.13 307.39 431.62 307.768C432.11 308.146 432.796 308.335 433.678 308.335C434.518 308.335 435.239 308.146 435.841 307.768C436.457 307.376 436.905 306.816 437.185 306.088L437.521 307.117C437.241 307.845 436.751 308.426 436.051 308.86C435.365 309.294 434.497 309.511 433.447 309.511ZM446.062 309.406L452.782 294.706H454.315L461.035 309.406H459.397L453.223 295.609H453.853L447.679 309.406H446.062ZM448.708 305.479L449.17 304.219H457.717L458.179 305.479H448.708ZM463.467 309.406V294.706H469.809C471.447 294.706 472.714 295.035 473.61 295.693C474.52 296.351 474.975 297.282 474.975 298.486C474.975 299.284 474.786 299.956 474.408 300.502C474.044 301.048 473.54 301.461 472.896 301.741C472.266 302.021 471.573 302.161 470.817 302.161L471.174 301.657C472.112 301.657 472.917 301.804 473.589 302.098C474.275 302.378 474.807 302.805 475.185 303.379C475.563 303.939 475.752 304.639 475.752 305.479C475.752 306.725 475.29 307.691 474.366 308.377C473.456 309.063 472.077 309.406 470.229 309.406H463.467ZM465.021 308.125H470.208C471.496 308.125 472.483 307.908 473.169 307.474C473.855 307.026 474.198 306.319 474.198 305.353C474.198 304.401 473.855 303.708 473.169 303.274C472.483 302.826 471.496 302.602 470.208 302.602H464.853V301.321H469.704C470.88 301.321 471.79 301.097 472.434 300.649C473.092 300.201 473.421 299.536 473.421 298.654C473.421 297.758 473.092 297.093 472.434 296.659C471.79 296.211 470.88 295.987 469.704 295.987H465.021V308.125ZM485.683 309.532C484.577 309.532 483.555 309.35 482.617 308.986C481.679 308.608 480.867 308.083 480.181 307.411C479.495 306.739 478.956 305.948 478.564 305.038C478.186 304.128 477.997 303.134 477.997 302.056C477.997 300.978 478.186 299.984 478.564 299.074C478.956 298.164 479.495 297.373 480.181 296.701C480.881 296.029 481.7 295.511 482.638 295.147C483.576 294.769 484.598 294.58 485.704 294.58C486.768 294.58 487.769 294.762 488.707 295.126C489.645 295.476 490.436 296.008 491.08 296.722L490.093 297.709C489.491 297.093 488.826 296.652 488.098 296.386C487.37 296.106 486.586 295.966 485.746 295.966C484.864 295.966 484.045 296.12 483.289 296.428C482.533 296.722 481.875 297.149 481.315 297.709C480.755 298.255 480.314 298.899 479.992 299.641C479.684 300.369 479.53 301.174 479.53 302.056C479.53 302.938 479.684 303.75 479.992 304.492C480.314 305.22 480.755 305.864 481.315 306.424C481.875 306.97 482.533 307.397 483.289 307.705C484.045 307.999 484.864 308.146 485.746 308.146C486.586 308.146 487.37 308.006 488.098 307.726C488.826 307.446 489.491 306.998 490.093 306.382L491.08 307.369C490.436 308.083 489.645 308.622 488.707 308.986C487.769 309.35 486.761 309.532 485.683 309.532Z" fill="#F1F0F1"/>
</svg>
