<svg width="1112" height="256" viewBox="0 0 1112 256" fill="none" xmlns="http://www.w3.org/2000/svg">
<path d="M232.516 24.4062L239.236 9.70625H240.769L247.489 24.4062H245.851L239.677 10.6092H240.307L234.133 24.4062H232.516ZM235.162 20.4792L235.624 19.2192H244.171L244.633 20.4792H235.162Z" fill="#F1F0F1"/>
<path d="M614.516 24.4062L621.236 9.70625H622.769L629.489 24.4062H627.851L621.677 10.6092H622.307L616.133 24.4062H614.516ZM617.162 20.4792L617.624 19.2192H626.171L626.633 20.4792H617.162Z" fill="#F1F0F1"/>
<path d="M250.866 223.406V208.706H252.147L258.867 220.172H258.195L264.852 208.706H266.133V223.406H264.642V211.037H264.999L258.867 221.537H258.132L251.958 211.037H252.357V223.406H250.866Z" fill="#F1F0F1"/>
<path d="M632.866 223.406V208.706H634.147L640.867 220.172H640.195L646.852 208.706H648.133V223.406H646.642V211.037H646.999L640.867 221.537H640.132L633.958 211.037H634.357V223.406H632.866Z" fill="#F1F0F1"/>
<path d="M627.604 115.706H629.137V130.406H627.604V115.706ZM618.406 130.406H616.852V115.706H618.406V130.406ZM627.751 123.623H618.238V122.258H627.751V123.623Z" fill="#F1F0F1"/>
<path d="M583.86 130.406V116.336L584.532 117.05H580.395V115.706H585.372V130.406H583.86Z" fill="#F1F0F1"/>
<path d="M578.851 168.406V167.335L584.962 161.35C585.522 160.804 585.942 160.328 586.222 159.922C586.502 159.502 586.691 159.11 586.789 158.746C586.887 158.382 586.936 158.039 586.936 157.717C586.936 156.863 586.642 156.191 586.054 155.701C585.48 155.211 584.626 154.966 583.492 154.966C582.624 154.966 581.854 155.099 581.182 155.365C580.524 155.631 579.957 156.044 579.481 156.604L578.41 155.68C578.984 155.008 579.719 154.49 580.615 154.126C581.511 153.762 582.512 153.58 583.618 153.58C584.612 153.58 585.473 153.741 586.201 154.063C586.929 154.371 587.489 154.826 587.881 155.428C588.287 156.03 588.49 156.737 588.49 157.549C588.49 158.025 588.42 158.494 588.28 158.956C588.154 159.418 587.916 159.908 587.566 160.426C587.23 160.93 586.733 161.504 586.075 162.148L580.468 167.65L580.048 167.062H589.162V168.406H578.851Z" fill="#F1F0F1"/>
<path d="M575.504 247.406L582.224 232.706H583.757L590.477 247.406H588.839L582.665 233.609H583.295L577.121 247.406H575.504ZM578.15 243.479L578.612 242.219H587.159L587.621 243.479H578.15ZM595.975 249.275L595.282 248.561H598.243V249.506H592.279V248.561H595.513L594.82 249.275V241.211L595.324 241.736H592.426V240.791H595.975V249.275Z" fill="#F1F0F1"/>
<path d="M334.231 124.532C333.125 124.532 332.103 124.35 331.165 123.986C330.227 123.608 329.415 123.083 328.729 122.411C328.043 121.739 327.504 120.948 327.112 120.038C326.734 119.128 326.545 118.134 326.545 117.056C326.545 115.978 326.734 114.984 327.112 114.074C327.504 113.164 328.043 112.373 328.729 111.701C329.429 111.029 330.248 110.511 331.186 110.147C332.124 109.769 333.146 109.58 334.252 109.58C335.316 109.58 336.317 109.762 337.255 110.126C338.193 110.476 338.984 111.008 339.628 111.722L338.641 112.709C338.039 112.093 337.374 111.652 336.646 111.386C335.918 111.106 335.134 110.966 334.294 110.966C333.412 110.966 332.593 111.12 331.837 111.428C331.081 111.722 330.423 112.149 329.863 112.709C329.303 113.255 328.862 113.899 328.54 114.641C328.232 115.369 328.078 116.174 328.078 117.056C328.078 117.938 328.232 118.75 328.54 119.492C328.862 120.22 329.303 120.864 329.863 121.424C330.423 121.97 331.081 122.397 331.837 122.705C332.593 122.999 333.412 123.146 334.294 123.146C335.134 123.146 335.918 123.006 336.646 122.726C337.374 122.446 338.039 121.998 338.641 121.382L339.628 122.369C338.984 123.083 338.193 123.622 337.255 123.986C336.317 124.35 335.309 124.532 334.231 124.532Z" fill="#F1F0F1"/>
<path d="M716.231 124.532C715.125 124.532 714.103 124.35 713.165 123.986C712.227 123.608 711.415 123.083 710.729 122.411C710.043 121.739 709.504 120.948 709.112 120.038C708.734 119.128 708.545 118.134 708.545 117.056C708.545 115.978 708.734 114.984 709.112 114.074C709.504 113.164 710.043 112.373 710.729 111.701C711.429 111.029 712.248 110.511 713.186 110.147C714.124 109.769 715.146 109.58 716.252 109.58C717.316 109.58 718.317 109.762 719.255 110.126C720.193 110.476 720.984 111.008 721.628 111.722L720.641 112.709C720.039 112.093 719.374 111.652 718.646 111.386C717.918 111.106 717.134 110.966 716.294 110.966C715.412 110.966 714.593 111.12 713.837 111.428C713.081 111.722 712.423 112.149 711.863 112.709C711.303 113.255 710.862 113.899 710.54 114.641C710.232 115.369 710.078 116.174 710.078 117.056C710.078 117.938 710.232 118.75 710.54 119.492C710.862 120.22 711.303 120.864 711.863 121.424C712.423 121.97 713.081 122.397 713.837 122.705C714.593 122.999 715.412 123.146 716.294 123.146C717.134 123.146 717.918 123.006 718.646 122.726C719.374 122.446 720.039 121.998 720.641 121.382L721.628 122.369C720.984 123.083 720.193 123.622 719.255 123.986C718.317 124.35 717.309 124.532 716.231 124.532Z" fill="#F1F0F1"/>
<path d="M66.478 164.406V149.706H72.82C74.458 149.706 75.725 150.035 76.621 150.693C77.531 151.351 77.986 152.282 77.986 153.486C77.986 154.284 77.797 154.956 77.419 155.502C77.055 156.048 76.551 156.461 75.907 156.741C75.277 157.021 74.584 157.161 73.828 157.161L74.185 156.657C75.123 156.657 75.928 156.804 76.6 157.098C77.286 157.378 77.818 157.805 78.196 158.379C78.574 158.939 78.763 159.639 78.763 160.479C78.763 161.725 78.301 162.691 77.377 163.377C76.467 164.063 75.088 164.406 73.24 164.406H66.478ZM68.032 163.125H73.219C74.507 163.125 75.494 162.908 76.18 162.474C76.866 162.026 77.209 161.319 77.209 160.353C77.209 159.401 76.866 158.708 76.18 158.274C75.494 157.826 74.507 157.602 73.219 157.602H67.864V156.321H72.715C73.891 156.321 74.801 156.097 75.445 155.649C76.103 155.201 76.432 154.536 76.432 153.654C76.432 152.758 76.103 152.093 75.445 151.659C74.801 151.211 73.891 150.987 72.715 150.987H68.032V163.125Z" fill="#F1F0F1"/>
<path d="M448.478 164.406V149.706H454.82C456.458 149.706 457.725 150.035 458.621 150.693C459.531 151.351 459.986 152.282 459.986 153.486C459.986 154.284 459.797 154.956 459.419 155.502C459.055 156.048 458.551 156.461 457.907 156.741C457.277 157.021 456.584 157.161 455.828 157.161L456.185 156.657C457.123 156.657 457.928 156.804 458.6 157.098C459.286 157.378 459.818 157.805 460.196 158.379C460.574 158.939 460.763 159.639 460.763 160.479C460.763 161.725 460.301 162.691 459.377 163.377C458.467 164.063 457.088 164.406 455.24 164.406H448.478ZM450.032 163.125H455.219C456.507 163.125 457.494 162.908 458.18 162.474C458.866 162.026 459.209 161.319 459.209 160.353C459.209 159.401 458.866 158.708 458.18 158.274C457.494 157.826 456.507 157.602 455.219 157.602H449.864V156.321H454.715C455.891 156.321 456.801 156.097 457.445 155.649C458.103 155.201 458.432 154.536 458.432 153.654C458.432 152.758 458.103 152.093 457.445 151.659C456.801 151.211 455.891 150.987 454.715 150.987H450.032V163.125Z" fill="#F1F0F1"/>
<line y1="138.656" x2="350" y2="138.656" stroke="#F1F0F1" stroke-width="3.5"/>
<line x1="382" y1="138.656" x2="732" y2="138.656" stroke="#F1F0F1" stroke-width="3.5"/>
<line x1="71.25" y1="138.646" x2="257.512" y2="31.1079" stroke="#F1F0F1" stroke-width="3"/>
<line x1="453.25" y1="138.646" x2="639.512" y2="31.1079" stroke="#F1F0F1" stroke-width="3"/>
<line y1="-1.5" x2="215.077" y2="-1.5" transform="matrix(0.866025 0.5 0.5 -0.866025 72 136.406)" stroke="#F1F0F1" stroke-width="3"/>
<line y1="-1.5" x2="215.077" y2="-1.5" transform="matrix(0.866025 0.5 0.5 -0.866025 454 136.406)" stroke="#F1F0F1" stroke-width="3"/>
<circle cx="223.481" cy="50.8873" r="5.38903" transform="rotate(0.986761 223.481 50.8873)" fill="#FF1176"/>
<circle cx="605.481" cy="50.8873" r="5.38903" transform="rotate(0.986761 605.481 50.8873)" fill="#FF1176"/>
<path d="M104.516 139.618C106.507 135.192 100.202 124.822 95.0002 123.964" stroke="#F1F0F1" stroke-width="2"/>
<path d="M486.516 139.618C488.507 135.192 482.202 124.822 477 123.964" stroke="#F1F0F1" stroke-width="2"/>
<path d="M114.369 139.406C116.231 144.043 109.362 155.342 104 156.463" stroke="#F1F0F1" stroke-width="2"/>
<path d="M496.369 139.406C498.231 144.043 491.362 155.342 486 156.463" stroke="#F1F0F1" stroke-width="2"/>
<line x1="605.5" y1="225.406" x2="605.5" y2="50.4062" stroke="#F1F0F1" stroke-width="3"/>
<line x1="605.5" y1="50.4062" x2="605.5" y2="138.406" stroke="#FF1176" stroke-width="3"/>
<circle cx="605.481" cy="138.887" r="5.38903" transform="rotate(0.986761 605.481 138.887)" fill="#FF1176"/>
<circle cx="605.481" cy="225.887" r="5.38903" transform="rotate(0.986761 605.481 225.887)" fill="#F1F0F1"/>
<line x1="595" y1="93.4062" x2="615" y2="93.4062" stroke="#F1F0F1" stroke-width="2"/>
<line x1="595" y1="182.406" x2="615" y2="182.406" stroke="#F1F0F1" stroke-width="2"/>
<path fill-rule="evenodd" clip-rule="evenodd" d="M604 129.58C598.665 129.704 594.334 134.021 594.241 139.405C594.147 144.905 598.51 149.444 604 149.574V148.574C599.07 148.444 595.156 144.364 595.241 139.422C595.324 134.585 599.21 130.704 604 130.58V129.58Z" fill="#F1F0F1"/>
<path fill-rule="evenodd" clip-rule="evenodd" d="M604 127.406C597.447 127.505 592.114 132.352 592 138.405L592 138.406H593C593.11 132.983 597.919 128.502 604 128.406V127.406Z" fill="#F1F0F1"/>
<path fill-rule="evenodd" clip-rule="evenodd" d="M604.866 146.28C604.828 146.28 604.789 146.28 604.751 146.279C600.996 146.214 597.997 143.148 598 139.406H597C596.996 143.692 600.432 147.205 604.734 147.279C604.778 147.28 604.822 147.28 604.866 147.28V146.28Z" fill="#F1F0F1"/>
<rect x="977" y="191.406" width="24" height="24" stroke="#F1F0F1" stroke-width="2"/>
<path fill-rule="evenodd" clip-rule="evenodd" d="M885.087 216.342L886.016 214.654L893.294 201.423L894.258 199.671L892.506 198.707L882.804 193.37L881.052 192.406L881 192.501L881.542 195.664L881.84 195.123L891.542 200.459L884.545 213.179L885.087 216.342Z" fill="#F1F0F1"/>
<path d="M1017.52 58.4062L1024.24 43.7062H1025.77L1032.49 58.4062H1030.85L1024.68 44.6092H1025.31L1019.13 58.4062H1017.52ZM1020.16 54.4792L1020.62 53.2192H1029.17L1029.63 54.4792H1020.16Z" fill="#F1F0F1"/>
<path d="M1030.6 225.706H1032.14V240.406H1030.6V225.706ZM1021.41 240.406H1019.85V225.706H1021.41V240.406ZM1030.75 233.623H1021.24V232.258H1030.75V233.623Z" fill="#F1F0F1"/>
<path d="M882.593 225.706H884.126V240.406H882.593V225.706ZM873.395 240.406H871.841V225.706H873.395V240.406ZM882.74 233.623H873.227V232.258H882.74V233.623ZM891.99 242.275L891.297 241.561H894.258V242.506H888.294V241.561H891.528L890.835 242.275V234.211L891.339 234.736H888.441V233.791H891.99V242.275Z" fill="#F1F0F1"/>
<path d="M1096.23 200.532C1095.13 200.532 1094.1 200.35 1093.17 199.986C1092.23 199.608 1091.42 199.083 1090.73 198.411C1090.04 197.739 1089.5 196.948 1089.11 196.038C1088.73 195.128 1088.55 194.134 1088.55 193.056C1088.55 191.978 1088.73 190.984 1089.11 190.074C1089.5 189.164 1090.04 188.373 1090.73 187.701C1091.43 187.029 1092.25 186.511 1093.19 186.147C1094.12 185.769 1095.15 185.58 1096.25 185.58C1097.32 185.58 1098.32 185.762 1099.26 186.126C1100.19 186.476 1100.98 187.008 1101.63 187.722L1100.64 188.709C1100.04 188.093 1099.37 187.652 1098.65 187.386C1097.92 187.106 1097.13 186.966 1096.29 186.966C1095.41 186.966 1094.59 187.12 1093.84 187.428C1093.08 187.722 1092.42 188.149 1091.86 188.709C1091.3 189.255 1090.86 189.899 1090.54 190.641C1090.23 191.369 1090.08 192.174 1090.08 193.056C1090.08 193.938 1090.23 194.75 1090.54 195.492C1090.86 196.22 1091.3 196.864 1091.86 197.424C1092.42 197.97 1093.08 198.397 1093.84 198.705C1094.59 198.999 1095.41 199.146 1096.29 199.146C1097.13 199.146 1097.92 199.006 1098.65 198.726C1099.37 198.446 1100.04 197.998 1100.64 197.382L1101.63 198.369C1100.98 199.083 1100.19 199.622 1099.26 199.986C1098.32 200.35 1097.31 200.532 1096.23 200.532Z" fill="#F1F0F1"/>
<path d="M773.478 200.406V185.706H779.82C781.458 185.706 782.725 186.035 783.621 186.693C784.531 187.351 784.986 188.282 784.986 189.486C784.986 190.284 784.797 190.956 784.419 191.502C784.055 192.048 783.551 192.461 782.907 192.741C782.277 193.021 781.584 193.161 780.828 193.161L781.185 192.657C782.123 192.657 782.928 192.804 783.6 193.098C784.286 193.378 784.818 193.805 785.196 194.379C785.574 194.939 785.763 195.639 785.763 196.479C785.763 197.725 785.301 198.691 784.377 199.377C783.467 200.063 782.088 200.406 780.24 200.406H773.478ZM775.032 199.125H780.219C781.507 199.125 782.494 198.908 783.18 198.474C783.866 198.026 784.209 197.319 784.209 196.353C784.209 195.401 783.866 194.708 783.18 194.274C782.494 193.826 781.507 193.602 780.219 193.602H774.864V192.321H779.715C780.891 192.321 781.801 192.097 782.445 191.649C783.103 191.201 783.432 190.536 783.432 189.654C783.432 188.758 783.103 188.093 782.445 187.659C781.801 187.211 780.891 186.987 779.715 186.987H775.032V199.125Z" fill="#F1F0F1"/>
<line x1="762" y1="214.656" x2="1112" y2="214.656" stroke="#F1F0F1" stroke-width="3.5"/>
<line x1="1001.5" y1="255.406" x2="1001.5" y2="0.40625" stroke="#F1F0F1" stroke-width="3"/>
<line x1="841.851" y1="241.202" x2="1017.86" y2="31.4421" stroke="#F1F0F1" stroke-width="3"/>
<line x1="1001.5" y1="50.4062" x2="1001.5" y2="213.406" stroke="#FF1176" stroke-width="3"/>
<circle cx="1001.48" cy="50.8873" r="5.38903" transform="rotate(0.986761 1001.48 50.8873)" fill="#FF1176"/>
<circle cx="1001.48" cy="213.887" r="5.38903" transform="rotate(0.986761 1001.48 213.887)" fill="#FF1176"/>
</svg>
