<svg width="350" height="416" viewBox="0 0 350 416" fill="none" xmlns="http://www.w3.org/2000/svg">
<rect x="149" y="287.282" width="24" height="24" stroke="#F1F0F1" stroke-width="2"/>
<path d="M106.482 375.533C105.376 375.533 104.347 375.351 103.395 374.987C102.457 374.609 101.638 374.084 100.938 373.412C100.252 372.726 99.7126 371.935 99.3206 371.039C98.9426 370.129 98.7536 369.135 98.7536 368.057C98.7536 366.979 98.9426 365.992 99.3206 365.096C99.7126 364.186 100.252 363.395 100.938 362.723C101.638 362.037 102.457 361.512 103.395 361.148C104.333 360.77 105.362 360.581 106.482 360.581C107.588 360.581 108.61 360.77 109.548 361.148C110.486 361.512 111.298 362.03 111.984 362.702C112.684 363.374 113.223 364.165 113.601 365.075C113.993 365.985 114.189 366.979 114.189 368.057C114.189 369.135 113.993 370.129 113.601 371.039C113.223 371.949 112.684 372.74 111.984 373.412C111.298 374.084 110.486 374.609 109.548 374.987C108.61 375.351 107.588 375.533 106.482 375.533ZM106.482 374.147C107.364 374.147 108.176 374 108.918 373.706C109.674 373.398 110.325 372.971 110.871 372.425C111.431 371.865 111.865 371.221 112.173 370.493C112.481 369.751 112.635 368.939 112.635 368.057C112.635 367.175 112.481 366.37 112.173 365.642C111.865 364.9 111.431 364.256 110.871 363.71C110.325 363.15 109.674 362.723 108.918 362.429C108.176 362.121 107.364 361.967 106.482 361.967C105.6 361.967 104.781 362.121 104.025 362.429C103.269 362.723 102.611 363.15 102.051 363.71C101.505 364.256 101.071 364.9 100.749 365.642C100.441 366.37 100.287 367.175 100.287 368.057C100.287 368.925 100.441 369.73 100.749 370.472C101.071 371.214 101.505 371.865 102.051 372.425C102.611 372.971 103.269 373.398 104.025 373.706C104.781 374 105.6 374.147 106.482 374.147ZM119.332 375.407V365.285L119.71 365.684H115.153V364.382H125.002V365.684H120.445L120.823 365.285V375.407H119.332ZM132.849 375.512C131.897 375.512 131.036 375.295 130.266 374.861C129.496 374.413 128.88 373.776 128.418 372.95C127.97 372.11 127.746 371.088 127.746 369.884C127.746 368.68 127.97 367.665 128.418 366.839C128.866 365.999 129.475 365.362 130.245 364.928C131.015 364.494 131.883 364.277 132.849 364.277C133.899 364.277 134.837 364.515 135.663 364.991C136.503 365.453 137.161 366.111 137.637 366.965C138.113 367.805 138.351 368.778 138.351 369.884C138.351 371.004 138.113 371.984 137.637 372.824C137.161 373.664 136.503 374.322 135.663 374.798C134.837 375.274 133.899 375.512 132.849 375.512ZM127.158 379.481V364.382H128.586V367.7L128.439 369.905L128.649 372.131V379.481H127.158ZM132.744 374.189C133.528 374.189 134.228 374.014 134.844 373.664C135.46 373.3 135.95 372.796 136.314 372.152C136.678 371.494 136.86 370.738 136.86 369.884C136.86 369.03 136.678 368.281 136.314 367.637C135.95 366.993 135.46 366.489 134.844 366.125C134.228 365.761 133.528 365.579 132.744 365.579C131.96 365.579 131.253 365.761 130.623 366.125C130.007 366.489 129.517 366.993 129.153 367.637C128.803 368.281 128.628 369.03 128.628 369.884C128.628 370.738 128.803 371.494 129.153 372.152C129.517 372.796 130.007 373.3 130.623 373.664C131.253 374.014 131.96 374.189 132.744 374.189ZM146.28 375.512C145.132 375.512 144.124 375.274 143.256 374.798C142.388 374.308 141.709 373.643 141.219 372.803C140.729 371.949 140.484 370.976 140.484 369.884C140.484 368.792 140.715 367.826 141.177 366.986C141.653 366.146 142.297 365.488 143.109 365.012C143.935 364.522 144.859 364.277 145.881 364.277C146.917 364.277 147.834 364.515 148.632 364.991C149.444 365.453 150.081 366.111 150.543 366.965C151.005 367.805 151.236 368.778 151.236 369.884C151.236 369.954 151.229 370.031 151.215 370.115C151.215 370.185 151.215 370.262 151.215 370.346H141.618V369.233H150.417L149.829 369.674C149.829 368.876 149.654 368.169 149.304 367.553C148.968 366.923 148.506 366.433 147.918 366.083C147.33 365.733 146.651 365.558 145.881 365.558C145.125 365.558 144.446 365.733 143.844 366.083C143.242 366.433 142.773 366.923 142.437 367.553C142.101 368.183 141.933 368.904 141.933 369.716V369.947C141.933 370.787 142.115 371.529 142.479 372.173C142.857 372.803 143.375 373.3 144.033 373.664C144.705 374.014 145.468 374.189 146.322 374.189C146.994 374.189 147.617 374.07 148.191 373.832C148.779 373.594 149.283 373.23 149.703 372.74L150.543 373.706C150.053 374.294 149.437 374.742 148.695 375.05C147.967 375.358 147.162 375.512 146.28 375.512ZM157.189 375.533C156.391 375.533 155.6 375.421 154.816 375.197C154.032 374.973 153.339 374.63 152.737 374.168L153.22 373.055C153.752 373.447 154.368 373.748 155.068 373.958C155.768 374.154 156.461 374.252 157.147 374.252C157.833 374.238 158.428 374.14 158.932 373.958C159.436 373.776 159.828 373.524 160.108 373.202C160.388 372.88 160.528 372.516 160.528 372.11C160.528 371.522 160.262 371.067 159.73 370.745C159.198 370.409 158.47 370.241 157.546 370.241H155.656V369.149H157.441C157.987 369.149 158.47 369.079 158.89 368.939C159.31 368.799 159.632 368.596 159.856 368.33C160.094 368.064 160.213 367.749 160.213 367.385C160.213 366.993 160.073 366.657 159.793 366.377C159.527 366.097 159.156 365.887 158.68 365.747C158.204 365.607 157.665 365.537 157.063 365.537C156.517 365.551 155.95 365.635 155.362 365.789C154.774 365.929 154.193 366.146 153.619 366.44L153.199 365.285C153.843 364.949 154.48 364.697 155.11 364.529C155.754 364.347 156.398 364.256 157.042 364.256C157.924 364.228 158.715 364.333 159.415 364.571C160.129 364.809 160.696 365.152 161.116 365.6C161.536 366.034 161.746 366.559 161.746 367.175C161.746 367.721 161.578 368.197 161.242 368.603C160.906 369.009 160.458 369.324 159.898 369.548C159.338 369.772 158.701 369.884 157.987 369.884L158.05 369.485C159.31 369.485 160.29 369.73 160.99 370.22C161.704 370.71 162.061 371.375 162.061 372.215C162.061 372.873 161.844 373.454 161.41 373.958C160.976 374.448 160.388 374.833 159.646 375.113C158.918 375.393 158.099 375.533 157.189 375.533ZM169.982 375.512C168.918 375.512 167.959 375.274 167.105 374.798C166.265 374.308 165.6 373.643 165.11 372.803C164.62 371.949 164.375 370.976 164.375 369.884C164.375 368.778 164.62 367.805 165.11 366.965C165.6 366.125 166.265 365.467 167.105 364.991C167.945 364.515 168.904 364.277 169.982 364.277C171.074 364.277 172.04 364.515 172.88 364.991C173.734 365.467 174.399 366.125 174.875 366.965C175.365 367.805 175.61 368.778 175.61 369.884C175.61 370.976 175.365 371.949 174.875 372.803C174.399 373.643 173.734 374.308 172.88 374.798C172.026 375.274 171.06 375.512 169.982 375.512ZM169.982 374.189C170.78 374.189 171.487 374.014 172.103 373.664C172.719 373.3 173.202 372.796 173.552 372.152C173.916 371.494 174.098 370.738 174.098 369.884C174.098 369.016 173.916 368.26 173.552 367.616C173.202 366.972 172.719 366.475 172.103 366.125C171.487 365.761 170.787 365.579 170.003 365.579C169.219 365.579 168.519 365.761 167.903 366.125C167.287 366.475 166.797 366.972 166.433 367.616C166.069 368.26 165.887 369.016 165.887 369.884C165.887 370.738 166.069 371.494 166.433 372.152C166.797 372.796 167.287 373.3 167.903 373.664C168.519 374.014 169.212 374.189 169.982 374.189ZM186.882 375.407L182.346 369.947L183.585 369.212L188.646 375.407H186.882ZM178.797 375.407V364.382H180.288V375.407H178.797ZM179.826 370.493V369.212H183.375V370.493H179.826ZM183.711 370.052L182.325 369.842L186.714 364.382H188.331L183.711 370.052ZM194.416 375.407L201.136 360.707H202.669L209.389 375.407H207.751L201.577 361.61H202.207L196.033 375.407H194.416ZM197.062 371.48L197.524 370.22H206.071L206.533 371.48H197.062ZM222.573 360.707H224.106V375.407H222.573V360.707ZM213.375 375.407H211.821V360.707H213.375V375.407ZM222.72 368.624H213.207V367.259H222.72V368.624ZM232.006 370.241V369.17H253.006V370.241H232.006ZM27.1313 407.407V396.382H37.0433V407.407H35.5523V397.285L35.9303 397.684H28.2443L28.6223 397.285V407.407H27.1313ZM46.0066 407.512C44.8586 407.512 43.8506 407.274 42.9826 406.798C42.1146 406.308 41.4356 405.643 40.9456 404.803C40.4556 403.949 40.2106 402.976 40.2106 401.884C40.2106 400.792 40.4416 399.826 40.9036 398.986C41.3796 398.146 42.0236 397.488 42.8356 397.012C43.6616 396.522 44.5856 396.277 45.6076 396.277C46.6436 396.277 47.5606 396.515 48.3586 396.991C49.1706 397.453 49.8076 398.111 50.2696 398.965C50.7316 399.805 50.9626 400.778 50.9626 401.884C50.9626 401.954 50.9556 402.031 50.9416 402.115C50.9416 402.185 50.9416 402.262 50.9416 402.346H41.3446V401.233H50.1436L49.5556 401.674C49.5556 400.876 49.3806 400.169 49.0306 399.553C48.6946 398.923 48.2326 398.433 47.6446 398.083C47.0566 397.733 46.3776 397.558 45.6076 397.558C44.8516 397.558 44.1726 397.733 43.5706 398.083C42.9686 398.433 42.4996 398.923 42.1636 399.553C41.8276 400.183 41.6596 400.904 41.6596 401.716V401.947C41.6596 402.787 41.8416 403.529 42.2056 404.173C42.5836 404.803 43.1016 405.3 43.7596 405.664C44.4316 406.014 45.1946 406.189 46.0486 406.189C46.7206 406.189 47.3436 406.07 47.9176 405.832C48.5056 405.594 49.0096 405.23 49.4296 404.74L50.2696 405.706C49.7796 406.294 49.1636 406.742 48.4216 407.05C47.6936 407.358 46.8886 407.512 46.0066 407.512ZM59.9541 407.512C59.0021 407.512 58.1411 407.295 57.3711 406.861C56.6011 406.413 55.9851 405.776 55.5231 404.95C55.0751 404.11 54.8511 403.088 54.8511 401.884C54.8511 400.68 55.0751 399.665 55.5231 398.839C55.9711 397.999 56.5801 397.362 57.3501 396.928C58.1201 396.494 58.9881 396.277 59.9541 396.277C61.0041 396.277 61.9421 396.515 62.7681 396.991C63.6081 397.453 64.2661 398.111 64.7421 398.965C65.2181 399.805 65.4561 400.778 65.4561 401.884C65.4561 403.004 65.2181 403.984 64.7421 404.824C64.2661 405.664 63.6081 406.322 62.7681 406.798C61.9421 407.274 61.0041 407.512 59.9541 407.512ZM54.2631 411.481V396.382H55.6911V399.7L55.5441 401.905L55.7541 404.131V411.481H54.2631ZM59.8491 406.189C60.6331 406.189 61.3331 406.014 61.9491 405.664C62.5651 405.3 63.0551 404.796 63.4191 404.152C63.7831 403.494 63.9651 402.738 63.9651 401.884C63.9651 401.03 63.7831 400.281 63.4191 399.637C63.0551 398.993 62.5651 398.489 61.9491 398.125C61.3331 397.761 60.6331 397.579 59.8491 397.579C59.0651 397.579 58.3581 397.761 57.7281 398.125C57.1121 398.489 56.6221 398.993 56.2581 399.637C55.9081 400.281 55.7331 401.03 55.7331 401.884C55.7331 402.738 55.9081 403.494 56.2581 404.152C56.6221 404.796 57.1121 405.3 57.7281 405.664C58.3581 406.014 59.0651 406.189 59.8491 406.189ZM68.6596 407.407V396.382H78.5716V407.407H77.0806V397.285L77.4586 397.684H69.7726L70.1506 397.285V407.407H68.6596ZM87.535 407.512C86.387 407.512 85.379 407.274 84.511 406.798C83.643 406.308 82.964 405.643 82.474 404.803C81.984 403.949 81.739 402.976 81.739 401.884C81.739 400.792 81.97 399.826 82.432 398.986C82.908 398.146 83.552 397.488 84.364 397.012C85.19 396.522 86.114 396.277 87.136 396.277C88.172 396.277 89.089 396.515 89.887 396.991C90.699 397.453 91.336 398.111 91.798 398.965C92.26 399.805 92.491 400.778 92.491 401.884C92.491 401.954 92.484 402.031 92.47 402.115C92.47 402.185 92.47 402.262 92.47 402.346H82.873V401.233H91.672L91.084 401.674C91.084 400.876 90.909 400.169 90.559 399.553C90.223 398.923 89.761 398.433 89.173 398.083C88.585 397.733 87.906 397.558 87.136 397.558C86.38 397.558 85.701 397.733 85.099 398.083C84.497 398.433 84.028 398.923 83.692 399.553C83.356 400.183 83.188 400.904 83.188 401.716V401.947C83.188 402.787 83.37 403.529 83.734 404.173C84.112 404.803 84.63 405.3 85.288 405.664C85.96 406.014 86.723 406.189 87.577 406.189C88.249 406.189 88.872 406.07 89.446 405.832C90.034 405.594 90.538 405.23 90.958 404.74L91.798 405.706C91.308 406.294 90.692 406.742 89.95 407.05C89.222 407.358 88.417 407.512 87.535 407.512ZM95.7914 407.407V396.382H97.2824V401.254H104.233V396.382H105.724V407.407H104.233V402.535H97.2824V407.407H95.7914ZM117.522 406.693V397.684H112.209L112.083 400.141C112.055 400.883 112.006 401.611 111.936 402.325C111.88 403.039 111.775 403.697 111.621 404.299C111.481 404.887 111.278 405.37 111.012 405.748C110.746 406.112 110.403 406.322 109.983 406.378L108.492 406.105C108.926 406.119 109.283 405.965 109.563 405.643C109.843 405.307 110.06 404.852 110.214 404.278C110.368 403.704 110.48 403.053 110.55 402.325C110.62 401.583 110.676 400.827 110.718 400.057L110.865 396.382H119.013V406.693H117.522ZM108.03 410.074V406.105H120.735V410.074H119.328V407.407H109.437V410.074H108.03ZM123.641 407.407V396.382H125.132V405.139L132.503 396.382H133.826V407.407H132.335V398.629L124.985 407.407H123.641ZM146.184 407.407L141.648 401.947L142.887 401.212L147.948 407.407H146.184ZM138.099 407.407V396.382H139.59V407.407H138.099ZM139.128 402.493V401.212H142.677V402.493H139.128ZM143.013 402.052L141.627 401.842L146.016 396.382H147.633L143.013 402.052ZM149.854 411.586C149.336 411.586 148.839 411.502 148.363 411.334C147.901 411.166 147.502 410.914 147.166 410.578L147.859 409.465C148.139 409.731 148.44 409.934 148.762 410.074C149.098 410.228 149.469 410.305 149.875 410.305C150.365 410.305 150.785 410.165 151.135 409.885C151.499 409.619 151.842 409.143 152.164 408.457L152.878 406.84L153.046 406.609L157.582 396.382H159.052L153.529 408.73C153.221 409.444 152.878 410.011 152.5 410.431C152.136 410.851 151.737 411.145 151.303 411.313C150.869 411.495 150.386 411.586 149.854 411.586ZM152.794 407.722L147.712 396.382H149.266L153.76 406.504L152.794 407.722ZM158.888 407.386L158.993 406.105C159.091 406.119 159.182 406.14 159.266 406.168C159.364 406.182 159.448 406.189 159.518 406.189C159.966 406.189 160.323 406.021 160.589 405.685C160.869 405.349 161.079 404.901 161.219 404.341C161.359 403.781 161.457 403.151 161.513 402.451C161.569 401.737 161.618 401.023 161.66 400.309L161.849 396.382H169.934V407.407H168.443V397.243L168.821 397.684H162.815L163.172 397.222L163.004 400.414C162.962 401.366 162.885 402.276 162.773 403.144C162.675 404.012 162.514 404.775 162.29 405.433C162.08 406.091 161.786 406.609 161.408 406.987C161.03 407.351 160.547 407.533 159.959 407.533C159.791 407.533 159.616 407.519 159.434 407.491C159.266 407.463 159.084 407.428 158.888 407.386ZM181.291 407.407V403.438L181.564 403.753H177.826C176.412 403.753 175.306 403.445 174.508 402.829C173.71 402.213 173.311 401.317 173.311 400.141C173.311 398.881 173.738 397.943 174.592 397.327C175.446 396.697 176.587 396.382 178.015 396.382H182.656V407.407H181.291ZM173.227 407.407L176.251 403.165H177.805L174.844 407.407H173.227ZM181.291 402.997V397.243L181.564 397.684H178.057C177.035 397.684 176.237 397.88 175.663 398.272C175.103 398.664 174.823 399.301 174.823 400.183C174.823 401.821 175.866 402.64 177.952 402.64H181.564L181.291 402.997ZM192.599 407.512C191.647 407.512 190.786 407.295 190.016 406.861C189.246 406.413 188.63 405.776 188.168 404.95C187.72 404.11 187.496 403.088 187.496 401.884C187.496 400.68 187.72 399.665 188.168 398.839C188.616 397.999 189.225 397.362 189.995 396.928C190.765 396.494 191.633 396.277 192.599 396.277C193.649 396.277 194.587 396.515 195.413 396.991C196.253 397.453 196.911 398.111 197.387 398.965C197.863 399.805 198.101 400.778 198.101 401.884C198.101 403.004 197.863 403.984 197.387 404.824C196.911 405.664 196.253 406.322 195.413 406.798C194.587 407.274 193.649 407.512 192.599 407.512ZM186.908 411.481V396.382H188.336V399.7L188.189 401.905L188.399 404.131V411.481H186.908ZM192.494 406.189C193.278 406.189 193.978 406.014 194.594 405.664C195.21 405.3 195.7 404.796 196.064 404.152C196.428 403.494 196.61 402.738 196.61 401.884C196.61 401.03 196.428 400.281 196.064 399.637C195.7 398.993 195.21 398.489 194.594 398.125C193.978 397.761 193.278 397.579 192.494 397.579C191.71 397.579 191.003 397.761 190.373 398.125C189.757 398.489 189.267 398.993 188.903 399.637C188.553 400.281 188.378 401.03 188.378 401.884C188.378 402.738 188.553 403.494 188.903 404.152C189.267 404.796 189.757 405.3 190.373 405.664C191.003 406.014 191.71 406.189 192.494 406.189ZM214.885 407.407L210.349 401.947L211.588 401.212L216.649 407.407H214.885ZM206.8 407.407V396.382H208.291V407.407H206.8ZM207.829 402.493V401.212H211.378V402.493H207.829ZM211.714 402.052L210.328 401.842L214.717 396.382H216.334L211.714 402.052ZM224.498 407.407V396.382H234.41V407.407H232.919V397.285L233.297 397.684H225.611L225.989 397.285V407.407H224.498ZM244.34 407.512C243.388 407.512 242.527 407.295 241.757 406.861C240.987 406.413 240.371 405.776 239.909 404.95C239.461 404.11 239.237 403.088 239.237 401.884C239.237 400.68 239.461 399.665 239.909 398.839C240.357 397.999 240.966 397.362 241.736 396.928C242.506 396.494 243.374 396.277 244.34 396.277C245.39 396.277 246.328 396.515 247.154 396.991C247.994 397.453 248.652 398.111 249.128 398.965C249.604 399.805 249.842 400.778 249.842 401.884C249.842 403.004 249.604 403.984 249.128 404.824C248.652 405.664 247.994 406.322 247.154 406.798C246.328 407.274 245.39 407.512 244.34 407.512ZM238.649 411.481V396.382H240.077V399.7L239.93 401.905L240.14 404.131V411.481H238.649ZM244.235 406.189C245.019 406.189 245.719 406.014 246.335 405.664C246.951 405.3 247.441 404.796 247.805 404.152C248.169 403.494 248.351 402.738 248.351 401.884C248.351 401.03 248.169 400.281 247.805 399.637C247.441 398.993 246.951 398.489 246.335 398.125C245.719 397.761 245.019 397.579 244.235 397.579C243.451 397.579 242.744 397.761 242.114 398.125C241.498 398.489 241.008 398.993 240.644 399.637C240.294 400.281 240.119 401.03 240.119 401.884C240.119 402.738 240.294 403.494 240.644 404.152C241.008 404.796 241.498 405.3 242.114 405.664C242.744 406.014 243.451 406.189 244.235 406.189ZM259.775 407.407V403.438L260.048 403.753H256.31C254.896 403.753 253.79 403.445 252.992 402.829C252.194 402.213 251.795 401.317 251.795 400.141C251.795 398.881 252.222 397.943 253.076 397.327C253.93 396.697 255.071 396.382 256.499 396.382H261.14V407.407H259.775ZM251.711 407.407L254.735 403.165H256.289L253.328 407.407H251.711ZM259.775 402.997V397.243L260.048 397.684H256.541C255.519 397.684 254.721 397.88 254.147 398.272C253.587 398.664 253.307 399.301 253.307 400.183C253.307 401.821 254.35 402.64 256.436 402.64H260.048L259.775 402.997ZM265.391 407.407V396.382H266.903L271.901 404.845H271.271L276.353 396.382H277.739V407.407H276.374V398.083L276.647 398.209L271.901 406.063H271.229L266.441 398.125L266.756 398.062V407.407H265.391ZM286.518 407.512C285.454 407.512 284.495 407.274 283.641 406.798C282.801 406.308 282.136 405.643 281.646 404.803C281.156 403.949 280.911 402.976 280.911 401.884C280.911 400.778 281.156 399.805 281.646 398.965C282.136 398.125 282.801 397.467 283.641 396.991C284.481 396.515 285.44 396.277 286.518 396.277C287.61 396.277 288.576 396.515 289.416 396.991C290.27 397.467 290.935 398.125 291.411 398.965C291.901 399.805 292.146 400.778 292.146 401.884C292.146 402.976 291.901 403.949 291.411 404.803C290.935 405.643 290.27 406.308 289.416 406.798C288.562 407.274 287.596 407.512 286.518 407.512ZM286.518 406.189C287.316 406.189 288.023 406.014 288.639 405.664C289.255 405.3 289.738 404.796 290.088 404.152C290.452 403.494 290.634 402.738 290.634 401.884C290.634 401.016 290.452 400.26 290.088 399.616C289.738 398.972 289.255 398.475 288.639 398.125C288.023 397.761 287.323 397.579 286.539 397.579C285.755 397.579 285.055 397.761 284.439 398.125C283.823 398.475 283.333 398.972 282.969 399.616C282.605 400.26 282.423 401.016 282.423 401.884C282.423 402.738 282.605 403.494 282.969 404.152C283.333 404.796 283.823 405.3 284.439 405.664C285.055 406.014 285.748 406.189 286.518 406.189ZM295.332 407.407V396.382H296.823V405.139L304.194 396.382H305.517V407.407H304.026V398.629L296.676 407.407H295.332ZM300.33 394.786C299.406 394.786 298.657 394.555 298.083 394.093C297.523 393.617 297.229 392.938 297.201 392.056H298.272C298.286 392.616 298.482 393.057 298.86 393.379C299.238 393.701 299.728 393.862 300.33 393.862C300.932 393.862 301.422 393.701 301.8 393.379C302.192 393.057 302.395 392.616 302.409 392.056H303.48C303.466 392.938 303.172 393.617 302.598 394.093C302.024 394.555 301.268 394.786 300.33 394.786ZM322.154 407.407V404.971L322.091 404.572V400.498C322.091 399.56 321.825 398.839 321.293 398.335C320.775 397.831 319.998 397.579 318.962 397.579C318.248 397.579 317.569 397.698 316.925 397.936C316.281 398.174 315.735 398.489 315.287 398.881L314.615 397.768C315.175 397.292 315.847 396.928 316.631 396.676C317.415 396.41 318.241 396.277 319.109 396.277C320.537 396.277 321.636 396.634 322.406 397.348C323.19 398.048 323.582 399.119 323.582 400.561V407.407H322.154ZM318.353 407.512C317.527 407.512 316.806 407.379 316.19 407.113C315.588 406.833 315.126 406.455 314.804 405.979C314.482 405.489 314.321 404.929 314.321 404.299C314.321 403.725 314.454 403.207 314.72 402.745C315 402.269 315.448 401.891 316.064 401.611C316.694 401.317 317.534 401.17 318.584 401.17H322.385V402.283H318.626C317.562 402.283 316.82 402.472 316.4 402.85C315.994 403.228 315.791 403.697 315.791 404.257C315.791 404.887 316.036 405.391 316.526 405.769C317.016 406.147 317.702 406.336 318.584 406.336C319.424 406.336 320.145 406.147 320.747 405.769C321.363 405.377 321.811 404.817 322.091 404.089L322.427 405.118C322.147 405.846 321.657 406.427 320.957 406.861C320.271 407.295 319.403 407.512 318.353 407.512Z" fill="#F1F0F1"/>
<path d="M189.516 79.2822L196.236 64.5822H197.769L204.489 79.2822H202.851L196.677 65.4852H197.307L191.133 79.2822H189.516ZM192.162 75.3552L192.624 74.0952H201.171L201.633 75.3552H192.162Z" fill="#F1F0F1"/>
<path d="M202.604 321.582H204.137V336.282H202.604V321.582ZM193.406 336.282H191.852V321.582H193.406V336.282ZM202.751 329.499H193.238V328.134H202.751V329.499Z" fill="#F1F0F1"/>
<path d="M336.295 296.282V293.846L336.232 293.447V289.373C336.232 288.435 335.966 287.714 335.434 287.21C334.916 286.706 334.139 286.454 333.103 286.454C332.389 286.454 331.71 286.573 331.066 286.811C330.422 287.049 329.876 287.364 329.428 287.756L328.756 286.643C329.316 286.167 329.988 285.803 330.772 285.551C331.556 285.285 332.382 285.152 333.25 285.152C334.678 285.152 335.777 285.509 336.547 286.223C337.331 286.923 337.723 287.994 337.723 289.436V296.282H336.295ZM332.494 296.387C331.668 296.387 330.947 296.254 330.331 295.988C329.729 295.708 329.267 295.33 328.945 294.854C328.623 294.364 328.462 293.804 328.462 293.174C328.462 292.6 328.595 292.082 328.861 291.62C329.141 291.144 329.589 290.766 330.205 290.486C330.835 290.192 331.675 290.045 332.725 290.045H336.526V291.158H332.767C331.703 291.158 330.961 291.347 330.541 291.725C330.135 292.103 329.932 292.572 329.932 293.132C329.932 293.762 330.177 294.266 330.667 294.644C331.157 295.022 331.843 295.211 332.725 295.211C333.565 295.211 334.286 295.022 334.888 294.644C335.504 294.252 335.952 293.692 336.232 292.964L336.568 293.993C336.288 294.721 335.798 295.302 335.098 295.736C334.412 296.17 333.544 296.387 332.494 296.387Z" fill="#F1F0F1"/>
<line y1="310.532" x2="350" y2="310.532" stroke="#F1F0F1" stroke-width="3.5"/>
<line x1="173.5" y1="351.305" x2="173.5" y2="0.282379" stroke="#F1F0F1" stroke-width="3"/>
<line x1="173.5" y1="73.2822" x2="173.5" y2="309.282" stroke="#FF1176" stroke-width="3"/>
<circle cx="173.481" cy="73.7633" r="5.38903" transform="rotate(0.986761 173.481 73.7633)" fill="#FF1176"/>
<circle cx="173.481" cy="309.763" r="5.38903" transform="rotate(0.986761 173.481 309.763)" fill="#FF1176"/>
</svg>
