<svg width="1920" height="70" viewBox="0 0 1920 70" fill="none" xmlns="http://www.w3.org/2000/svg">
<g clip-path="url(#clip0_1243_6839)">
<rect width="1920" height="69" transform="translate(0 0.587402)" fill="#FFA782"/>
<rect x="35" y="15.0874" width="50" height="10" rx="5" fill="#F1F0F1"/>
<rect x="35" y="30.0874" width="50" height="10" rx="5" fill="#F1F0F1"/>
<rect x="35" y="45.0874" width="50" height="10" rx="5" fill="#F1F0F1"/>
<path d="M146.79 33.0874C146.79 38.6074 143.1 43.4374 136.71 43.9474V47.0074H131.04V43.9474C124.65 43.4374 120.93 38.6074 120.93 33.1174C120.93 27.6274 124.65 22.7674 131.04 22.2574V19.6474H136.71V22.2574C143.1 22.7674 146.79 27.5674 146.79 33.0874ZM126.69 33.1174C126.69 35.8474 128.37 38.3674 131.25 38.8174V27.4174C128.37 27.8674 126.69 30.3874 126.69 33.1174ZM136.47 38.8174C139.38 38.3674 141.06 35.8474 141.06 33.1174C141.06 30.3874 139.38 27.8674 136.47 27.4174V38.8174ZM159.541 27.3874H165.541L158.731 42.8674C156.541 47.8474 154.561 49.6174 150.361 49.6174H148.441V44.8474H150.001C152.131 44.8474 152.761 44.2774 153.511 42.2674L146.821 27.3874H152.881L156.331 36.3274L159.541 27.3874ZM176.585 27.3874H182.165V43.5874H176.585V37.8874H172.145V43.5874H166.595V27.3874H172.145V32.9674H176.585V27.3874ZM201.297 43.5874H194.727L190.647 36.7474V43.5874H185.067V27.3874H190.647V33.7474L194.547 27.3874H200.787L195.717 35.1574L201.297 43.5874ZM217.223 38.7874H219.353V47.3974H214.553V43.5874H202.133V27.3874H207.653V38.7874H211.703V27.3874H217.223V38.7874ZM233.424 27.3874H236.664V43.5874H231.264V36.3274L224.754 43.5874H221.484V27.3874H226.854V34.5874L233.424 27.3874ZM251.516 27.3874H254.756V43.5874H249.356V36.3274L242.846 43.5874H239.576V27.3874H244.946V34.5874L251.516 27.3874Z" fill="#443D3E"/>
<rect width="62.7081" height="61.6833" transform="matrix(0.83205 -0.5547 0.83205 0.5547 1867.18 35.3716)" fill="#231F20"/>
</g>
<defs>
<clipPath id="clip0_1243_6839">
<rect width="1920" height="69" fill="white" transform="translate(0 0.587402)"/>
</clipPath>
</defs>
</svg>
