<svg width="1920" height="60" viewBox="0 0 1920 60" fill="none" xmlns="http://www.w3.org/2000/svg">
<g clip-path="url(#clip0_1097_3257)">
<rect width="1920" height="59" transform="translate(0 0.0373535)" fill="#FFC0CD"/>
<path d="M37.01 17.0374H54.59V38.0374H48.74V22.3174H42.89V38.0374H37.01V17.0374ZM74.2067 29.7874C74.2067 30.2974 74.1767 30.7774 74.1167 31.2874H62.0867C62.4467 33.1474 63.6167 34.1074 65.3867 34.1074C66.6767 34.1074 67.7867 33.5374 68.2967 32.5774H73.8767C72.7367 36.2674 69.4367 38.5774 65.3867 38.5774C60.3167 38.5774 56.5967 34.8874 56.5967 29.9374C56.5967 24.9874 60.2867 21.3274 65.3867 21.3274C70.6067 21.3274 74.2067 25.0474 74.2067 29.7874ZM65.3867 25.7074C63.7667 25.7074 62.6267 26.5774 62.1767 28.1974H68.7167C68.2367 26.5774 67.0667 25.7074 65.3867 25.7074ZM84.1555 38.5774C78.9655 38.5774 75.2155 34.9474 75.2155 29.9374C75.2155 24.9274 78.9355 21.3574 84.1855 21.3574C88.7455 21.3574 92.1355 24.2074 92.7655 28.5274H87.3055C86.8555 27.2074 85.6255 26.3374 84.1555 26.3374C82.2055 26.3374 80.7955 27.8374 80.7955 29.9374C80.7955 32.0674 82.2055 33.5974 84.1555 33.5974C85.6555 33.5974 86.8855 32.6674 87.3355 31.2274H92.8255C92.1955 35.6074 88.7155 38.5774 84.1555 38.5774ZM102.748 38.5774C97.4677 38.5774 93.6877 34.9474 93.6877 29.9374C93.6877 24.9274 97.4677 21.3274 102.748 21.3274C108.028 21.3274 111.838 24.9274 111.838 29.9374C111.838 34.9474 108.028 38.5774 102.748 38.5774ZM102.748 33.5674C104.788 33.5674 106.258 32.0974 106.258 29.9674C106.258 27.8374 104.788 26.3374 102.748 26.3374C100.738 26.3374 99.2677 27.8074 99.2677 29.9674C99.2677 32.0974 100.738 33.5674 102.748 33.5674ZM122.492 21.8374H128.012V38.0374H122.492V33.2074C121.622 33.4474 120.692 33.5674 119.792 33.5674C115.652 33.5674 112.952 30.9274 112.952 26.5174V21.8374H118.472V26.5474C118.472 28.1674 119.192 28.9474 120.632 28.9474C121.292 28.9474 122.012 28.7974 122.492 28.5274V21.8374ZM140.908 21.8374H146.488V38.0374H140.908V32.3374H136.468V38.0374H130.918V21.8374H136.468V27.4174H140.908V21.8374ZM161.33 21.8374H164.57V38.0374H159.17V30.7774L152.66 38.0374H149.39V21.8374H154.76V29.0374L161.33 21.8374ZM182.571 33.2374H184.701V41.8474H179.901V38.0374H167.481V21.8374H173.001V33.2374H177.051V21.8374H182.571V33.2374ZM199.649 21.8374H203.819V38.0374H199.499L199.019 36.8974C197.699 37.9774 196.019 38.5774 194.129 38.5774C189.179 38.5774 185.639 34.9774 185.639 29.9374C185.639 24.9274 189.179 21.3574 194.129 21.3574C196.049 21.3574 197.759 21.9874 199.079 23.0974L199.649 21.8374ZM194.879 33.6574C196.979 33.6574 198.509 32.0674 198.509 29.9374C198.509 27.8374 196.979 26.2774 194.879 26.2774C192.779 26.2774 191.249 27.8374 191.249 29.9374C191.249 32.0674 192.779 33.6574 194.879 33.6574Z" fill="#231F20"/>
<rect width="60.0584" height="59.0769" transform="matrix(0.868759 -0.495235 0.868759 0.495235 1867.18 29.7804)" fill="#231F20"/>
</g>
<defs>
<clipPath id="clip0_1097_3257">
<rect width="1920" height="59" fill="white" transform="translate(0 0.0373535)"/>
</clipPath>
</defs>
</svg>
