<svg width="1280" height="70" viewBox="0 0 1280 70" fill="none" xmlns="http://www.w3.org/2000/svg">
<g clip-path="url(#clip0_31_3982)">
<rect width="1280" height="69" transform="translate(0 0.519531)" fill="#FFA782"/>
<path d="M140.01 22.5195V43.5195H134.16V35.4495H127.86V43.5195H122.04V22.5195H127.86V30.1095H134.16V22.5195H140.01ZM160.187 27.2895V43.4895H155.897L155.417 42.3495C154.737 42.8895 153.987 43.3095 153.167 43.6095C152.347 43.9095 151.467 44.0595 150.527 44.0595C149.287 44.0595 148.147 43.8495 147.107 43.4295C146.067 42.9895 145.167 42.3895 144.407 41.6295C143.647 40.8495 143.057 39.9295 142.637 38.8695C142.217 37.8095 142.007 36.6495 142.007 35.3895C142.007 34.1295 142.217 32.9795 142.637 31.9395C143.057 30.8795 143.647 29.9695 144.407 29.2095C145.167 28.4495 146.067 27.8595 147.107 27.4395C148.147 27.0195 149.287 26.8095 150.527 26.8095C151.487 26.8095 152.377 26.9595 153.197 27.2595C154.037 27.5595 154.797 27.9895 155.477 28.5495L156.047 27.2895H160.187ZM151.277 39.1095C151.797 39.1095 152.277 39.0195 152.717 38.8395C153.157 38.6395 153.537 38.3795 153.857 38.0595C154.177 37.7195 154.427 37.3295 154.607 36.8895C154.787 36.4295 154.877 35.9395 154.877 35.4195C154.877 34.8995 154.787 34.4195 154.607 33.9795C154.427 33.5195 154.177 33.1295 153.857 32.8095C153.537 32.4695 153.157 32.2095 152.717 32.0295C152.277 31.8295 151.797 31.7295 151.277 31.7295C150.197 31.7295 149.317 32.0795 148.637 32.7795C147.977 33.4795 147.647 34.3595 147.647 35.4195C147.647 35.9395 147.737 36.4295 147.917 36.8895C148.097 37.3295 148.347 37.7195 148.667 38.0595C148.987 38.3795 149.367 38.6395 149.807 38.8395C150.267 39.0195 150.757 39.1095 151.277 39.1095ZM177.298 27.3195V43.5195H171.808V38.6895C170.908 38.9295 169.998 39.0495 169.078 39.0495C168.038 39.0495 167.098 38.8895 166.258 38.5695C165.418 38.2495 164.698 37.7895 164.098 37.1895C163.498 36.5695 163.038 35.8295 162.718 34.9695C162.398 34.0895 162.238 33.0995 162.238 31.9995V27.3195H167.788V32.0295C167.788 33.6295 168.508 34.4295 169.948 34.4295C170.268 34.4295 170.588 34.3895 170.908 34.3095C171.248 34.2295 171.548 34.1295 171.808 34.0095V27.3195H177.298ZM197.454 27.2895V43.4895H193.164L192.684 42.3495C192.004 42.8895 191.254 43.3095 190.434 43.6095C189.614 43.9095 188.734 44.0595 187.794 44.0595C186.554 44.0595 185.414 43.8495 184.374 43.4295C183.334 42.9895 182.434 42.3895 181.674 41.6295C180.914 40.8495 180.324 39.9295 179.904 38.8695C179.484 37.8095 179.274 36.6495 179.274 35.3895C179.274 34.1295 179.484 32.9795 179.904 31.9395C180.324 30.8795 180.914 29.9695 181.674 29.2095C182.434 28.4495 183.334 27.8595 184.374 27.4395C185.414 27.0195 186.554 26.8095 187.794 26.8095C188.754 26.8095 189.644 26.9595 190.464 27.2595C191.304 27.5595 192.064 27.9895 192.744 28.5495L193.314 27.2895H197.454ZM188.544 39.1095C189.064 39.1095 189.544 39.0195 189.984 38.8395C190.424 38.6395 190.804 38.3795 191.124 38.0595C191.444 37.7195 191.694 37.3295 191.874 36.8895C192.054 36.4295 192.144 35.9395 192.144 35.4195C192.144 34.8995 192.054 34.4195 191.874 33.9795C191.694 33.5195 191.444 33.1295 191.124 32.8095C190.804 32.4695 190.424 32.2095 189.984 32.0295C189.544 31.8295 189.064 31.7295 188.544 31.7295C187.464 31.7295 186.584 32.0795 185.904 32.7795C185.244 33.4795 184.914 34.3595 184.914 35.4195C184.914 35.9395 185.004 36.4295 185.184 36.8895C185.364 37.3295 185.614 37.7195 185.934 38.0595C186.254 38.3795 186.634 38.6395 187.074 38.8395C187.534 39.0195 188.024 39.1095 188.544 39.1095ZM216.005 27.3195V43.5195H210.515V31.9995H207.995L207.545 36.5895C207.285 39.0695 206.585 40.8595 205.445 41.9595C204.305 43.0395 202.695 43.5795 200.615 43.5795H199.145V38.9895H199.865C200.625 38.9895 201.195 38.7895 201.575 38.3895C201.975 37.9895 202.225 37.3395 202.325 36.4395L203.375 27.3195H216.005ZM226.616 31.4595C227.616 31.4595 228.506 31.6095 229.286 31.9095C230.086 32.1895 230.766 32.5995 231.326 33.1395C231.886 33.6595 232.316 34.2895 232.616 35.0295C232.916 35.7695 233.066 36.5895 233.066 37.4895C233.066 38.3895 232.916 39.2095 232.616 39.9495C232.316 40.6895 231.886 41.3295 231.326 41.8695C230.766 42.3895 230.086 42.7995 229.286 43.0995C228.506 43.3795 227.616 43.5195 226.616 43.5195H218.936V27.3195H224.096V31.4595H226.616ZM225.986 39.2895C226.566 39.2895 227.026 39.1395 227.366 38.8395C227.706 38.5195 227.876 38.0695 227.876 37.4895C227.876 36.9095 227.706 36.4695 227.366 36.1695C227.026 35.8695 226.566 35.7195 225.986 35.7195H224.096V39.2895H225.986ZM250.282 27.3195V43.5195H244.732V37.8195H240.292V43.5195H234.742V27.3195H240.292V32.8995H244.732V27.3195H250.282ZM260.895 31.4595C261.895 31.4595 262.785 31.6095 263.565 31.9095C264.365 32.1895 265.045 32.5995 265.605 33.1395C266.165 33.6595 266.595 34.2895 266.895 35.0295C267.195 35.7695 267.345 36.5895 267.345 37.4895C267.345 38.3895 267.195 39.2095 266.895 39.9495C266.595 40.6895 266.165 41.3295 265.605 41.8695C265.045 42.3895 264.365 42.7995 263.565 43.0995C262.785 43.3795 261.895 43.5195 260.895 43.5195H253.215V27.3195H258.375V31.4595H260.895ZM275.085 27.3195V43.5195H269.535V27.3195H275.085ZM260.265 39.2895C260.845 39.2895 261.305 39.1395 261.645 38.8395C261.985 38.5195 262.155 38.0695 262.155 37.4895C262.155 36.9095 261.985 36.4695 261.645 36.1695C261.305 35.8695 260.845 35.7195 260.265 35.7195H258.375V39.2895H260.265ZM294.666 35.2695C294.666 35.5095 294.656 35.7495 294.636 35.9895C294.616 36.2295 294.586 36.4795 294.546 36.7395H282.516C282.696 37.6795 283.066 38.3895 283.626 38.8695C284.206 39.3295 284.936 39.5595 285.816 39.5595C286.476 39.5595 287.056 39.4295 287.556 39.1695C288.076 38.8895 288.476 38.5095 288.756 38.0295H294.306C294.026 38.9495 293.616 39.7895 293.076 40.5495C292.536 41.2895 291.896 41.9195 291.156 42.4395C290.436 42.9595 289.616 43.3595 288.696 43.6395C287.796 43.9195 286.836 44.0595 285.816 44.0595C284.556 44.0595 283.386 43.8395 282.306 43.3995C281.246 42.9595 280.316 42.3595 279.516 41.5995C278.736 40.8195 278.126 39.9095 277.686 38.8695C277.246 37.8095 277.026 36.6595 277.026 35.4195C277.026 34.1795 277.246 33.0295 277.686 31.9695C278.126 30.9095 278.736 29.9995 279.516 29.2395C280.296 28.4595 281.226 27.8595 282.306 27.4395C283.386 26.9995 284.556 26.7795 285.816 26.7795C287.116 26.7795 288.306 26.9995 289.386 27.4395C290.486 27.8795 291.426 28.4795 292.206 29.2395C292.986 29.9995 293.586 30.8995 294.006 31.9395C294.446 32.9595 294.666 34.0695 294.666 35.2695ZM285.816 31.1595C284.996 31.1595 284.306 31.3695 283.746 31.7895C283.206 32.2095 282.826 32.8295 282.606 33.6495H289.176C288.656 31.9895 287.536 31.1595 285.816 31.1595ZM313.848 32.1195H307.968V43.5195H302.508V27.3195H313.848V32.1195ZM331.86 35.2695C331.86 35.5095 331.85 35.7495 331.83 35.9895C331.81 36.2295 331.78 36.4795 331.74 36.7395H319.71C319.89 37.6795 320.26 38.3895 320.82 38.8695C321.4 39.3295 322.13 39.5595 323.01 39.5595C323.67 39.5595 324.25 39.4295 324.75 39.1695C325.27 38.8895 325.67 38.5095 325.95 38.0295H331.5C331.22 38.9495 330.81 39.7895 330.27 40.5495C329.73 41.2895 329.09 41.9195 328.35 42.4395C327.63 42.9595 326.81 43.3595 325.89 43.6395C324.99 43.9195 324.03 44.0595 323.01 44.0595C321.75 44.0595 320.58 43.8395 319.5 43.3995C318.44 42.9595 317.51 42.3595 316.71 41.5995C315.93 40.8195 315.32 39.9095 314.88 38.8695C314.44 37.8095 314.22 36.6595 314.22 35.4195C314.22 34.1795 314.44 33.0295 314.88 31.9695C315.32 30.9095 315.93 29.9995 316.71 29.2395C317.49 28.4595 318.42 27.8595 319.5 27.4395C320.58 26.9995 321.75 26.7795 323.01 26.7795C324.31 26.7795 325.5 26.9995 326.58 27.4395C327.68 27.8795 328.62 28.4795 329.4 29.2395C330.18 29.9995 330.78 30.8995 331.2 31.9395C331.64 32.9595 331.86 34.0695 331.86 35.2695ZM323.01 31.1595C322.19 31.1595 321.5 31.3695 320.94 31.7895C320.4 32.2095 320.02 32.8295 319.8 33.6495H326.37C325.85 31.9895 324.73 31.1595 323.01 31.1595ZM341.929 44.0595C340.609 44.0595 339.389 43.8495 338.269 43.4295C337.169 42.9895 336.209 42.3895 335.389 41.6295C334.589 40.8495 333.959 39.9395 333.499 38.8995C333.059 37.8395 332.839 36.6795 332.839 35.4195C332.839 34.1595 333.059 33.0095 333.499 31.9695C333.959 30.9095 334.589 29.9995 335.389 29.2395C336.209 28.4595 337.169 27.8595 338.269 27.4395C339.389 26.9995 340.609 26.7795 341.929 26.7795C343.249 26.7795 344.459 26.9995 345.559 27.4395C346.679 27.8595 347.639 28.4595 348.439 29.2395C349.259 29.9995 349.889 30.9095 350.329 31.9695C350.789 33.0095 351.019 34.1595 351.019 35.4195C351.019 36.6795 350.789 37.8395 350.329 38.8995C349.889 39.9395 349.259 40.8495 348.439 41.6295C347.639 42.3895 346.679 42.9895 345.559 43.4295C344.459 43.8495 343.249 44.0595 341.929 44.0595ZM341.929 39.0495C342.949 39.0495 343.779 38.7195 344.419 38.0595C345.079 37.3795 345.409 36.4995 345.409 35.4195C345.409 34.3395 345.079 33.4695 344.419 32.8095C343.779 32.1295 342.949 31.7895 341.929 31.7895C340.909 31.7895 340.069 32.1295 339.409 32.8095C338.749 33.4695 338.419 34.3395 338.419 35.4195C338.419 36.4995 338.749 37.3795 339.409 38.0595C340.069 38.7195 340.909 39.0495 341.929 39.0495ZM369.417 43.5195L368.247 35.2695L363.957 43.5795H362.547L358.257 35.2395L357.057 43.5195H351.807L354.297 27.3195H359.217L363.267 35.5095L367.377 27.3195H372.117L374.697 43.5195H369.417ZM393.077 35.2695C393.077 35.5095 393.067 35.7495 393.047 35.9895C393.027 36.2295 392.997 36.4795 392.957 36.7395H380.927C381.107 37.6795 381.477 38.3895 382.037 38.8695C382.617 39.3295 383.347 39.5595 384.227 39.5595C384.887 39.5595 385.467 39.4295 385.967 39.1695C386.487 38.8895 386.887 38.5095 387.167 38.0295H392.717C392.437 38.9495 392.027 39.7895 391.487 40.5495C390.947 41.2895 390.307 41.9195 389.567 42.4395C388.847 42.9595 388.027 43.3595 387.107 43.6395C386.207 43.9195 385.247 44.0595 384.227 44.0595C382.967 44.0595 381.797 43.8395 380.717 43.3995C379.657 42.9595 378.727 42.3595 377.927 41.5995C377.147 40.8195 376.537 39.9095 376.097 38.8695C375.657 37.8095 375.437 36.6595 375.437 35.4195C375.437 34.1795 375.657 33.0295 376.097 31.9695C376.537 30.9095 377.147 29.9995 377.927 29.2395C378.707 28.4595 379.637 27.8595 380.717 27.4395C381.797 26.9995 382.967 26.7795 384.227 26.7795C385.527 26.7795 386.717 26.9995 387.797 27.4395C388.897 27.8795 389.837 28.4795 390.617 29.2395C391.397 29.9995 391.997 30.8995 392.417 31.9395C392.857 32.9595 393.077 34.0695 393.077 35.2695ZM384.227 31.1595C383.407 31.1595 382.717 31.3695 382.157 31.7895C381.617 32.2095 381.237 32.8295 381.017 33.6495H387.587C387.067 31.9895 385.947 31.1595 384.227 31.1595ZM409.093 32.1495H403.993V43.5195H398.533V32.1495H393.403V27.3195H409.093V32.1495ZM420.155 26.7795C421.395 26.7795 422.535 26.9995 423.575 27.4395C424.615 27.8595 425.505 28.4495 426.245 29.2095C427.005 29.9695 427.595 30.8795 428.015 31.9395C428.435 32.9995 428.645 34.1595 428.645 35.4195C428.645 36.6795 428.435 37.8395 428.015 38.8995C427.595 39.9595 427.005 40.8695 426.245 41.6295C425.505 42.3895 424.615 42.9895 423.575 43.4295C422.535 43.8495 421.395 44.0595 420.155 44.0595C419.415 44.0595 418.715 43.9595 418.055 43.7595C417.395 43.5795 416.775 43.3195 416.195 42.9795V49.3695H410.705V27.3195H414.485L415.175 28.6095C415.855 28.0295 416.615 27.5795 417.455 27.2595C418.295 26.9395 419.195 26.7795 420.155 26.7795ZM419.405 39.1395C419.925 39.1395 420.405 39.0495 420.845 38.8695C421.285 38.6695 421.665 38.4095 421.985 38.0895C422.325 37.7495 422.585 37.3595 422.765 36.9195C422.945 36.4595 423.035 35.9595 423.035 35.4195C423.035 34.3395 422.695 33.4495 422.015 32.7495C421.335 32.0495 420.465 31.6995 419.405 31.6995C418.345 31.6995 417.475 32.0495 416.795 32.7495C416.115 33.4495 415.775 34.3395 415.775 35.4195C415.775 36.4995 416.115 37.3895 416.795 38.0895C417.475 38.7895 418.345 39.1395 419.405 39.1395ZM445.763 27.3195V43.5195H440.393V36.2595L433.883 43.5195H430.613V27.3195H435.983V34.5195L442.553 27.3195H445.763ZM462.864 27.3195V43.5195H457.374V38.6895C456.474 38.9295 455.564 39.0495 454.644 39.0495C453.604 39.0495 452.664 38.8895 451.824 38.5695C450.984 38.2495 450.264 37.7895 449.664 37.1895C449.064 36.5695 448.604 35.8295 448.284 34.9695C447.964 34.0895 447.804 33.0995 447.804 31.9995V27.3195H453.354V32.0295C453.354 33.6295 454.074 34.4295 455.514 34.4295C455.834 34.4295 456.154 34.3895 456.474 34.3095C456.814 34.2295 457.114 34.1295 457.374 34.0095V27.3195H462.864ZM482.48 35.2695C482.48 35.5095 482.47 35.7495 482.45 35.9895C482.43 36.2295 482.4 36.4795 482.36 36.7395H470.33C470.51 37.6795 470.88 38.3895 471.44 38.8695C472.02 39.3295 472.75 39.5595 473.63 39.5595C474.29 39.5595 474.87 39.4295 475.37 39.1695C475.89 38.8895 476.29 38.5095 476.57 38.0295H482.12C481.84 38.9495 481.43 39.7895 480.89 40.5495C480.35 41.2895 479.71 41.9195 478.97 42.4395C478.25 42.9595 477.43 43.3595 476.51 43.6395C475.61 43.9195 474.65 44.0595 473.63 44.0595C472.37 44.0595 471.2 43.8395 470.12 43.3995C469.06 42.9595 468.13 42.3595 467.33 41.5995C466.55 40.8195 465.94 39.9095 465.5 38.8695C465.06 37.8095 464.84 36.6595 464.84 35.4195C464.84 34.1795 465.06 33.0295 465.5 31.9695C465.94 30.9095 466.55 29.9995 467.33 29.2395C468.11 28.4595 469.04 27.8595 470.12 27.4395C471.2 26.9995 472.37 26.7795 473.63 26.7795C474.93 26.7795 476.12 26.9995 477.2 27.4395C478.3 27.8795 479.24 28.4795 480.02 29.2395C480.8 29.9995 481.4 30.8995 481.82 31.9395C482.26 32.9595 482.48 34.0695 482.48 35.2695ZM473.63 31.1595C472.81 31.1595 472.12 31.3695 471.56 31.7895C471.02 32.2095 470.64 32.8295 470.42 33.6495H476.99C476.47 31.9895 475.35 31.1595 473.63 31.1595ZM492.428 44.0595C491.128 44.0595 489.928 43.8495 488.828 43.4295C487.748 42.9895 486.808 42.3895 486.008 41.6295C485.208 40.8495 484.588 39.9295 484.148 38.8695C483.708 37.8095 483.488 36.6495 483.488 35.3895C483.488 34.1295 483.708 32.9795 484.148 31.9395C484.588 30.8795 485.198 29.9695 485.978 29.2095C486.778 28.4495 487.728 27.8595 488.828 27.4395C489.928 27.0195 491.128 26.8095 492.428 26.8095C493.568 26.8095 494.628 26.9795 495.608 27.3195C496.588 27.6595 497.448 28.1495 498.188 28.7895C498.948 29.4095 499.568 30.1595 500.048 31.0395C500.548 31.9195 500.868 32.8995 501.008 33.9795H495.578C495.338 33.3195 494.928 32.7995 494.348 32.4195C493.788 32.0195 493.148 31.8195 492.428 31.8195C491.428 31.8195 490.618 32.1495 489.998 32.8095C489.378 33.4695 489.068 34.3395 489.068 35.4195C489.068 36.4795 489.378 37.3495 489.998 38.0295C490.638 38.7095 491.448 39.0495 492.428 39.0495C493.188 39.0495 493.848 38.8395 494.408 38.4195C494.968 37.9795 495.358 37.3995 495.578 36.6795H501.068C500.908 37.7795 500.578 38.7895 500.078 39.7095C499.598 40.6095 498.978 41.3795 498.218 42.0195C497.458 42.6595 496.588 43.1595 495.608 43.5195C494.628 43.8795 493.568 44.0595 492.428 44.0595ZM512.521 43.5195L508.471 36.6495V43.5195H502.891V27.3195H508.471V33.6795L512.341 27.3195H518.581L513.511 35.0595L519.091 43.5195H512.521ZM535.107 27.3195V43.5195H529.737V36.2595L523.227 43.5195H519.957V27.3195H525.327V34.5195L531.897 27.3195H535.107ZM554.728 35.2695C554.728 35.5095 554.718 35.7495 554.698 35.9895C554.678 36.2295 554.648 36.4795 554.608 36.7395H542.578C542.758 37.6795 543.128 38.3895 543.688 38.8695C544.268 39.3295 544.998 39.5595 545.878 39.5595C546.538 39.5595 547.118 39.4295 547.618 39.1695C548.138 38.8895 548.538 38.5095 548.818 38.0295H554.368C554.088 38.9495 553.678 39.7895 553.138 40.5495C552.598 41.2895 551.958 41.9195 551.218 42.4395C550.498 42.9595 549.678 43.3595 548.758 43.6395C547.858 43.9195 546.898 44.0595 545.878 44.0595C544.618 44.0595 543.448 43.8395 542.368 43.3995C541.308 42.9595 540.378 42.3595 539.578 41.5995C538.798 40.8195 538.188 39.9095 537.748 38.8695C537.308 37.8095 537.088 36.6595 537.088 35.4195C537.088 34.1795 537.308 33.0295 537.748 31.9695C538.188 30.9095 538.798 29.9995 539.578 29.2395C540.358 28.4595 541.288 27.8595 542.368 27.4395C543.448 26.9995 544.618 26.7795 545.878 26.7795C547.178 26.7795 548.368 26.9995 549.448 27.4395C550.548 27.8795 551.488 28.4795 552.268 29.2395C553.048 29.9995 553.648 30.8995 554.068 31.9395C554.508 32.9595 554.728 34.0695 554.728 35.2695ZM545.878 31.1595C545.058 31.1595 544.368 31.3695 543.808 31.7895C543.268 32.2095 542.888 32.8295 542.668 33.6495H549.238C548.718 31.9895 547.598 31.1595 545.878 31.1595ZM570.581 44.0595C569.281 44.0595 568.081 43.8495 566.981 43.4295C565.901 42.9895 564.961 42.3895 564.161 41.6295C563.361 40.8495 562.741 39.9295 562.301 38.8695C561.861 37.8095 561.641 36.6495 561.641 35.3895C561.641 34.1295 561.861 32.9795 562.301 31.9395C562.741 30.8795 563.351 29.9695 564.131 29.2095C564.931 28.4495 565.881 27.8595 566.981 27.4395C568.081 27.0195 569.281 26.8095 570.581 26.8095C571.721 26.8095 572.781 26.9795 573.761 27.3195C574.741 27.6595 575.601 28.1495 576.341 28.7895C577.101 29.4095 577.721 30.1595 578.201 31.0395C578.701 31.9195 579.021 32.8995 579.161 33.9795H573.731C573.491 33.3195 573.081 32.7995 572.501 32.4195C571.941 32.0195 571.301 31.8195 570.581 31.8195C569.581 31.8195 568.771 32.1495 568.151 32.8095C567.531 33.4695 567.221 34.3395 567.221 35.4195C567.221 36.4795 567.531 37.3495 568.151 38.0295C568.791 38.7095 569.601 39.0495 570.581 39.0495C571.341 39.0495 572.001 38.8395 572.561 38.4195C573.121 37.9795 573.511 37.3995 573.731 36.6795H579.221C579.061 37.7795 578.731 38.7895 578.231 39.7095C577.751 40.6095 577.131 41.3795 576.371 42.0195C575.611 42.6595 574.741 43.1595 573.761 43.5195C572.781 43.8795 571.721 44.0595 570.581 44.0595ZM593.103 34.9395C593.943 35.2595 594.593 35.7595 595.053 36.4395C595.533 37.0995 595.773 37.8995 595.773 38.8395C595.773 39.5195 595.643 40.1495 595.383 40.7295C595.123 41.2895 594.763 41.7795 594.303 42.1995C593.843 42.6195 593.283 42.9495 592.623 43.1895C591.983 43.4095 591.273 43.5195 590.493 43.5195H581.043V27.3195H590.373C591.093 27.3195 591.753 27.4195 592.353 27.6195C592.953 27.8195 593.463 28.0995 593.883 28.4595C594.323 28.8195 594.663 29.2495 594.903 29.7495C595.143 30.2495 595.263 30.7995 595.263 31.3995C595.263 32.1795 595.073 32.8795 594.693 33.4995C594.313 34.1195 593.783 34.5995 593.103 34.9395ZM590.163 32.2095C590.163 31.8095 590.033 31.4895 589.773 31.2495C589.513 30.9895 589.153 30.8595 588.693 30.8595H586.233V33.5895H588.693C589.153 33.5895 589.513 33.4595 589.773 33.1995C590.033 32.9395 590.163 32.6095 590.163 32.2095ZM588.873 39.7695C589.373 39.7695 589.753 39.6495 590.013 39.4095C590.293 39.1495 590.433 38.7895 590.433 38.3295C590.433 37.8895 590.293 37.5395 590.013 37.2795C589.753 37.0195 589.373 36.8895 588.873 36.8895H586.233V39.7695H588.873ZM614.496 35.2695C614.496 35.5095 614.486 35.7495 614.466 35.9895C614.446 36.2295 614.416 36.4795 614.376 36.7395H602.346C602.526 37.6795 602.896 38.3895 603.456 38.8695C604.036 39.3295 604.766 39.5595 605.646 39.5595C606.306 39.5595 606.886 39.4295 607.386 39.1695C607.906 38.8895 608.306 38.5095 608.586 38.0295H614.136C613.856 38.9495 613.446 39.7895 612.906 40.5495C612.366 41.2895 611.726 41.9195 610.986 42.4395C610.266 42.9595 609.446 43.3595 608.526 43.6395C607.626 43.9195 606.666 44.0595 605.646 44.0595C604.386 44.0595 603.216 43.8395 602.136 43.3995C601.076 42.9595 600.146 42.3595 599.346 41.5995C598.566 40.8195 597.956 39.9095 597.516 38.8695C597.076 37.8095 596.856 36.6595 596.856 35.4195C596.856 34.1795 597.076 33.0295 597.516 31.9695C597.956 30.9095 598.566 29.9995 599.346 29.2395C600.126 28.4595 601.056 27.8595 602.136 27.4395C603.216 26.9995 604.386 26.7795 605.646 26.7795C606.946 26.7795 608.136 26.9995 609.216 27.4395C610.316 27.8795 611.256 28.4795 612.036 29.2395C612.816 29.9995 613.416 30.8995 613.836 31.9395C614.276 32.9595 614.496 34.0695 614.496 35.2695ZM605.646 31.1595C604.826 31.1595 604.136 31.3695 603.576 31.7895C603.036 32.2095 602.656 32.8295 602.436 33.6495H609.006C608.486 31.9895 607.366 31.1595 605.646 31.1595ZM633.9 38.5995V47.2995H629.1V43.5195H619.8V47.2995H615.03V38.5995H616.83C617.09 38.3195 617.31 37.9495 617.49 37.4895C617.69 37.0295 617.86 36.3795 618 35.5395C618.16 34.6795 618.31 33.5895 618.45 32.2695C618.61 30.9495 618.78 29.2995 618.96 27.3195H631.86V38.5995H633.9ZM623.67 31.9995C623.53 33.7595 623.35 35.1595 623.13 36.1995C622.91 37.2195 622.62 38.0195 622.26 38.5995H626.67V31.9995H623.67ZM652.495 35.2695C652.495 35.5095 652.485 35.7495 652.465 35.9895C652.445 36.2295 652.415 36.4795 652.375 36.7395H640.345C640.525 37.6795 640.895 38.3895 641.455 38.8695C642.035 39.3295 642.765 39.5595 643.645 39.5595C644.305 39.5595 644.885 39.4295 645.385 39.1695C645.905 38.8895 646.305 38.5095 646.585 38.0295H652.135C651.855 38.9495 651.445 39.7895 650.905 40.5495C650.365 41.2895 649.725 41.9195 648.985 42.4395C648.265 42.9595 647.445 43.3595 646.525 43.6395C645.625 43.9195 644.665 44.0595 643.645 44.0595C642.385 44.0595 641.215 43.8395 640.135 43.3995C639.075 42.9595 638.145 42.3595 637.345 41.5995C636.565 40.8195 635.955 39.9095 635.515 38.8695C635.075 37.8095 634.855 36.6595 634.855 35.4195C634.855 34.1795 635.075 33.0295 635.515 31.9695C635.955 30.9095 636.565 29.9995 637.345 29.2395C638.125 28.4595 639.055 27.8595 640.135 27.4395C641.215 26.9995 642.385 26.7795 643.645 26.7795C644.945 26.7795 646.135 26.9995 647.215 27.4395C648.315 27.8795 649.255 28.4795 650.035 29.2395C650.815 29.9995 651.415 30.8995 651.835 31.9395C652.275 32.9595 652.495 34.0695 652.495 35.2695ZM643.645 31.1595C642.825 31.1595 642.135 31.3695 641.575 31.7895C641.035 32.2095 640.655 32.8295 640.435 33.6495H647.005C646.485 31.9895 645.365 31.1595 643.645 31.1595ZM669.974 27.3195V43.5195H664.424V37.8195H659.984V43.5195H654.434V27.3195H659.984V32.8995H664.424V27.3195H669.974ZM688.056 27.3195V43.5195H682.686V36.2595L676.176 43.5195H672.906V27.3195H678.276V34.5195L684.846 27.3195H688.056ZM705.098 27.3195V43.5195H699.968V38.2995H698.168L695.588 43.5195H689.648L693.188 37.3395C692.328 36.8795 691.658 36.2695 691.178 35.5095C690.698 34.7295 690.458 33.8295 690.458 32.8095C690.458 32.0095 690.598 31.2795 690.878 30.6195C691.158 29.9395 691.548 29.3595 692.048 28.8795C692.568 28.3795 693.178 27.9995 693.878 27.7395C694.578 27.4595 695.338 27.3195 696.158 27.3195H705.098ZM699.968 34.5495V31.2195H697.658C697.098 31.2195 696.668 31.3795 696.368 31.6995C696.068 31.9995 695.918 32.3995 695.918 32.8995C695.918 33.3795 696.068 33.7795 696.368 34.0995C696.668 34.3995 697.098 34.5495 697.658 34.5495H699.968Z" fill="#443D3E"/>
<rect x="1244.78" y="35.3037" width="49.1923" height="48.3884" transform="rotate(-45 1244.78 35.3037)" fill="#231F20"/>
</g>
<defs>
<clipPath id="clip0_31_3982">
<rect width="1280" height="69" fill="white" transform="translate(0 0.519531)"/>
</clipPath>
</defs>
</svg>
