<svg width="716" height="397" viewBox="0 0 716 397" fill="none" xmlns="http://www.w3.org/2000/svg">
<path d="M143.541 134.462L34.4574 253.445L380.248 255.928L143.541 134.462Z" stroke="#F1F0F1" stroke-width="4.31122"/>
<circle cx="380.355" cy="255.089" r="5.38903" transform="rotate(0.986761 380.355 255.089)" fill="#F1F0F1"/>
<circle cx="143.159" cy="132.428" r="5.38903" transform="rotate(0.986761 143.159 132.428)" fill="#F1F0F1"/>
<circle cx="33.2788" cy="253.423" r="5.38903" transform="rotate(0.986761 33.2788 253.423)" fill="#F1F0F1"/>
<path d="M130.411 127.459C129.305 127.459 128.283 127.277 127.345 126.913C126.407 126.535 125.595 126.01 124.909 125.338C124.223 124.666 123.684 123.875 123.292 122.965C122.914 122.055 122.725 121.061 122.725 119.983C122.725 118.905 122.914 117.911 123.292 117.001C123.684 116.091 124.223 115.3 124.909 114.628C125.609 113.956 126.428 113.438 127.366 113.074C128.304 112.696 129.326 112.507 130.432 112.507C131.496 112.507 132.497 112.689 133.435 113.053C134.373 113.403 135.164 113.935 135.808 114.649L134.821 115.636C134.219 115.02 133.554 114.579 132.826 114.313C132.098 114.033 131.314 113.893 130.474 113.893C129.592 113.893 128.773 114.047 128.017 114.355C127.261 114.649 126.603 115.076 126.043 115.636C125.483 116.182 125.042 116.826 124.72 117.568C124.412 118.296 124.258 119.101 124.258 119.983C124.258 120.865 124.412 121.677 124.72 122.419C125.042 123.147 125.483 123.791 126.043 124.351C126.603 124.897 127.261 125.324 128.017 125.632C128.773 125.926 129.592 126.073 130.474 126.073C131.314 126.073 132.098 125.933 132.826 125.653C133.554 125.373 134.219 124.925 134.821 124.309L135.808 125.296C135.164 126.01 134.373 126.549 133.435 126.913C132.497 127.277 131.489 127.459 130.411 127.459Z" fill="#F1F0F1"/>
<path d="M10.6948 279.333L17.4148 264.633H18.9478L25.6678 279.333H24.0298L17.8558 265.536H18.4858L12.3118 279.333H10.6948ZM13.3408 275.406L13.8028 274.146H22.3498L22.8118 275.406H13.3408Z" fill="#F1F0F1"/>
<path d="M383.657 279.333V264.633H389.999C391.637 264.633 392.904 264.962 393.8 265.62C394.71 266.278 395.165 267.209 395.165 268.413C395.165 269.211 394.976 269.883 394.598 270.429C394.234 270.975 393.73 271.388 393.086 271.668C392.456 271.948 391.763 272.088 391.007 272.088L391.364 271.584C392.302 271.584 393.107 271.731 393.779 272.025C394.465 272.305 394.997 272.732 395.375 273.306C395.753 273.866 395.942 274.566 395.942 275.406C395.942 276.652 395.48 277.618 394.556 278.304C393.646 278.99 392.267 279.333 390.419 279.333H383.657ZM385.211 278.052H390.398C391.686 278.052 392.673 277.835 393.359 277.401C394.045 276.953 394.388 276.246 394.388 275.28C394.388 274.328 394.045 273.635 393.359 273.201C392.673 272.753 391.686 272.529 390.398 272.529H385.043V271.248H389.894C391.07 271.248 391.98 271.024 392.624 270.576C393.282 270.128 393.611 269.463 393.611 268.581C393.611 267.685 393.282 267.02 392.624 266.586C391.98 266.138 391.07 265.914 389.894 265.914H385.211V278.052Z" fill="#F1F0F1"/>
<path d="M56.9434 253.115C58.8151 248.842 52.6777 240.2 47.6794 240.07" stroke="#F1F0F1" stroke-width="2"/>
<line x1="197.679" y1="241.157" x2="197.679" y2="271.157" stroke="#F1F0F1" stroke-width="2"/>
<line x1="88.3844" y1="172.624" x2="109.663" y2="193.772" stroke="#F1F0F1" stroke-width="2"/>
<line x1="83.3844" y1="177.448" x2="104.663" y2="198.596" stroke="#F1F0F1" stroke-width="2"/>
<path d="M483.059 257.773L604.175 364.483L599.82 18.7112L483.059 257.773Z" stroke="#F1F0F1" stroke-width="4.31122"/>
<circle cx="598.98" cy="18.6202" r="5.38903" transform="rotate(-90.1462 598.98 18.6202)" fill="#F1F0F1"/>
<circle cx="481.033" cy="258.195" r="5.38903" transform="rotate(-90.1462 481.033 258.195)" fill="#F1F0F1"/>
<circle cx="604.177" cy="365.662" r="5.38903" transform="rotate(-90.1462 604.177 365.662)" fill="#F1F0F1"/>
<path d="M603.401 342.008C599.092 340.221 590.573 346.528 590.542 351.528" stroke="#F1F0F1" stroke-width="2"/>
<line x1="588.663" y1="201.536" x2="618.657" y2="200.943" stroke="#F1F0F1" stroke-width="2"/>
<line x1="522.304" y1="312.165" x2="543.027" y2="290.472" stroke="#F1F0F1" stroke-width="2"/>
<line x1="527.225" y1="317.069" x2="547.949" y2="295.376" stroke="#F1F0F1" stroke-width="2"/>
<path d="M610.183 375.333L616.903 360.633H618.436L625.156 375.333H623.518L617.344 361.536H617.974L611.8 375.333H610.183ZM612.829 371.406L613.291 370.146H621.838L622.3 371.406H612.829ZM630.654 377.202L629.961 376.488H632.922V377.433H626.958V376.488H630.192L629.499 377.202V369.138L630.003 369.663H627.105V368.718H630.654V377.202Z" fill="#F1F0F1"/>
<path d="M612.145 24.333V9.63301H618.487C620.125 9.63301 621.392 9.96201 622.288 10.62C623.198 11.278 623.653 12.209 623.653 13.413C623.653 14.211 623.464 14.883 623.086 15.429C622.722 15.975 622.218 16.388 621.574 16.668C620.944 16.948 620.251 17.088 619.495 17.088L619.852 16.584C620.79 16.584 621.595 16.731 622.267 17.025C622.953 17.305 623.485 17.732 623.863 18.306C624.241 18.866 624.43 19.566 624.43 20.406C624.43 21.652 623.968 22.618 623.044 23.304C622.134 23.99 620.755 24.333 618.907 24.333H612.145ZM613.699 23.052H618.886C620.174 23.052 621.161 22.835 621.847 22.401C622.533 21.953 622.876 21.246 622.876 20.28C622.876 19.328 622.533 18.635 621.847 18.201C621.161 17.753 620.174 17.529 618.886 17.529H613.531V16.248H618.382C619.558 16.248 620.468 16.024 621.112 15.576C621.77 15.128 622.099 14.463 622.099 13.581C622.099 12.685 621.77 12.02 621.112 11.586C620.468 11.138 619.558 10.914 618.382 10.914H613.699V23.052ZM631.043 26.202L630.35 25.488H633.311V26.433H627.347V25.488H630.581L629.888 26.202V18.138L630.392 18.663H627.494V17.718H631.043V26.202Z" fill="#F1F0F1"/>
<path d="M464.899 279.459C463.793 279.459 462.771 279.277 461.833 278.913C460.895 278.535 460.083 278.01 459.397 277.338C458.711 276.666 458.172 275.875 457.78 274.965C457.402 274.055 457.213 273.061 457.213 271.983C457.213 270.905 457.402 269.911 457.78 269.001C458.172 268.091 458.711 267.3 459.397 266.628C460.097 265.956 460.916 265.438 461.854 265.074C462.792 264.696 463.814 264.507 464.92 264.507C465.984 264.507 466.985 264.689 467.923 265.053C468.861 265.403 469.652 265.935 470.296 266.649L469.309 267.636C468.707 267.02 468.042 266.579 467.314 266.313C466.586 266.033 465.802 265.893 464.962 265.893C464.08 265.893 463.261 266.047 462.505 266.355C461.749 266.649 461.091 267.076 460.531 267.636C459.971 268.182 459.53 268.826 459.208 269.568C458.9 270.296 458.746 271.101 458.746 271.983C458.746 272.865 458.9 273.677 459.208 274.419C459.53 275.147 459.971 275.791 460.531 276.351C461.091 276.897 461.749 277.324 462.505 277.632C463.261 277.926 464.08 278.073 464.962 278.073C465.802 278.073 466.586 277.933 467.314 277.653C468.042 277.373 468.707 276.925 469.309 276.309L470.296 277.296C469.652 278.01 468.861 278.549 467.923 278.913C466.985 279.277 465.977 279.459 464.899 279.459ZM476.674 281.202L475.981 280.488H478.942V281.433H472.978V280.488H476.212L475.519 281.202V273.138L476.023 273.663H473.125V272.718H476.674V281.202Z" fill="#F1F0F1"/>
</svg>
