<svg width="838" height="338" viewBox="0 0 838 338" fill="none" xmlns="http://www.w3.org/2000/svg">
<path d="M235.349 39.6098L45.7502 220.173L395.333 222.683L235.349 39.6098Z" stroke="#F1F0F1" stroke-width="4.31122"/>
<circle cx="394.973" cy="222.478" r="5.38903" transform="rotate(0.986761 394.973 222.478)" fill="#F1F0F1"/>
<circle cx="234.973" cy="38.4781" r="5.38903" transform="rotate(0.986761 234.973 38.4781)" fill="#F1F0F1"/>
<circle cx="44.0913" cy="220.148" r="5.38903" transform="rotate(0.986761 44.0913 220.148)" fill="#F1F0F1"/>
<path d="M34.0073 245.997L40.7273 231.297H42.2603L48.9803 245.997H47.3423L41.1683 232.2H41.7983L35.6243 245.997H34.0073ZM36.6533 242.07L37.1153 240.81H45.6623L46.1243 242.07H36.6533Z" fill="#F1F0F1"/>
<path d="M216.723 33.1231C215.617 33.1231 214.595 32.9411 213.657 32.5771C212.719 32.1991 211.907 31.6741 211.221 31.0021C210.535 30.3301 209.996 29.5391 209.604 28.6291C209.226 27.7191 209.037 26.7251 209.037 25.6471C209.037 24.5691 209.226 23.5751 209.604 22.6651C209.996 21.7551 210.535 20.9641 211.221 20.2921C211.921 19.6201 212.74 19.1021 213.678 18.7381C214.616 18.3601 215.638 18.1711 216.744 18.1711C217.808 18.1711 218.809 18.3531 219.747 18.7171C220.685 19.0671 221.476 19.5991 222.12 20.3131L221.133 21.3001C220.531 20.6841 219.866 20.2431 219.138 19.9771C218.41 19.6971 217.626 19.5571 216.786 19.5571C215.904 19.5571 215.085 19.7111 214.329 20.0191C213.573 20.3131 212.915 20.7401 212.355 21.3001C211.795 21.8461 211.354 22.4901 211.032 23.2321C210.724 23.9601 210.57 24.7651 210.57 25.6471C210.57 26.5291 210.724 27.3411 211.032 28.0831C211.354 28.8111 211.795 29.4551 212.355 30.0151C212.915 30.5611 213.573 30.9881 214.329 31.2961C215.085 31.5901 215.904 31.7371 216.786 31.7371C217.626 31.7371 218.41 31.5971 219.138 31.3171C219.866 31.0371 220.531 30.5891 221.133 29.9731L222.12 30.9601C221.476 31.6741 220.685 32.2131 219.747 32.5771C218.809 32.9411 217.801 33.1231 216.723 33.1231Z" fill="#F1F0F1"/>
<path d="M402.97 245.997V231.297H409.312C410.95 231.297 412.217 231.626 413.113 232.284C414.023 232.942 414.478 233.873 414.478 235.077C414.478 235.875 414.289 236.547 413.911 237.093C413.547 237.639 413.043 238.052 412.399 238.332C411.769 238.612 411.076 238.752 410.32 238.752L410.677 238.248C411.615 238.248 412.42 238.395 413.092 238.689C413.778 238.969 414.31 239.396 414.688 239.97C415.066 240.53 415.255 241.23 415.255 242.07C415.255 243.316 414.793 244.282 413.869 244.968C412.959 245.654 411.58 245.997 409.732 245.997H402.97ZM404.524 244.716H409.711C410.999 244.716 411.986 244.499 412.672 244.065C413.358 243.617 413.701 242.91 413.701 241.944C413.701 240.992 413.358 240.299 412.672 239.865C411.986 239.417 410.999 239.193 409.711 239.193H404.356V237.912H409.207C410.383 237.912 411.293 237.688 411.937 237.24C412.595 236.792 412.924 236.127 412.924 235.245C412.924 234.349 412.595 233.684 411.937 233.25C411.293 232.802 410.383 232.578 409.207 232.578H404.524V244.716Z" fill="#F1F0F1"/>
<line x1="224.509" y1="205.46" x2="224.509" y2="235.46" stroke="#F1F0F1" stroke-width="2"/>
<line x1="320.088" y1="114.19" x2="298.192" y2="134.698" stroke="#F1F0F1" stroke-width="2"/>
<line x1="142.213" y1="106.926" x2="163.492" y2="128.074" stroke="#F1F0F1" stroke-width="2"/>
<line x1="137.213" y1="111.751" x2="158.492" y2="132.899" stroke="#F1F0F1" stroke-width="2"/>
<line x1="325.088" y1="119.19" x2="303.192" y2="139.698" stroke="#F1F0F1" stroke-width="2"/>
<line x1="147.031" y1="101.751" x2="168.31" y2="122.899" stroke="#F1F0F1" stroke-width="2"/>
<path d="M227.009 49.46C229.409 53.46 240.009 53.46 243.009 49.46" stroke="#F1F0F1" stroke-width="2"/>
<path d="M69.7725 219.242C71.6442 214.969 65.5068 206.327 60.5085 206.197" stroke="#F1F0F1" stroke-width="2"/>
<path d="M384.24 210.396C379.582 210.128 373.616 218.89 375.234 223.621" stroke="#F1F0F1" stroke-width="2"/>
<path d="M74.877 220.075C76.7397 215.438 69.8704 204.138 64.5083 203.018" stroke="#F1F0F1" stroke-width="2"/>
<path d="M382.243 206.321C377.249 206.188 369.046 216.561 369.862 221.977" stroke="#F1F0F1" stroke-width="2"/>
<path d="M379.062 203.321C373.795 203.533 364.387 215.429 364.862 221.277" stroke="#F1F0F1" stroke-width="2"/>
<path d="M651.349 39.6098L461.75 220.173L811.333 222.683L651.349 39.6098Z" stroke="#F1F0F1" stroke-width="4.31122"/>
<circle cx="810.973" cy="222.478" r="5.38903" transform="rotate(0.986761 810.973 222.478)" fill="#F1F0F1"/>
<circle cx="650.973" cy="38.4781" r="5.38903" transform="rotate(0.986761 650.973 38.4781)" fill="#F1F0F1"/>
<circle cx="460.091" cy="220.148" r="5.38903" transform="rotate(0.986761 460.091 220.148)" fill="#F1F0F1"/>
<path d="M445.996 245.997L452.716 231.297H454.249L460.969 245.997H459.331L453.157 232.2H453.787L447.613 245.997H445.996ZM448.642 242.07L449.104 240.81H457.651L458.113 242.07H448.642ZM466.467 247.866L465.774 247.152H468.735V248.097H462.771V247.152H466.005L465.312 247.866V239.802L465.816 240.327H462.918V239.382H466.467V247.866Z" fill="#F1F0F1"/>
<path d="M628.711 33.1231C627.605 33.1231 626.583 32.9411 625.645 32.5771C624.707 32.1991 623.895 31.6741 623.209 31.0021C622.523 30.3301 621.984 29.5391 621.592 28.6291C621.214 27.7191 621.025 26.7251 621.025 25.6471C621.025 24.5691 621.214 23.5751 621.592 22.6651C621.984 21.7551 622.523 20.9641 623.209 20.2921C623.909 19.6201 624.728 19.1021 625.666 18.7381C626.604 18.3601 627.626 18.1711 628.732 18.1711C629.796 18.1711 630.797 18.3531 631.735 18.7171C632.673 19.0671 633.464 19.5991 634.108 20.3131L633.121 21.3001C632.519 20.6841 631.854 20.2431 631.126 19.9771C630.398 19.6971 629.614 19.5571 628.774 19.5571C627.892 19.5571 627.073 19.7111 626.317 20.0191C625.561 20.3131 624.903 20.7401 624.343 21.3001C623.783 21.8461 623.342 22.4901 623.02 23.2321C622.712 23.9601 622.558 24.7651 622.558 25.6471C622.558 26.5291 622.712 27.3411 623.02 28.0831C623.342 28.8111 623.783 29.4551 624.343 30.0151C624.903 30.5611 625.561 30.9881 626.317 31.2961C627.073 31.5901 627.892 31.7371 628.774 31.7371C629.614 31.7371 630.398 31.5971 631.126 31.3171C631.854 31.0371 632.519 30.5891 633.121 29.9731L634.108 30.9601C633.464 31.6741 632.673 32.2131 631.735 32.5771C630.797 32.9411 629.789 33.1231 628.711 33.1231ZM640.487 34.8661L639.794 34.1521H642.755V35.0971H636.791V34.1521H640.025L639.332 34.8661V26.8021L639.836 27.3271H636.938V26.3821H640.487V34.8661Z" fill="#F1F0F1"/>
<path d="M814.958 245.997V231.297H821.3C822.938 231.297 824.205 231.626 825.101 232.284C826.011 232.942 826.466 233.873 826.466 235.077C826.466 235.875 826.277 236.547 825.899 237.093C825.535 237.639 825.031 238.052 824.387 238.332C823.757 238.612 823.064 238.752 822.308 238.752L822.665 238.248C823.603 238.248 824.408 238.395 825.08 238.689C825.766 238.969 826.298 239.396 826.676 239.97C827.054 240.53 827.243 241.23 827.243 242.07C827.243 243.316 826.781 244.282 825.857 244.968C824.947 245.654 823.568 245.997 821.72 245.997H814.958ZM816.512 244.716H821.699C822.987 244.716 823.974 244.499 824.66 244.065C825.346 243.617 825.689 242.91 825.689 241.944C825.689 240.992 825.346 240.299 824.66 239.865C823.974 239.417 822.987 239.193 821.699 239.193H816.344V237.912H821.195C822.371 237.912 823.281 237.688 823.925 237.24C824.583 236.792 824.912 236.127 824.912 235.245C824.912 234.349 824.583 233.684 823.925 233.25C823.281 232.802 822.371 232.578 821.195 232.578H816.512V244.716ZM833.856 247.866L833.163 247.152H836.124V248.097H830.16V247.152H833.394L832.701 247.866V239.802L833.205 240.327H830.307V239.382H833.856V247.866Z" fill="#F1F0F1"/>
<line x1="640.509" y1="205.46" x2="640.509" y2="235.46" stroke="#F1F0F1" stroke-width="2"/>
<line x1="736.088" y1="114.19" x2="714.192" y2="134.698" stroke="#F1F0F1" stroke-width="2"/>
<line x1="558.213" y1="106.926" x2="579.492" y2="128.074" stroke="#F1F0F1" stroke-width="2"/>
<line x1="553.213" y1="111.751" x2="574.492" y2="132.899" stroke="#F1F0F1" stroke-width="2"/>
<line x1="741.088" y1="119.19" x2="719.192" y2="139.698" stroke="#F1F0F1" stroke-width="2"/>
<line x1="563.031" y1="101.751" x2="584.31" y2="122.899" stroke="#F1F0F1" stroke-width="2"/>
<path d="M643.009 49.46C645.409 53.46 656.009 53.46 659.009 49.46" stroke="#F1F0F1" stroke-width="2"/>
<path d="M485.773 219.242C487.644 214.969 481.507 206.327 476.509 206.197" stroke="#F1F0F1" stroke-width="2"/>
<path d="M800.24 210.396C795.582 210.128 789.616 218.89 791.234 223.621" stroke="#F1F0F1" stroke-width="2"/>
<path d="M490.877 220.075C492.74 215.438 485.871 204.138 480.509 203.018" stroke="#F1F0F1" stroke-width="2"/>
<path d="M798.243 206.321C793.249 206.188 785.046 216.561 785.862 221.977" stroke="#F1F0F1" stroke-width="2"/>
<path d="M795.062 203.321C789.795 203.533 780.387 215.429 780.862 221.277" stroke="#F1F0F1" stroke-width="2"/>
</svg>
