<svg width="794" height="338" viewBox="0 0 794 338" fill="none" xmlns="http://www.w3.org/2000/svg">
<path d="M143.221 101.314L34.1376 220.297L379.928 222.78L143.221 101.314Z" stroke="#F1F0F1" stroke-width="4.31122"/>
<circle cx="380.035" cy="221.941" r="5.38903" transform="rotate(0.986761 380.035 221.941)" fill="#F1F0F1"/>
<circle cx="142.84" cy="99.2803" r="5.38903" transform="rotate(0.986761 142.84 99.2803)" fill="#F1F0F1"/>
<circle cx="32.959" cy="220.275" r="5.38903" transform="rotate(0.986761 32.959 220.275)" fill="#F1F0F1"/>
<path d="M612.497 39.7372L422.899 220.3L772.481 222.811L612.497 39.7372Z" stroke="#F1F0F1" stroke-width="4.31122"/>
<circle cx="772.121" cy="222.606" r="5.38903" transform="rotate(0.986761 772.121 222.606)" fill="#F1F0F1"/>
<circle cx="612.121" cy="38.6055" r="5.38903" transform="rotate(0.986761 612.121 38.6055)" fill="#F1F0F1"/>
<circle cx="421.24" cy="220.275" r="5.38903" transform="rotate(0.986761 421.24 220.275)" fill="#F1F0F1"/>
<path d="M132.119 260.125V250.003L132.497 250.402H127.94V249.1H137.789V250.402H133.232L133.61 250.003V260.125H132.119ZM145.636 260.23C144.684 260.23 143.823 260.013 143.053 259.579C142.283 259.131 141.667 258.494 141.205 257.668C140.757 256.828 140.533 255.806 140.533 254.602C140.533 253.398 140.757 252.383 141.205 251.557C141.653 250.717 142.262 250.08 143.032 249.646C143.802 249.212 144.67 248.995 145.636 248.995C146.686 248.995 147.624 249.233 148.45 249.709C149.29 250.171 149.948 250.829 150.424 251.683C150.9 252.523 151.138 253.496 151.138 254.602C151.138 255.722 150.9 256.702 150.424 257.542C149.948 258.382 149.29 259.04 148.45 259.516C147.624 259.992 146.686 260.23 145.636 260.23ZM139.945 264.199V249.1H141.373V252.418L141.226 254.623L141.436 256.849V264.199H139.945ZM145.531 258.907C146.315 258.907 147.015 258.732 147.631 258.382C148.247 258.018 148.737 257.514 149.101 256.87C149.465 256.212 149.647 255.456 149.647 254.602C149.647 253.748 149.465 252.999 149.101 252.355C148.737 251.711 148.247 251.207 147.631 250.843C147.015 250.479 146.315 250.297 145.531 250.297C144.747 250.297 144.04 250.479 143.41 250.843C142.794 251.207 142.304 251.711 141.94 252.355C141.59 252.999 141.415 253.748 141.415 254.602C141.415 255.456 141.59 256.212 141.94 256.87C142.304 257.514 142.794 258.018 143.41 258.382C144.04 258.732 144.747 258.907 145.531 258.907ZM159.066 260.23C157.918 260.23 156.91 259.992 156.042 259.516C155.174 259.026 154.495 258.361 154.005 257.521C153.515 256.667 153.27 255.694 153.27 254.602C153.27 253.51 153.501 252.544 153.963 251.704C154.439 250.864 155.083 250.206 155.895 249.73C156.721 249.24 157.645 248.995 158.667 248.995C159.703 248.995 160.62 249.233 161.418 249.709C162.23 250.171 162.867 250.829 163.329 251.683C163.791 252.523 164.022 253.496 164.022 254.602C164.022 254.672 164.015 254.749 164.001 254.833C164.001 254.903 164.001 254.98 164.001 255.064H154.404V253.951H163.203L162.615 254.392C162.615 253.594 162.44 252.887 162.09 252.271C161.754 251.641 161.292 251.151 160.704 250.801C160.116 250.451 159.437 250.276 158.667 250.276C157.911 250.276 157.232 250.451 156.63 250.801C156.028 251.151 155.559 251.641 155.223 252.271C154.887 252.901 154.719 253.622 154.719 254.434V254.665C154.719 255.505 154.901 256.247 155.265 256.891C155.643 257.521 156.161 258.018 156.819 258.382C157.491 258.732 158.254 258.907 159.108 258.907C159.78 258.907 160.403 258.788 160.977 258.55C161.565 258.312 162.069 257.948 162.489 257.458L163.329 258.424C162.839 259.012 162.223 259.46 161.481 259.768C160.753 260.076 159.948 260.23 159.066 260.23ZM167.307 264.304C166.789 264.304 166.292 264.22 165.816 264.052C165.354 263.884 164.955 263.632 164.619 263.296L165.312 262.183C165.592 262.449 165.893 262.652 166.215 262.792C166.551 262.946 166.922 263.023 167.328 263.023C167.818 263.023 168.238 262.883 168.588 262.603C168.952 262.337 169.295 261.861 169.617 261.175L170.331 259.558L170.499 259.327L175.035 249.1H176.505L170.982 261.448C170.674 262.162 170.331 262.729 169.953 263.149C169.589 263.569 169.19 263.863 168.756 264.031C168.322 264.213 167.839 264.304 167.307 264.304ZM170.247 260.44L165.165 249.1H166.719L171.213 259.222L170.247 260.44ZM178.828 260.125V249.1H186.64V250.402H179.941L180.319 250.024V260.125H178.828ZM192.818 260.23C191.754 260.23 190.795 259.992 189.941 259.516C189.101 259.026 188.436 258.361 187.946 257.521C187.456 256.667 187.211 255.694 187.211 254.602C187.211 253.496 187.456 252.523 187.946 251.683C188.436 250.843 189.101 250.185 189.941 249.709C190.781 249.233 191.74 248.995 192.818 248.995C193.91 248.995 194.876 249.233 195.716 249.709C196.57 250.185 197.235 250.843 197.711 251.683C198.201 252.523 198.446 253.496 198.446 254.602C198.446 255.694 198.201 256.667 197.711 257.521C197.235 258.361 196.57 259.026 195.716 259.516C194.862 259.992 193.896 260.23 192.818 260.23ZM192.818 258.907C193.616 258.907 194.323 258.732 194.939 258.382C195.555 258.018 196.038 257.514 196.388 256.87C196.752 256.212 196.934 255.456 196.934 254.602C196.934 253.734 196.752 252.978 196.388 252.334C196.038 251.69 195.555 251.193 194.939 250.843C194.323 250.479 193.623 250.297 192.839 250.297C192.055 250.297 191.355 250.479 190.739 250.843C190.123 251.193 189.633 251.69 189.269 252.334C188.905 252.978 188.723 253.734 188.723 254.602C188.723 255.456 188.905 256.212 189.269 256.87C189.633 257.514 190.123 258.018 190.739 258.382C191.355 258.732 192.048 258.907 192.818 258.907ZM199.555 260.104L199.66 258.823C199.758 258.837 199.849 258.858 199.933 258.886C200.031 258.9 200.115 258.907 200.185 258.907C200.633 258.907 200.99 258.739 201.256 258.403C201.536 258.067 201.746 257.619 201.886 257.059C202.026 256.499 202.124 255.869 202.18 255.169C202.236 254.455 202.285 253.741 202.327 253.027L202.516 249.1H210.601V260.125H209.11V249.961L209.488 250.402H203.482L203.839 249.94L203.671 253.132C203.629 254.084 203.552 254.994 203.44 255.862C203.342 256.73 203.181 257.493 202.957 258.151C202.747 258.809 202.453 259.327 202.075 259.705C201.697 260.069 201.214 260.251 200.626 260.251C200.458 260.251 200.283 260.237 200.101 260.209C199.933 260.181 199.751 260.146 199.555 260.104ZM219.586 252.985C220.972 252.999 222.022 253.307 222.736 253.909C223.464 254.511 223.828 255.379 223.828 256.513C223.828 257.689 223.436 258.592 222.652 259.222C221.882 259.852 220.762 260.16 219.292 260.146L214.84 260.125V249.1H216.331V252.943L219.586 252.985ZM219.208 259.012C220.23 259.026 221 258.823 221.518 258.403C222.05 257.969 222.316 257.339 222.316 256.513C222.316 255.687 222.057 255.085 221.539 254.707C221.021 254.315 220.244 254.112 219.208 254.098L216.331 254.056V258.97L219.208 259.012ZM226.673 260.125V249.1H228.164V253.972H235.115V249.1H236.606V260.125H235.115V255.253H228.164V260.125H226.673ZM240.843 260.125V249.1H242.334V257.857L249.705 249.1H251.028V260.125H249.537V251.347L242.187 260.125H240.843ZM263.386 260.125L258.85 254.665L260.089 253.93L265.15 260.125H263.386ZM255.301 260.125V249.1H256.792V260.125H255.301ZM256.33 255.211V253.93H259.879V255.211H256.33ZM260.215 254.77L258.829 254.56L263.218 249.1H264.835L260.215 254.77Z" fill="#F1F0F1"/>
<path d="M465.928 260.125V250.003L466.306 250.402H461.749V249.1H471.598V250.402H467.041L467.419 250.003V260.125H465.928ZM479.445 260.23C478.493 260.23 477.632 260.013 476.862 259.579C476.092 259.131 475.476 258.494 475.014 257.668C474.566 256.828 474.342 255.806 474.342 254.602C474.342 253.398 474.566 252.383 475.014 251.557C475.462 250.717 476.071 250.08 476.841 249.646C477.611 249.212 478.479 248.995 479.445 248.995C480.495 248.995 481.433 249.233 482.259 249.709C483.099 250.171 483.757 250.829 484.233 251.683C484.709 252.523 484.947 253.496 484.947 254.602C484.947 255.722 484.709 256.702 484.233 257.542C483.757 258.382 483.099 259.04 482.259 259.516C481.433 259.992 480.495 260.23 479.445 260.23ZM473.754 264.199V249.1H475.182V252.418L475.035 254.623L475.245 256.849V264.199H473.754ZM479.34 258.907C480.124 258.907 480.824 258.732 481.44 258.382C482.056 258.018 482.546 257.514 482.91 256.87C483.274 256.212 483.456 255.456 483.456 254.602C483.456 253.748 483.274 252.999 482.91 252.355C482.546 251.711 482.056 251.207 481.44 250.843C480.824 250.479 480.124 250.297 479.34 250.297C478.556 250.297 477.849 250.479 477.219 250.843C476.603 251.207 476.113 251.711 475.749 252.355C475.399 252.999 475.224 253.748 475.224 254.602C475.224 255.456 475.399 256.212 475.749 256.87C476.113 257.514 476.603 258.018 477.219 258.382C477.849 258.732 478.556 258.907 479.34 258.907ZM492.875 260.23C491.727 260.23 490.719 259.992 489.851 259.516C488.983 259.026 488.304 258.361 487.814 257.521C487.324 256.667 487.079 255.694 487.079 254.602C487.079 253.51 487.31 252.544 487.772 251.704C488.248 250.864 488.892 250.206 489.704 249.73C490.53 249.24 491.454 248.995 492.476 248.995C493.512 248.995 494.429 249.233 495.227 249.709C496.039 250.171 496.676 250.829 497.138 251.683C497.6 252.523 497.831 253.496 497.831 254.602C497.831 254.672 497.824 254.749 497.81 254.833C497.81 254.903 497.81 254.98 497.81 255.064H488.213V253.951H497.012L496.424 254.392C496.424 253.594 496.249 252.887 495.899 252.271C495.563 251.641 495.101 251.151 494.513 250.801C493.925 250.451 493.246 250.276 492.476 250.276C491.72 250.276 491.041 250.451 490.439 250.801C489.837 251.151 489.368 251.641 489.032 252.271C488.696 252.901 488.528 253.622 488.528 254.434V254.665C488.528 255.505 488.71 256.247 489.074 256.891C489.452 257.521 489.97 258.018 490.628 258.382C491.3 258.732 492.063 258.907 492.917 258.907C493.589 258.907 494.212 258.788 494.786 258.55C495.374 258.312 495.878 257.948 496.298 257.458L497.138 258.424C496.648 259.012 496.032 259.46 495.29 259.768C494.562 260.076 493.757 260.23 492.875 260.23ZM501.115 264.304C500.597 264.304 500.1 264.22 499.624 264.052C499.162 263.884 498.763 263.632 498.427 263.296L499.12 262.183C499.4 262.449 499.701 262.652 500.023 262.792C500.359 262.946 500.73 263.023 501.136 263.023C501.626 263.023 502.046 262.883 502.396 262.603C502.76 262.337 503.103 261.861 503.425 261.175L504.139 259.558L504.307 259.327L508.843 249.1H510.313L504.79 261.448C504.482 262.162 504.139 262.729 503.761 263.149C503.397 263.569 502.998 263.863 502.564 264.031C502.13 264.213 501.647 264.304 501.115 264.304ZM504.055 260.44L498.973 249.1H500.527L505.021 259.222L504.055 260.44ZM512.636 260.125V249.1H520.448V250.402H513.749L514.127 250.024V260.125H512.636ZM526.626 260.23C525.562 260.23 524.603 259.992 523.749 259.516C522.909 259.026 522.244 258.361 521.754 257.521C521.264 256.667 521.019 255.694 521.019 254.602C521.019 253.496 521.264 252.523 521.754 251.683C522.244 250.843 522.909 250.185 523.749 249.709C524.589 249.233 525.548 248.995 526.626 248.995C527.718 248.995 528.684 249.233 529.524 249.709C530.378 250.185 531.043 250.843 531.519 251.683C532.009 252.523 532.254 253.496 532.254 254.602C532.254 255.694 532.009 256.667 531.519 257.521C531.043 258.361 530.378 259.026 529.524 259.516C528.67 259.992 527.704 260.23 526.626 260.23ZM526.626 258.907C527.424 258.907 528.131 258.732 528.747 258.382C529.363 258.018 529.846 257.514 530.196 256.87C530.56 256.212 530.742 255.456 530.742 254.602C530.742 253.734 530.56 252.978 530.196 252.334C529.846 251.69 529.363 251.193 528.747 250.843C528.131 250.479 527.431 250.297 526.647 250.297C525.863 250.297 525.163 250.479 524.547 250.843C523.931 251.193 523.441 251.69 523.077 252.334C522.713 252.978 522.531 253.734 522.531 254.602C522.531 255.456 522.713 256.212 523.077 256.87C523.441 257.514 523.931 258.018 524.547 258.382C525.163 258.732 525.856 258.907 526.626 258.907ZM533.364 260.104L533.469 258.823C533.567 258.837 533.658 258.858 533.742 258.886C533.84 258.9 533.924 258.907 533.994 258.907C534.442 258.907 534.799 258.739 535.065 258.403C535.345 258.067 535.555 257.619 535.695 257.059C535.835 256.499 535.933 255.869 535.989 255.169C536.045 254.455 536.094 253.741 536.136 253.027L536.325 249.1H544.41V260.125H542.919V249.961L543.297 250.402H537.291L537.648 249.94L537.48 253.132C537.438 254.084 537.361 254.994 537.249 255.862C537.151 256.73 536.99 257.493 536.766 258.151C536.556 258.809 536.262 259.327 535.884 259.705C535.506 260.069 535.023 260.251 534.435 260.251C534.267 260.251 534.092 260.237 533.91 260.209C533.742 260.181 533.56 260.146 533.364 260.104ZM553.394 252.985C554.78 252.999 555.83 253.307 556.544 253.909C557.272 254.511 557.636 255.379 557.636 256.513C557.636 257.689 557.244 258.592 556.46 259.222C555.69 259.852 554.57 260.16 553.1 260.146L548.648 260.125V249.1H550.139V252.943L553.394 252.985ZM553.016 259.012C554.038 259.026 554.808 258.823 555.326 258.403C555.858 257.969 556.124 257.339 556.124 256.513C556.124 255.687 555.865 255.085 555.347 254.707C554.829 254.315 554.052 254.112 553.016 254.098L550.139 254.056V258.97L553.016 259.012ZM560.481 260.125V249.1H561.972V253.972H568.923V249.1H570.414V260.125H568.923V255.253H561.972V260.125H560.481ZM574.652 260.125V249.1H576.143V257.857L583.514 249.1H584.837V260.125H583.346V251.347L575.996 260.125H574.652ZM597.195 260.125L592.659 254.665L593.898 253.93L598.959 260.125H597.195ZM589.11 260.125V249.1H590.601V260.125H589.11ZM590.139 255.211V253.93H593.688V255.211H590.139ZM594.024 254.77L592.638 254.56L597.027 249.1H598.644L594.024 254.77ZM611.428 260.23C610.336 260.23 609.356 259.992 608.488 259.516C607.634 259.026 606.962 258.361 606.472 257.521C605.982 256.667 605.737 255.694 605.737 254.602C605.737 253.496 605.982 252.523 606.472 251.683C606.962 250.843 607.634 250.185 608.488 249.709C609.356 249.233 610.336 248.995 611.428 248.995C612.366 248.995 613.213 249.177 613.969 249.541C614.725 249.905 615.32 250.451 615.754 251.179L614.641 251.935C614.263 251.375 613.794 250.962 613.234 250.696C612.674 250.43 612.065 250.297 611.407 250.297C610.623 250.297 609.916 250.479 609.286 250.843C608.656 251.193 608.159 251.69 607.795 252.334C607.431 252.978 607.249 253.734 607.249 254.602C607.249 255.47 607.431 256.226 607.795 256.87C608.159 257.514 608.656 258.018 609.286 258.382C609.916 258.732 610.623 258.907 611.407 258.907C612.065 258.907 612.674 258.774 613.234 258.508C613.794 258.242 614.263 257.836 614.641 257.29L615.754 258.046C615.32 258.76 614.725 259.306 613.969 259.684C613.213 260.048 612.366 260.23 611.428 260.23ZM624.137 260.125V249.1H629.009C630.255 249.1 631.235 249.338 631.949 249.814C632.677 250.29 633.041 250.99 633.041 251.914C633.041 252.81 632.698 253.503 632.012 253.993C631.326 254.469 630.423 254.707 629.303 254.707L629.597 254.266C630.913 254.266 631.879 254.511 632.495 255.001C633.111 255.491 633.419 256.198 633.419 257.122C633.419 258.074 633.069 258.816 632.369 259.348C631.683 259.866 630.612 260.125 629.156 260.125H624.137ZM625.586 258.949H629.093C630.031 258.949 630.738 258.802 631.214 258.508C631.704 258.2 631.949 257.71 631.949 257.038C631.949 256.366 631.732 255.876 631.298 255.568C630.864 255.26 630.178 255.106 629.24 255.106H625.586V258.949ZM625.586 253.993H628.904C629.758 253.993 630.409 253.832 630.857 253.51C631.319 253.188 631.55 252.719 631.55 252.103C631.55 251.487 631.319 251.025 630.857 250.717C630.409 250.409 629.758 250.255 628.904 250.255H625.586V253.993ZM641.639 260.23C640.491 260.23 639.483 259.992 638.615 259.516C637.747 259.026 637.068 258.361 636.578 257.521C636.088 256.667 635.843 255.694 635.843 254.602C635.843 253.51 636.074 252.544 636.536 251.704C637.012 250.864 637.656 250.206 638.468 249.73C639.294 249.24 640.218 248.995 641.24 248.995C642.276 248.995 643.193 249.233 643.991 249.709C644.803 250.171 645.44 250.829 645.902 251.683C646.364 252.523 646.595 253.496 646.595 254.602C646.595 254.672 646.588 254.749 646.574 254.833C646.574 254.903 646.574 254.98 646.574 255.064H636.977V253.951H645.776L645.188 254.392C645.188 253.594 645.013 252.887 644.663 252.271C644.327 251.641 643.865 251.151 643.277 250.801C642.689 250.451 642.01 250.276 641.24 250.276C640.484 250.276 639.805 250.451 639.203 250.801C638.601 251.151 638.132 251.641 637.796 252.271C637.46 252.901 637.292 253.622 637.292 254.434V254.665C637.292 255.505 637.474 256.247 637.838 256.891C638.216 257.521 638.734 258.018 639.392 258.382C640.064 258.732 640.827 258.907 641.681 258.907C642.353 258.907 642.976 258.788 643.55 258.55C644.138 258.312 644.642 257.948 645.062 257.458L645.902 258.424C645.412 259.012 644.796 259.46 644.054 259.768C643.326 260.076 642.521 260.23 641.639 260.23ZM655.586 260.23C654.634 260.23 653.773 260.013 653.003 259.579C652.233 259.131 651.617 258.494 651.155 257.668C650.707 256.828 650.483 255.806 650.483 254.602C650.483 253.398 650.707 252.383 651.155 251.557C651.603 250.717 652.212 250.08 652.982 249.646C653.752 249.212 654.62 248.995 655.586 248.995C656.636 248.995 657.574 249.233 658.4 249.709C659.24 250.171 659.898 250.829 660.374 251.683C660.85 252.523 661.088 253.496 661.088 254.602C661.088 255.722 660.85 256.702 660.374 257.542C659.898 258.382 659.24 259.04 658.4 259.516C657.574 259.992 656.636 260.23 655.586 260.23ZM649.895 264.199V249.1H651.323V252.418L651.176 254.623L651.386 256.849V264.199H649.895ZM655.481 258.907C656.265 258.907 656.965 258.732 657.581 258.382C658.197 258.018 658.687 257.514 659.051 256.87C659.415 256.212 659.597 255.456 659.597 254.602C659.597 253.748 659.415 252.999 659.051 252.355C658.687 251.711 658.197 251.207 657.581 250.843C656.965 250.479 656.265 250.297 655.481 250.297C654.697 250.297 653.99 250.479 653.36 250.843C652.744 251.207 652.254 251.711 651.89 252.355C651.54 252.999 651.365 253.748 651.365 254.602C651.365 255.456 651.54 256.212 651.89 256.87C652.254 257.514 652.744 258.018 653.36 258.382C653.99 258.732 654.697 258.907 655.481 258.907ZM671.537 258.823L671.201 259.222V249.1H672.692V259.222L672.293 258.823H678.446L678.047 259.222V249.1H679.538V260.125H664.292V249.1H665.783V259.222L665.405 258.823H671.537ZM683.774 260.125V249.1H685.265V257.857L692.636 249.1H693.959V260.125H692.468V251.347L685.118 260.125H683.774ZM698.232 260.125V249.1H699.723V253.972H706.674V249.1H708.165V260.125H706.674V255.253H699.723V260.125H698.232ZM719.249 260.125V257.689L719.186 257.29V253.216C719.186 252.278 718.92 251.557 718.388 251.053C717.87 250.549 717.093 250.297 716.057 250.297C715.343 250.297 714.664 250.416 714.02 250.654C713.376 250.892 712.83 251.207 712.382 251.599L711.71 250.486C712.27 250.01 712.942 249.646 713.726 249.394C714.51 249.128 715.336 248.995 716.204 248.995C717.632 248.995 718.731 249.352 719.501 250.066C720.285 250.766 720.677 251.837 720.677 253.279V260.125H719.249ZM715.448 260.23C714.622 260.23 713.901 260.097 713.285 259.831C712.683 259.551 712.221 259.173 711.899 258.697C711.577 258.207 711.416 257.647 711.416 257.017C711.416 256.443 711.549 255.925 711.815 255.463C712.095 254.987 712.543 254.609 713.159 254.329C713.789 254.035 714.629 253.888 715.679 253.888H719.48V255.001H715.721C714.657 255.001 713.915 255.19 713.495 255.568C713.089 255.946 712.886 256.415 712.886 256.975C712.886 257.605 713.131 258.109 713.621 258.487C714.111 258.865 714.797 259.054 715.679 259.054C716.519 259.054 717.24 258.865 717.842 258.487C718.458 258.095 718.906 257.535 719.186 256.807L719.522 257.836C719.242 258.564 718.752 259.145 718.052 259.579C717.366 260.013 716.498 260.23 715.448 260.23ZM724.646 260.125V249.1H726.158L731.156 257.563H730.526L735.608 249.1H736.994V260.125H735.629V250.801L735.902 250.927L731.156 258.781H730.484L725.696 250.843L726.011 250.78V260.125H724.646ZM741.237 260.125V249.1H742.728V257.857L750.099 249.1H751.422V260.125H749.931V251.347L742.581 260.125H741.237ZM451.382 292.125L458.102 277.425H459.635L466.355 292.125H464.717L458.543 278.328H459.173L452.999 292.125H451.382ZM454.028 288.198L454.49 286.938H463.037L463.499 288.198H454.028ZM468.287 295.191L469.211 291.306L469.379 292.209C469.057 292.209 468.784 292.104 468.56 291.894C468.35 291.684 468.245 291.411 468.245 291.075C468.245 290.739 468.35 290.466 468.56 290.256C468.784 290.046 469.05 289.941 469.358 289.941C469.68 289.941 469.939 290.053 470.135 290.277C470.345 290.501 470.45 290.767 470.45 291.075C470.45 291.187 470.443 291.299 470.429 291.411C470.415 291.523 470.387 291.649 470.345 291.789C470.303 291.929 470.247 292.097 470.177 292.293L469.295 295.191H468.287ZM479.451 292.125V277.425H485.793C487.431 277.425 488.698 277.754 489.594 278.412C490.504 279.07 490.959 280.001 490.959 281.205C490.959 282.003 490.77 282.675 490.392 283.221C490.028 283.767 489.524 284.18 488.88 284.46C488.25 284.74 487.557 284.88 486.801 284.88L487.158 284.376C488.096 284.376 488.901 284.523 489.573 284.817C490.259 285.097 490.791 285.524 491.169 286.098C491.547 286.658 491.736 287.358 491.736 288.198C491.736 289.444 491.274 290.41 490.35 291.096C489.44 291.782 488.061 292.125 486.213 292.125H479.451ZM481.005 290.844H486.192C487.48 290.844 488.467 290.627 489.153 290.193C489.839 289.745 490.182 289.038 490.182 288.072C490.182 287.12 489.839 286.427 489.153 285.993C488.467 285.545 487.48 285.321 486.192 285.321H480.837V284.04H485.688C486.864 284.04 487.774 283.816 488.418 283.368C489.076 282.92 489.405 282.255 489.405 281.373C489.405 280.477 489.076 279.812 488.418 279.378C487.774 278.93 486.864 278.706 485.688 278.706H481.005V290.844ZM494.065 295.191L494.989 291.306L495.157 292.209C494.835 292.209 494.562 292.104 494.338 291.894C494.128 291.684 494.023 291.411 494.023 291.075C494.023 290.739 494.128 290.466 494.338 290.256C494.562 290.046 494.828 289.941 495.136 289.941C495.458 289.941 495.717 290.053 495.913 290.277C496.123 290.501 496.228 290.767 496.228 291.075C496.228 291.187 496.221 291.299 496.207 291.411C496.193 291.523 496.165 291.649 496.123 291.789C496.081 291.929 496.025 292.097 495.955 292.293L495.073 295.191H494.065ZM511.613 292.251C510.507 292.251 509.485 292.069 508.547 291.705C507.609 291.327 506.797 290.802 506.111 290.13C505.425 289.458 504.886 288.667 504.494 287.757C504.116 286.847 503.927 285.853 503.927 284.775C503.927 283.697 504.116 282.703 504.494 281.793C504.886 280.883 505.425 280.092 506.111 279.42C506.811 278.748 507.63 278.23 508.568 277.866C509.506 277.488 510.528 277.299 511.634 277.299C512.698 277.299 513.699 277.481 514.637 277.845C515.575 278.195 516.366 278.727 517.01 279.441L516.023 280.428C515.421 279.812 514.756 279.371 514.028 279.105C513.3 278.825 512.516 278.685 511.676 278.685C510.794 278.685 509.975 278.839 509.219 279.147C508.463 279.441 507.805 279.868 507.245 280.428C506.685 280.974 506.244 281.618 505.922 282.36C505.614 283.088 505.46 283.893 505.46 284.775C505.46 285.657 505.614 286.469 505.922 287.211C506.244 287.939 506.685 288.583 507.245 289.143C507.805 289.689 508.463 290.116 509.219 290.424C509.975 290.718 510.794 290.865 511.676 290.865C512.516 290.865 513.3 290.725 514.028 290.445C514.756 290.165 515.421 289.717 516.023 289.101L517.01 290.088C516.366 290.802 515.575 291.341 514.637 291.705C513.699 292.069 512.691 292.251 511.613 292.251ZM519.392 295.191L520.316 291.306L520.484 292.209C520.162 292.209 519.889 292.104 519.665 291.894C519.455 291.684 519.35 291.411 519.35 291.075C519.35 290.739 519.455 290.466 519.665 290.256C519.889 290.046 520.155 289.941 520.463 289.941C520.785 289.941 521.044 290.053 521.24 290.277C521.45 290.501 521.555 290.767 521.555 291.075C521.555 291.187 521.548 291.299 521.534 291.411C521.52 291.523 521.492 291.649 521.45 291.789C521.408 291.929 521.352 292.097 521.282 292.293L520.4 295.191H519.392ZM530.283 292.125V281.1H531.774V289.857L539.145 281.1H540.468V292.125H538.977V283.347L531.627 292.125H530.283ZM554.857 292.23C553.765 292.23 552.785 291.992 551.917 291.516C551.063 291.026 550.391 290.361 549.901 289.521C549.411 288.667 549.166 287.694 549.166 286.602C549.166 285.496 549.411 284.523 549.901 283.683C550.391 282.843 551.063 282.185 551.917 281.709C552.785 281.233 553.765 280.995 554.857 280.995C555.795 280.995 556.642 281.177 557.398 281.541C558.154 281.905 558.749 282.451 559.183 283.179L558.07 283.935C557.692 283.375 557.223 282.962 556.663 282.696C556.103 282.43 555.494 282.297 554.836 282.297C554.052 282.297 553.345 282.479 552.715 282.843C552.085 283.193 551.588 283.69 551.224 284.334C550.86 284.978 550.678 285.734 550.678 286.602C550.678 287.47 550.86 288.226 551.224 288.87C551.588 289.514 552.085 290.018 552.715 290.382C553.345 290.732 554.052 290.907 554.836 290.907C555.494 290.907 556.103 290.774 556.663 290.508C557.223 290.242 557.692 289.836 558.07 289.29L559.183 290.046C558.749 290.76 558.154 291.306 557.398 291.684C556.642 292.048 555.795 292.23 554.857 292.23ZM563.965 292.125V282.003L564.343 282.402H559.786V281.1H569.635V282.402H565.078L565.456 282.003V292.125H563.965ZM575.814 292.23C574.75 292.23 573.791 291.992 572.937 291.516C572.097 291.026 571.432 290.361 570.942 289.521C570.452 288.667 570.207 287.694 570.207 286.602C570.207 285.496 570.452 284.523 570.942 283.683C571.432 282.843 572.097 282.185 572.937 281.709C573.777 281.233 574.736 280.995 575.814 280.995C576.906 280.995 577.872 281.233 578.712 281.709C579.566 282.185 580.231 282.843 580.707 283.683C581.197 284.523 581.442 285.496 581.442 286.602C581.442 287.694 581.197 288.667 580.707 289.521C580.231 290.361 579.566 291.026 578.712 291.516C577.858 291.992 576.892 292.23 575.814 292.23ZM575.814 290.907C576.612 290.907 577.319 290.732 577.935 290.382C578.551 290.018 579.034 289.514 579.384 288.87C579.748 288.212 579.93 287.456 579.93 286.602C579.93 285.734 579.748 284.978 579.384 284.334C579.034 283.69 578.551 283.193 577.935 282.843C577.319 282.479 576.619 282.297 575.835 282.297C575.051 282.297 574.351 282.479 573.735 282.843C573.119 283.193 572.629 283.69 572.265 284.334C571.901 284.978 571.719 285.734 571.719 286.602C571.719 287.456 571.901 288.212 572.265 288.87C572.629 289.514 573.119 290.018 573.735 290.382C574.351 290.732 575.044 290.907 575.814 290.907ZM590.32 292.23C589.368 292.23 588.507 292.013 587.737 291.579C586.967 291.131 586.351 290.494 585.889 289.668C585.441 288.828 585.217 287.806 585.217 286.602C585.217 285.398 585.441 284.383 585.889 283.557C586.337 282.717 586.946 282.08 587.716 281.646C588.486 281.212 589.354 280.995 590.32 280.995C591.37 280.995 592.308 281.233 593.134 281.709C593.974 282.171 594.632 282.829 595.108 283.683C595.584 284.523 595.822 285.496 595.822 286.602C595.822 287.722 595.584 288.702 595.108 289.542C594.632 290.382 593.974 291.04 593.134 291.516C592.308 291.992 591.37 292.23 590.32 292.23ZM584.629 296.199V281.1H586.057V284.418L585.91 286.623L586.12 288.849V296.199H584.629ZM590.215 290.907C590.999 290.907 591.699 290.732 592.315 290.382C592.931 290.018 593.421 289.514 593.785 288.87C594.149 288.212 594.331 287.456 594.331 286.602C594.331 285.748 594.149 284.999 593.785 284.355C593.421 283.711 592.931 283.207 592.315 282.843C591.699 282.479 590.999 282.297 590.215 282.297C589.431 282.297 588.724 282.479 588.094 282.843C587.478 283.207 586.988 283.711 586.624 284.355C586.274 284.999 586.099 285.748 586.099 286.602C586.099 287.456 586.274 288.212 586.624 288.87C586.988 289.514 587.478 290.018 588.094 290.382C588.724 290.732 589.431 290.907 590.215 290.907ZM603.562 292.23C602.498 292.23 601.539 291.992 600.685 291.516C599.845 291.026 599.18 290.361 598.69 289.521C598.2 288.667 597.955 287.694 597.955 286.602C597.955 285.496 598.2 284.523 598.69 283.683C599.18 282.843 599.845 282.185 600.685 281.709C601.525 281.233 602.484 280.995 603.562 280.995C604.654 280.995 605.62 281.233 606.46 281.709C607.314 282.185 607.979 282.843 608.455 283.683C608.945 284.523 609.19 285.496 609.19 286.602C609.19 287.694 608.945 288.667 608.455 289.521C607.979 290.361 607.314 291.026 606.46 291.516C605.606 291.992 604.64 292.23 603.562 292.23ZM603.562 290.907C604.36 290.907 605.067 290.732 605.683 290.382C606.299 290.018 606.782 289.514 607.132 288.87C607.496 288.212 607.678 287.456 607.678 286.602C607.678 285.734 607.496 284.978 607.132 284.334C606.782 283.69 606.299 283.193 605.683 282.843C605.067 282.479 604.367 282.297 603.583 282.297C602.799 282.297 602.099 282.479 601.483 282.843C600.867 283.193 600.377 283.69 600.013 284.334C599.649 284.978 599.467 285.734 599.467 286.602C599.467 287.456 599.649 288.212 600.013 288.87C600.377 289.514 600.867 290.018 601.483 290.382C602.099 290.732 602.792 290.907 603.562 290.907ZM612.376 292.125V281.1H613.867V285.972H620.818V281.1H622.309V292.125H620.818V287.253H613.867V292.125H612.376ZM633.393 292.125V289.689L633.33 289.29V285.216C633.33 284.278 633.064 283.557 632.532 283.053C632.014 282.549 631.237 282.297 630.201 282.297C629.487 282.297 628.808 282.416 628.164 282.654C627.52 282.892 626.974 283.207 626.526 283.599L625.854 282.486C626.414 282.01 627.086 281.646 627.87 281.394C628.654 281.128 629.48 280.995 630.348 280.995C631.776 280.995 632.875 281.352 633.645 282.066C634.429 282.766 634.821 283.837 634.821 285.279V292.125H633.393ZM629.592 292.23C628.766 292.23 628.045 292.097 627.429 291.831C626.827 291.551 626.365 291.173 626.043 290.697C625.721 290.207 625.56 289.647 625.56 289.017C625.56 288.443 625.693 287.925 625.959 287.463C626.239 286.987 626.687 286.609 627.303 286.329C627.933 286.035 628.773 285.888 629.823 285.888H633.624V287.001H629.865C628.801 287.001 628.059 287.19 627.639 287.568C627.233 287.946 627.03 288.415 627.03 288.975C627.03 289.605 627.275 290.109 627.765 290.487C628.255 290.865 628.941 291.054 629.823 291.054C630.663 291.054 631.384 290.865 631.986 290.487C632.602 290.095 633.05 289.535 633.33 288.807L633.666 289.836C633.386 290.564 632.896 291.145 632.196 291.579C631.51 292.013 630.642 292.23 629.592 292.23ZM638.79 292.125V281.1H640.302L645.3 289.563H644.67L649.752 281.1H651.138V292.125H649.773V282.801L650.046 282.927L645.3 290.781H644.628L639.84 282.843L640.155 282.78V292.125H638.79ZM655.381 292.125V281.1H656.872V289.857L664.243 281.1H665.566V292.125H664.075V283.347L656.725 292.125H655.381ZM673.256 292.125L679.976 277.425H681.509L688.229 292.125H686.591L680.417 278.328H681.047L674.873 292.125H673.256ZM675.902 288.198L676.364 286.938H684.911L685.373 288.198H675.902ZM690.661 292.125V277.425H697.003C698.641 277.425 699.908 277.754 700.804 278.412C701.714 279.07 702.169 280.001 702.169 281.205C702.169 282.003 701.98 282.675 701.602 283.221C701.238 283.767 700.734 284.18 700.09 284.46C699.46 284.74 698.767 284.88 698.011 284.88L698.368 284.376C699.306 284.376 700.111 284.523 700.783 284.817C701.469 285.097 702.001 285.524 702.379 286.098C702.757 286.658 702.946 287.358 702.946 288.198C702.946 289.444 702.484 290.41 701.56 291.096C700.65 291.782 699.271 292.125 697.423 292.125H690.661ZM692.215 290.844H697.402C698.69 290.844 699.677 290.627 700.363 290.193C701.049 289.745 701.392 289.038 701.392 288.072C701.392 287.12 701.049 286.427 700.363 285.993C699.677 285.545 698.69 285.321 697.402 285.321H692.047V284.04H696.898C698.074 284.04 698.984 283.816 699.628 283.368C700.286 282.92 700.615 282.255 700.615 281.373C700.615 280.477 700.286 279.812 699.628 279.378C698.984 278.93 698.074 278.706 696.898 278.706H692.215V290.844ZM705.275 295.191L706.199 291.306L706.367 292.209C706.045 292.209 705.772 292.104 705.548 291.894C705.338 291.684 705.233 291.411 705.233 291.075C705.233 290.739 705.338 290.466 705.548 290.256C705.772 290.046 706.038 289.941 706.346 289.941C706.668 289.941 706.927 290.053 707.123 290.277C707.333 290.501 707.438 290.767 707.438 291.075C707.438 291.187 707.431 291.299 707.417 291.411C707.403 291.523 707.375 291.649 707.333 291.789C707.291 291.929 707.235 292.097 707.165 292.293L706.283 295.191H705.275ZM714.087 292.125L720.807 277.425H722.34L729.06 292.125H727.422L721.248 278.328H721.878L715.704 292.125H714.087ZM716.733 288.198L717.195 286.938H725.742L726.204 288.198H716.733ZM737.671 292.251C736.565 292.251 735.543 292.069 734.605 291.705C733.667 291.327 732.855 290.802 732.169 290.13C731.483 289.458 730.944 288.667 730.552 287.757C730.174 286.847 729.985 285.853 729.985 284.775C729.985 283.697 730.174 282.703 730.552 281.793C730.944 280.883 731.483 280.092 732.169 279.42C732.869 278.748 733.688 278.23 734.626 277.866C735.564 277.488 736.586 277.299 737.692 277.299C738.756 277.299 739.757 277.481 740.695 277.845C741.633 278.195 742.424 278.727 743.068 279.441L742.081 280.428C741.479 279.812 740.814 279.371 740.086 279.105C739.358 278.825 738.574 278.685 737.734 278.685C736.852 278.685 736.033 278.839 735.277 279.147C734.521 279.441 733.863 279.868 733.303 280.428C732.743 280.974 732.302 281.618 731.98 282.36C731.672 283.088 731.518 283.893 731.518 284.775C731.518 285.657 731.672 286.469 731.98 287.211C732.302 287.939 732.743 288.583 733.303 289.143C733.863 289.689 734.521 290.116 735.277 290.424C736.033 290.718 736.852 290.865 737.734 290.865C738.574 290.865 739.358 290.725 740.086 290.445C740.814 290.165 741.479 289.717 742.081 289.101L743.068 290.088C742.424 290.802 741.633 291.341 740.695 291.705C739.757 292.069 738.749 292.251 737.671 292.251ZM751.604 292.125V281.1H753.095V289.857L760.466 281.1H761.789V292.125H760.298V283.347L752.948 292.125H751.604ZM594.571 324.125V309.425H600.913C602.551 309.425 603.818 309.754 604.714 310.412C605.624 311.07 606.079 312.001 606.079 313.205C606.079 314.003 605.89 314.675 605.512 315.221C605.148 315.767 604.644 316.18 604 316.46C603.37 316.74 602.677 316.88 601.921 316.88L602.278 316.376C603.216 316.376 604.021 316.523 604.693 316.817C605.379 317.097 605.911 317.524 606.289 318.098C606.667 318.658 606.856 319.358 606.856 320.198C606.856 321.444 606.394 322.41 605.47 323.096C604.56 323.782 603.181 324.125 601.333 324.125H594.571ZM596.125 322.844H601.312C602.6 322.844 603.587 322.627 604.273 322.193C604.959 321.745 605.302 321.038 605.302 320.072C605.302 319.12 604.959 318.427 604.273 317.993C603.587 317.545 602.6 317.321 601.312 317.321H595.957V316.04H600.808C601.984 316.04 602.894 315.816 603.538 315.368C604.196 314.92 604.525 314.255 604.525 313.373C604.525 312.477 604.196 311.812 603.538 311.378C602.894 310.93 601.984 310.706 600.808 310.706H596.125V322.844ZM616.788 324.251C615.682 324.251 614.66 324.069 613.722 323.705C612.784 323.327 611.972 322.802 611.286 322.13C610.6 321.458 610.061 320.667 609.669 319.757C609.291 318.847 609.102 317.853 609.102 316.775C609.102 315.697 609.291 314.703 609.669 313.793C610.061 312.883 610.6 312.092 611.286 311.42C611.986 310.748 612.805 310.23 613.743 309.866C614.681 309.488 615.703 309.299 616.809 309.299C617.873 309.299 618.874 309.481 619.812 309.845C620.75 310.195 621.541 310.727 622.185 311.441L621.198 312.428C620.596 311.812 619.931 311.371 619.203 311.105C618.475 310.825 617.691 310.685 616.851 310.685C615.969 310.685 615.15 310.839 614.394 311.147C613.638 311.441 612.98 311.868 612.42 312.428C611.86 312.974 611.419 313.618 611.097 314.36C610.789 315.088 610.635 315.893 610.635 316.775C610.635 317.657 610.789 318.469 611.097 319.211C611.419 319.939 611.86 320.583 612.42 321.143C612.98 321.689 613.638 322.116 614.394 322.424C615.15 322.718 615.969 322.865 616.851 322.865C617.691 322.865 618.475 322.725 619.203 322.445C619.931 322.165 620.596 321.717 621.198 321.101L622.185 322.088C621.541 322.802 620.75 323.341 619.812 323.705C618.874 324.069 617.866 324.251 616.788 324.251Z" fill="#F1F0F1"/>
<path d="M411.156 246.125L417.876 231.425H419.409L426.129 246.125H424.491L418.317 232.328H418.947L412.773 246.125H411.156ZM413.802 242.198L414.264 240.938H422.811L423.273 242.198H413.802Z" fill="#F1F0F1"/>
<path d="M587.118 33.1245V18.4245H593.46C595.098 18.4245 596.365 18.7535 597.261 19.4115C598.171 20.0695 598.626 21.0005 598.626 22.2045C598.626 23.0025 598.437 23.6745 598.059 24.2205C597.695 24.7665 597.191 25.1795 596.547 25.4595C595.917 25.7395 595.224 25.8795 594.468 25.8795L594.825 25.3755C595.763 25.3755 596.568 25.5225 597.24 25.8165C597.926 26.0965 598.458 26.5235 598.836 27.0975C599.214 27.6575 599.403 28.3575 599.403 29.1975C599.403 30.4435 598.941 31.4095 598.017 32.0955C597.107 32.7815 595.728 33.1245 593.88 33.1245H587.118ZM588.672 31.8435H593.859C595.147 31.8435 596.134 31.6265 596.82 31.1925C597.506 30.7445 597.849 30.0375 597.849 29.0715C597.849 28.1195 597.506 27.4265 596.82 26.9925C596.134 26.5445 595.147 26.3205 593.859 26.3205H588.504V25.0395H593.355C594.531 25.0395 595.441 24.8155 596.085 24.3675C596.743 23.9195 597.072 23.2545 597.072 22.3725C597.072 21.4765 596.743 20.8115 596.085 20.3775C595.441 19.9295 594.531 19.7055 593.355 19.7055H588.672V31.8435Z" fill="#F1F0F1"/>
<path d="M786.871 246.251C785.765 246.251 784.743 246.069 783.805 245.705C782.867 245.327 782.055 244.802 781.369 244.13C780.683 243.458 780.144 242.667 779.752 241.757C779.374 240.847 779.185 239.853 779.185 238.775C779.185 237.697 779.374 236.703 779.752 235.793C780.144 234.883 780.683 234.092 781.369 233.42C782.069 232.748 782.888 232.23 783.826 231.866C784.764 231.488 785.786 231.299 786.892 231.299C787.956 231.299 788.957 231.481 789.895 231.845C790.833 232.195 791.624 232.727 792.268 233.441L791.281 234.428C790.679 233.812 790.014 233.371 789.286 233.105C788.558 232.825 787.774 232.685 786.934 232.685C786.052 232.685 785.233 232.839 784.477 233.147C783.721 233.441 783.063 233.868 782.503 234.428C781.943 234.974 781.502 235.618 781.18 236.36C780.872 237.088 780.718 237.893 780.718 238.775C780.718 239.657 780.872 240.469 781.18 241.211C781.502 241.939 781.943 242.583 782.503 243.143C783.063 243.689 783.721 244.116 784.477 244.424C785.233 244.718 786.052 244.865 786.934 244.865C787.774 244.865 788.558 244.725 789.286 244.445C790.014 244.165 790.679 243.717 791.281 243.101L792.268 244.088C791.624 244.802 790.833 245.341 789.895 245.705C788.957 246.069 787.949 246.251 786.871 246.251Z" fill="#F1F0F1"/>
</svg>
